<svg xmlns="http://www.w3.org/2000/svg" xmlns:xml="http://www.w3.org/XML/1998/namespace" id="icon" width="87.264" height="205.104" x="0" y="0" baseProfile="tiny" gorn="0" overflow="visible" version="1.2" viewBox="0 0 65.448 153.828" xml:space="preserve"><desc><referenceFile>svg.pcb.rpi_pico-tht_1_pcb (3)-01-01.svg</referenceFile></desc><g id="silkscreen" gorn=".1"><line id="line148" x1="33.586" x2="36.168" y1="22.521" y2="32.629" fill="none" stroke="#000" stroke-linecap="round" stroke-linejoin="round" stroke-miterlimit="10" stroke-width=".36" gorn="0.1.0"/><line id="line146" x1="29.964" x2="34.044" y1="29.846" y2="33.67" fill="none" stroke="#000" stroke-linecap="round" stroke-linejoin="round" stroke-miterlimit="10" stroke-width=".36" gorn="0.1.1"/><line id="line144" x1="30.092" x2="33.917" y1="42.798" y2="38.718" fill="none" stroke="#000" stroke-linecap="round" stroke-linejoin="round" stroke-miterlimit="10" stroke-width=".36" gorn="0.1.2"/><line id="line24" x1="30.05" x2="33.875" y1="35.845" y2="35.845" fill="none" stroke="#000" stroke-linecap="round" stroke-linejoin="round" stroke-miterlimit="10" stroke-width=".36" gorn="0.1.3"/><rect id="rect1500" width="19.181" height="5.436" x="23.035" y=".36" fill="none" stroke="#000" stroke-miterlimit="10" stroke-width=".72" gorn="0.1.4"/><circle id="ellipse1492" cx="48.85" cy="12.043" r="2.52" gorn="0.1.5"/><circle id="ellipse1489" cx="16.564" cy="12.043" r="2.52" gorn="0.1.6"/><polygon id="rect1498" fill="none" stroke="#000" stroke-miterlimit="10" stroke-width=".72" points="2.778 5.865 62.922 5.865 62.922 151.416 52.567 151.416 52.567 125.904 12.881 125.904 12.881 151.416 2.778 151.416" gorn="0.1.7"/><rect id="rect4521" width="5.939" height="5.939" x="22.674" y="40.141" gorn="0.1.8"/><rect id="rect4519" width="5.939" height="5.939" x="22.674" y="33.091" gorn="0.1.9"/><rect id="rect4517" width="5.939" height="5.939" x="22.674" y="26.041" gorn="0.1.10"/><path d="M44.4860229,10.5758657c0-1.3493042-0.4923096-2.4906616-1.1802979-2.9368896V7.1412954H22.1489868v0.555481c-0.6395874,0.4855957-1.0874634,1.590271-1.0874634,2.8790894c0,1.2888794,0.447876,2.3934937,1.0874634,2.8790894v8.1755991h1.1881104c0.5615845,0.6473389,1.4850464,1.072876,2.5341797,1.072876s1.9725952-0.4255371,2.5341797-1.072876h8.7316895c0.5615845,0.6473389,1.4850464,1.072876,2.5341797,1.072876s1.9725952-0.4255371,2.5341797-1.072876h1.1002197v-8.1177988C43.9937134,13.0665274,44.4860229,11.925231,44.4860229,10.5758657z"/><g><g><g><text font-family="OCRA" font-size="2.4" transform="matrix(1 0 0 1 34.8767395 36.827919)">KEEPOUT</text></g></g></g></g><g id="copper1" gorn=".2"><g id="copper0" gorn="0.2.0"><circle id="nonconn1" cx="39.55" cy="19.168" r="2.088" fill="#FFF" gorn="0.2.0.0"/><circle id="nonconn2" cx="25.825" cy="19.168" r="2.088" fill="#FFF" gorn="0.2.0.1"/><circle id="nonconn3" cx="25" cy="10.543" r="2.52" fill="#FFF" gorn="0.2.0.2"/><circle id="nonconn4" cx="40.45" cy="10.543" r="2.52" fill="#FFF" gorn="0.2.0.3"/><rect id="rect0" width="10.344" height="5.054" y="7.589" fill="#F7BD13" gorn="0.2.0.4"/><rect id="rect1" width="10.368" height="5.054" x=".027" y="14.789" fill="#F7BD13" gorn="0.2.0.5"/><rect id="rect2" width="10.368" height="5.054" x=".027" y="21.989" fill="#F7BD13" gorn="0.2.0.6"/><rect id="rect3" width="10.368" height="5.054" y="29.189" fill="#F7BD13" gorn="0.2.0.7"/><rect id="rect4" width="10.368" height="5.054" x=".027" y="36.389" fill="#F7BD13" gorn="0.2.0.8"/><rect id="rect5" width="10.368" height="5.054" x=".027" y="43.589" fill="#F7BD13" gorn="0.2.0.9"/><rect id="rect6" width="10.368" height="5.054" x=".027" y="50.789" fill="#F7BD13" gorn="0.2.0.10"/><rect id="rect7" width="10.368" height="5.054" x=".027" y="57.989" fill="#F7BD13" gorn="0.2.0.11"/><rect id="rect8" width="10.368" height="5.054" x=".027" y="65.189" fill="#F7BD13" gorn="0.2.0.12"/><rect id="rect9" width="10.368" height="5.054" x=".027" y="72.389" fill="#F7BD13" gorn="0.2.0.13"/><rect id="rect10" width="10.368" height="5.054" x=".027" y="79.589" fill="#F7BD13" gorn="0.2.0.14"/><rect id="rect11" width="10.368" height="5.054" x=".027" y="86.789" fill="#F7BD13" gorn="0.2.0.15"/><rect id="rect12" width="10.368" height="5.054" x=".027" y="93.989" fill="#F7BD13" gorn="0.2.0.16"/><rect id="rect13" width="10.368" height="5.054" x=".027" y="101.189" fill="#F7BD13" gorn="0.2.0.17"/><rect id="rect14" width="10.368" height="5.054" x=".027" y="108.389" fill="#F7BD13" gorn="0.2.0.18"/><rect id="rect15" width="10.368" height="5.054" x=".027" y="115.589" fill="#F7BD13" gorn="0.2.0.19"/><rect id="rect16" width="10.368" height="5.054" x=".027" y="122.789" fill="#F7BD13" gorn="0.2.0.20"/><rect id="rect17" width="10.368" height="5.054" x=".027" y="129.989" fill="#F7BD13" gorn="0.2.0.21"/><rect id="rect18" width="10.368" height="5.054" x=".027" y="137.189" fill="#F7BD13" gorn="0.2.0.22"/><rect id="rect19" width="10.368" height="5.054" x=".027" y="144.389" fill="#F7BD13" gorn="0.2.0.23"/><rect id="rect20" width="10.368" height="5.054" x="55.08" y="144.389" fill="#F7BD13" gorn="0.2.0.24"/><rect id="rect21" width="10.368" height="5.054" x="55.08" y="137.189" fill="#F7BD13" gorn="0.2.0.25"/><rect id="rect22" width="10.368" height="5.054" x="55.08" y="129.989" fill="#F7BD13" gorn="0.2.0.26"/><rect id="rect23" width="10.368" height="5.054" x="55.08" y="122.789" fill="#F7BD13" gorn="0.2.0.27"/><rect id="rect24" width="10.368" height="5.054" x="55.08" y="115.589" fill="#F7BD13" gorn="0.2.0.28"/><rect id="rect25" width="10.368" height="5.054" x="55.08" y="108.389" fill="#F7BD13" gorn="0.2.0.29"/><rect id="rect26" width="10.368" height="5.054" x="55.08" y="101.189" fill="#F7BD13" gorn="0.2.0.30"/><rect id="rect27" width="10.368" height="5.054" x="55.08" y="93.989" fill="#F7BD13" gorn="0.2.0.31"/><rect id="rect28" width="10.368" height="5.054" x="55.08" y="86.789" fill="#F7BD13" gorn="0.2.0.32"/><rect id="rect29" width="10.368" height="5.054" x="55.08" y="79.589" fill="#F7BD13" gorn="0.2.0.33"/><rect id="rect30" width="10.368" height="5.054" x="55.08" y="72.389" fill="#F7BD13" gorn="0.2.0.34"/><rect id="rect31" width="10.368" height="5.054" x="55.08" y="65.189" fill="#F7BD13" gorn="0.2.0.35"/><rect id="rect32" width="10.368" height="5.054" x="55.08" y="57.989" fill="#F7BD13" gorn="0.2.0.36"/><rect id="rect33" width="10.368" height="5.054" x="55.08" y="50.789" fill="#F7BD13" gorn="0.2.0.37"/><rect id="rect34" width="10.368" height="5.054" x="55.08" y="43.589" fill="#F7BD13" gorn="0.2.0.38"/><rect id="rect35" width="10.368" height="5.054" x="55.08" y="36.389" fill="#F7BD13" gorn="0.2.0.39"/><rect id="rect36" width="10.368" height="5.054" x="55.08" y="29.189" fill="#F7BD13" gorn="0.2.0.40"/><rect id="rect37" width="10.368" height="5.054" x="55.08" y="21.989" fill="#F7BD13" gorn="0.2.0.41"/><rect id="rect38" width="10.368" height="5.054" x="55.08" y="14.789" fill="#F7BD13" gorn="0.2.0.42"/><rect id="rect39" width="10.368" height="5.054" x="55.08" y="7.589" fill="#F7BD13" gorn="0.2.0.43"/><g><circle id="connector0pin" cx="7.533" cy="10.116" r="2.088" fill="#FFF" stroke="#F7BD13" stroke-miterlimit="10" stroke-width=".5" gorn="0.2.0.44.0"/><circle id="connector1pin" cx="7.533" cy="17.316" r="2.088" fill="#FFF" stroke="#F7BD13" stroke-miterlimit="10" stroke-width=".5" gorn="0.2.0.44.1"/><circle id="connector2pin" cx="7.533" cy="24.516" r="2.088" fill="#FFF" stroke="#F7BD13" stroke-miterlimit="10" stroke-width=".5" gorn="0.2.0.44.2"/><circle id="connector3pin" cx="7.533" cy="31.716" r="2.088" fill="#FFF" stroke="#F7BD13" stroke-miterlimit="10" stroke-width=".5" gorn="0.2.0.44.3"/><circle id="connector4pin" cx="7.533" cy="38.916" r="2.088" fill="#FFF" stroke="#F7BD13" stroke-miterlimit="10" stroke-width=".5" gorn="0.2.0.44.4"/><circle id="connector5pin" cx="7.533" cy="46.116" r="2.088" fill="#FFF" stroke="#F7BD13" stroke-miterlimit="10" stroke-width=".5" gorn="0.2.0.44.5"/><circle id="connector6pin" cx="7.533" cy="53.316" r="2.088" fill="#FFF" stroke="#F7BD13" stroke-miterlimit="10" stroke-width=".5" gorn="0.2.0.44.6"/><circle id="connector7pin" cx="7.533" cy="60.516" r="2.088" fill="#FFF" stroke="#F7BD13" stroke-miterlimit="10" stroke-width=".5" gorn="0.2.0.44.7"/><circle id="connector8pin" cx="7.533" cy="67.716" r="2.088" fill="#FFF" stroke="#F7BD13" stroke-miterlimit="10" stroke-width=".5" gorn="0.2.0.44.8"/><circle id="connector9pin" cx="7.533" cy="74.956" r="2.088" fill="#FFF" stroke="#F7BD13" stroke-miterlimit="10" stroke-width=".5" gorn="0.2.0.44.9"/><circle id="connector10pin" cx="7.533" cy="82.116" r="2.088" fill="#FFF" stroke="#F7BD13" stroke-miterlimit="10" stroke-width=".5" gorn="0.2.0.44.10"/><circle id="connector11pin" cx="7.533" cy="89.316" r="2.088" fill="#FFF" stroke="#F7BD13" stroke-miterlimit="10" stroke-width=".5" gorn="0.2.0.44.11"/><circle id="connector12pin" cx="7.533" cy="96.516" r="2.088" fill="#FFF" stroke="#F7BD13" stroke-miterlimit="10" stroke-width=".5" gorn="0.2.0.44.12"/><circle id="connector13pin" cx="7.533" cy="103.716" r="2.088" fill="#FFF" stroke="#F7BD13" stroke-miterlimit="10" stroke-width=".5" gorn="0.2.0.44.13"/><circle id="connector14pin" cx="7.533" cy="110.916" r="2.088" fill="#FFF" stroke="#F7BD13" stroke-miterlimit="10" stroke-width=".5" gorn="0.2.0.44.14"/><circle id="connector15pin" cx="7.533" cy="118.116" r="2.088" fill="#FFF" stroke="#F7BD13" stroke-miterlimit="10" stroke-width=".5" gorn="0.2.0.44.15"/><circle id="connector16pin" cx="7.533" cy="125.316" r="2.088" fill="#FFF" stroke="#F7BD13" stroke-miterlimit="10" stroke-width=".5" gorn="0.2.0.44.16"/><circle id="connector17pin" cx="7.533" cy="132.516" r="2.088" fill="#FFF" stroke="#F7BD13" stroke-miterlimit="10" stroke-width=".5" gorn="0.2.0.44.17"/><circle id="connector18pin" cx="7.533" cy="139.716" r="2.088" fill="#FFF" stroke="#F7BD13" stroke-miterlimit="10" stroke-width=".5" gorn="0.2.0.44.18"/><circle id="connector19pin" cx="7.533" cy="146.916" r="2.088" fill="#FFF" stroke="#F7BD13" stroke-miterlimit="10" stroke-width=".5" gorn="0.2.0.44.19"/><circle id="connector20pin" cx="57.901" cy="146.916" r="2.088" fill="#FFF" stroke="#F7BD13" stroke-miterlimit="10" stroke-width=".5" gorn="0.2.0.44.20"/><circle id="connector21pin" cx="57.901" cy="139.716" r="2.088" fill="#FFF" stroke="#F7BD13" stroke-miterlimit="10" stroke-width=".5" gorn="0.2.0.44.21"/><circle id="connector22pin" cx="57.901" cy="132.516" r="2.088" fill="#FFF" stroke="#F7BD13" stroke-miterlimit="10" stroke-width=".5" gorn="0.2.0.44.22"/><circle id="connector23pin" cx="57.901" cy="125.316" r="2.088" fill="#FFF" stroke="#F7BD13" stroke-miterlimit="10" stroke-width=".5" gorn="0.2.0.44.23"/><circle id="connector24pin" cx="57.901" cy="118.116" r="2.088" fill="#FFF" stroke="#F7BD13" stroke-miterlimit="10" stroke-width=".5" gorn="0.2.0.44.24"/><circle id="connector25pin" cx="57.901" cy="110.916" r="2.088" fill="#FFF" stroke="#F7BD13" stroke-miterlimit="10" stroke-width=".5" gorn="0.2.0.44.25"/><circle id="connector26pin" cx="57.901" cy="103.716" r="2.088" fill="#FFF" stroke="#F7BD13" stroke-miterlimit="10" stroke-width=".5" gorn="0.2.0.44.26"/><circle id="connector27pin" cx="57.901" cy="96.516" r="2.088" fill="#FFF" stroke="#F7BD13" stroke-miterlimit="10" stroke-width=".5" gorn="0.2.0.44.27"/><circle id="connector28pin" cx="57.901" cy="89.316" r="2.088" fill="#FFF" stroke="#F7BD13" stroke-miterlimit="10" stroke-width=".5" gorn="0.2.0.44.28"/><circle id="connector29pin" cx="57.901" cy="82.116" r="2.088" fill="#FFF" stroke="#F7BD13" stroke-miterlimit="10" stroke-width=".5" gorn="0.2.0.44.29"/><circle id="connector30pin" cx="57.901" cy="74.916" r="2.088" fill="#FFF" stroke="#F7BD13" stroke-miterlimit="10" stroke-width=".5" gorn="0.2.0.44.30"/><circle id="connector31pin" cx="57.901" cy="67.716" r="2.088" fill="#FFF" stroke="#F7BD13" stroke-miterlimit="10" stroke-width=".5" gorn="0.2.0.44.31"/><circle id="connector32pin" cx="57.901" cy="60.516" r="2.088" fill="#FFF" stroke="#F7BD13" stroke-miterlimit="10" stroke-width=".5" gorn="0.2.0.44.32"/><circle id="connector33pin" cx="57.901" cy="53.316" r="2.088" fill="#FFF" stroke="#F7BD13" stroke-miterlimit="10" stroke-width=".5" gorn="0.2.0.44.33"/><circle id="connector34pin" cx="57.901" cy="46.116" r="2.088" fill="#FFF" stroke="#F7BD13" stroke-miterlimit="10" stroke-width=".5" gorn="0.2.0.44.34"/><circle id="connector35pin" cx="57.901" cy="38.916" r="2.088" fill="#FFF" stroke="#F7BD13" stroke-miterlimit="10" stroke-width=".5" gorn="0.2.0.44.35"/><circle id="connector36pin" cx="57.901" cy="31.716" r="2.088" fill="#FFF" stroke="#F7BD13" stroke-miterlimit="10" stroke-width=".5" gorn="0.2.0.44.36"/><circle id="connector37pin" cx="57.901" cy="24.516" r="2.088" fill="#FFF" stroke="#F7BD13" stroke-miterlimit="10" stroke-width=".5" gorn="0.2.0.44.37"/><circle id="connector38pin" cx="57.901" cy="17.316" r="2.088" fill="#FFF" stroke="#F7BD13" stroke-miterlimit="10" stroke-width=".5" gorn="0.2.0.44.38"/><circle id="connector39pin" cx="57.901" cy="10.116" r="2.088" fill="#FFF" stroke="#F7BD13" stroke-miterlimit="10" stroke-width=".5" gorn="0.2.0.44.39"/><circle id="connector40pin" cx="34.814" cy="95.29" r="2.088" fill="#FFF" stroke="#F7BD13" stroke-miterlimit="10" stroke-width=".5" gorn="0.2.0.44.40"/><circle id="connector41pin" cx="42.014" cy="95.29" r="2.088" fill="#FFF" stroke="#F7BD13" stroke-miterlimit="10" stroke-width=".5" gorn="0.2.0.44.41"/><circle id="connector42pin" cx="49.214" cy="95.29" r="2.088" fill="#FFF" stroke="#F7BD13" stroke-miterlimit="10" stroke-width=".5" gorn="0.2.0.44.42"/></g></g></g></svg>