<svg xmlns="http://www.w3.org/2000/svg" width="96" height="86.4" x="0" y="0" baseProfile="tiny" version="1.2" viewBox="0 0 72 64.8"><desc><referenceFile>Adafruit SGP30_schematic.svg</referenceFile></desc><desc>Fritzing schematic generated by brd2svg</desc><g id="schematic" gorn=".1"><rect width="42.75" height="36" x="14.4" y="14.4" fill="none" stroke="#000" stroke-linecap="round" stroke-linejoin="round" stroke-width=".9"/><text id="label" x="36" y="28.8" fill="#000" stroke="none" font-family="'Droid Sans'" font-size="3.5" gorn="0.1.1" text-anchor="middle">Adafruit</text><text id="label" x="36" y="32.3" fill="#000" stroke="none" font-family="'Droid Sans'" font-size="3.5" gorn="0.1.2" text-anchor="middle">SGP30</text><line x1=".35" x2="14.4" y1="28.8" y2="28.8" fill="none" stroke="#787878" stroke-linecap="round" stroke-linejoin="round" stroke-width=".7"/><rect id="connector16pin" width="14.4" height=".7" x="0" y="28.45" fill="none" stroke-width="0" connectorName="SCL" gorn="0.1.4"/><rect id="connector16terminal" width="0" height=".7" x="0" y="28.45" fill="none" stroke-width="0" gorn="0.1.5"/><text id="label16" x="15.8" y="29.5" fill="#8c8c8c" stroke="none" font-family="'Droid Sans'" font-size="3.5" gorn="0.1.6" text-anchor="start">SCL</text><line x1="57.25" x2="71.65" y1="28.8" y2="28.8" fill="none" stroke="#787878" stroke-linecap="round" stroke-linejoin="round" stroke-width=".7"/><rect id="connector17pin" width="14.4" height=".7" x="57.6" y="28.45" fill="none" stroke-width="0" connectorname="SDA" gorn="0.1.8"/><rect id="connector17terminal" width="0" height=".7" x="72" y="28.45" fill="none" stroke-width="0" gorn="0.1.9"/><text id="label17" x="56.2" y="29.5" fill="#8c8c8c" stroke="none" font-family="'Droid Sans'" font-size="3.5" gorn="0.1.10" text-anchor="end">SDA</text><line x1="36" x2="36" y1=".35" y2="14.4" fill="none" stroke="#787878" stroke-linecap="round" stroke-linejoin="round" stroke-width=".7"/><rect id="connector13pin" width=".7" height="14.4" x="35.65" y="0" fill="none" stroke-width="0" connectorname="VIN" gorn="0.1.12"/><rect id="connector13terminal" width=".7" height="0" x="35.65" y="0" fill="none" stroke-width="0" gorn="0.1.13"/><g><g><g><g transform="matrix(1, 0, 0, 1, 37.4, 16) rotate(270)"><text id="label13" x="0" y="0" fill="#8c8c8c" stroke="none" font-family="'Droid Sans'" font-size="3.5" gorn="0.1.14.0.0.0.0" text-anchor="end">VIN</text></g></g></g></g><line x1="43.2" x2="43.2" y1=".35" y2="14.4" fill="none" stroke="#787878" stroke-linecap="round" stroke-linejoin="round" stroke-width=".7"/><rect id="connector14pin" width=".7" height="14.4" x="42.85" y="0" fill="none" stroke-width="0" connectorname="V+" gorn="0.1.16"/><rect id="connector14terminal" width=".7" height="0" x="42.85" y="0" fill="none" stroke-width="0" gorn="0.1.17"/><g><g><g><g transform="matrix(1, 0, 0, 1, 44.6, 16) rotate(270)"><text id="label14" x="0" y="0" fill="#8c8c8c" stroke="none" font-family="'Droid Sans'" font-size="3.5" gorn="0.1.18.0.0.0.0" text-anchor="end">V+</text></g></g></g></g><line x1="36" x2="36" y1="50.4" y2="64.45" fill="none" stroke="#787878" stroke-linecap="round" stroke-linejoin="round" stroke-width=".7"/><rect id="connector15pin" width=".7" height="14.4" x="35.65" y="50.4" fill="none" stroke-width="0" connectorname="GND" gorn="0.1.20"/><rect id="connector15terminal" width=".7" height="0" x="35.65" y="64.8" fill="none" stroke-width="0" gorn="0.1.21"/><g><g><g><g transform="matrix(1, 0, 0, 1, 37.4, 48.8) rotate(270)"><text id="label15" x="0" y="0" fill="#8c8c8c" stroke="none" font-family="'Droid Sans'" font-size="3.5" gorn="0.1.22.0.0.0.0" text-anchor="start">GND</text></g></g></g></g></g></svg>