<svg xmlns="http://www.w3.org/2000/svg" xmlns:svg="http://www.w3.org/2000/svg" id="svg2" width="156.028" height="72.341" x="0" y="0" version="1.2" viewBox="0 0 1625.296 753.547"><metadata id="metadata24"/><desc id="desc4"><referenceFile>CN3065-Mini-Solar-Charger-Module_1_breadboard.svg</referenceFile></desc><g id="breadboard"><rect id="rect652" width="1543.553" height="753.547" x="81.743" y="0" fill="#04a" stroke="none" stroke-width="0"/><rect id="rect8" width="13.75" height="9.028" x="137.223" y="-298.903" fill="#666" transform="rotate(90)"/><rect id="rect10" width="1.236" height="7.111" x="137.223" y="-298.903" fill="#999" transform="rotate(90)"/><rect id="rect14" width="13.764" height="9.028" x="162.833" y="-298.903" fill="#666" transform="rotate(90)"/><rect id="rect16" width="1.236" height="7.111" x="162.833" y="-298.903" fill="#999" transform="rotate(90)"/><rect id="rect20" width="13.764" height="9.028" x="188.403" y="-298.903" fill="#666" transform="rotate(90)"/><rect id="rect22" width="1.236" height="7.111" x="188.403" y="-298.903" fill="#999" transform="rotate(90)"/><rect id="rect26" width="13.75" height="9.028" x="214.013" y="-298.903" fill="#666" transform="rotate(90)"/><rect id="rect28" width="1.222" height="7.111" x="214.013" y="-298.903" fill="#999" transform="rotate(90)"/><rect id="rect32" width="13.75" height="9.028" x="239.598" y="-298.903" fill="#666" transform="rotate(90)"/><rect id="rect34" width="1.236" height="7.111" x="239.598" y="-298.903" fill="#999" transform="rotate(90)"/><polygon id="polygon38" fill="#b3b3b3" points="28.611 5.083 290.347 5.083 290.333 265.333 289.556 296.722 30.056 296.722 28.611 268.542" transform="rotate(90,131.43073,167.47227)"/><polygon id="polygon40" fill="#999" points="31.597 294.403 56.403 294.333 184.847 294.306 140.556 247.028 31.597 247.028" transform="rotate(90,131.43073,167.47227)"/><rect id="rect42" width="25.431" height="42.236" x="329.153" y="-201.959" fill="#666" transform="rotate(90)"/><rect id="rect44" width="25.403" height="42.236" x="36.042" y="-201.959" fill="#666" transform="rotate(90)"/><rect id="rect46" width="261.736" height="1.806" x="64.653" y="-293.82" fill="#ccc" transform="rotate(90)"/><rect id="rect48" width="142.931" height="255.042" x="123.833" y="-293.82" fill="#333" transform="rotate(90)"/><rect id="rect50" width="13.931" height="15.028" x="47.514" y="-46.292" fill="#b3b3b3" transform="rotate(90)"/><rect id="rect52" width="8.917" height="15.028" x="52.555" y="-46.292" fill="#ccc" transform="rotate(90)"/><rect id="rect54" width="13.903" height="15.028" x="329.138" y="-46.292" fill="#b3b3b3" transform="rotate(90)"/><rect id="rect56" width="8.917" height="15.028" x="329.138" y="-46.292" fill="#ccc" transform="rotate(90)"/><rect id="rect58" width="6.625" height="9" x="249.931" y="-33.57" fill="#f2f2f2" transform="rotate(90)"/><rect id="rect62" width="6.653" height="9" x="220.945" y="-33.57" fill="#f2f2f2" transform="rotate(90)"/><rect id="rect66" width="6.625" height="9" x="192" y="-33.57" fill="#f2f2f2" transform="rotate(90)"/><rect id="rect70" width="6.625" height="9" x="163.028" y="-33.57" fill="#f2f2f2" transform="rotate(90)"/><rect id="rect74" width="6.625" height="9" x="134.069" y="-33.57" fill="#f2f2f2" transform="rotate(90)"/><rect id="rect78" width="1.333" height="9" x="134.069" y="-33.57" fill="gray" transform="rotate(90)"/><rect id="rect82" width="1.333" height="9" x="163.028" y="-33.57" fill="gray" transform="rotate(90)"/><rect id="rect86" width="1.361" height="9" x="192" y="-33.57" fill="gray" transform="rotate(90)"/><rect id="rect90" width="1.361" height="9" x="220.958" y="-33.57" fill="gray" transform="rotate(90)"/><rect id="rect94" width="1.361" height="9" x="249.945" y="-33.57" fill="gray" transform="rotate(90)"/><path id="path100" fill="#4d4d4d" d="m 21.986,126.94435 v 7.1389 h 5.5 v 6.625 h -5.5 v 22.3333 h 5.5 v 6.611 h -5.5 v 22.3333 h 5.5 v 6.625 h -5.5 v 22.3194 h 5.5 v 6.6528 h -5.5 v 22.3475 h 5.5 v 6.625 h -5.5 v 4.486 3.7361 c 0,1.0972 0.8889,2 2.0278,2 h 14.7778 c 1.1111,0 2.0278,-0.875 2.0278,-2 l 6e-4,-138.9305 c 0,-1.0972 -0.8889,-2.0278 -2.0278,-2.0278 H 24.0144 c -1.0833,0 -2.0278,0.9028 -2.0278,2.0278 z"/><path id="path102" fill="#ccc" d="m 285.9447,61.444348 7.875,3.1806 v 35.1944 c 0,0 -1.56944,-31.9722 -3.93056,-33.1111 -2.36112,-1.1389 -3.94444,1.5277 -3.94444,1.5277 z"/><path id="path104" fill="#ccc" d="m 285.9447,329.15255 7.86111,-3.1806 -3e-5,-35.2084 c 0,0 -1.56944,31.9583 -3.93056,33.0972 -2.36112,1.1389 -3.93056,-1.5139 -3.93056,-1.5139 z"/><path id="path106" fill="#ccc" d="M 67.125,61.444348 H 0 L 0.083,329.16635 H 67.1247 Z M 4.5,322.95855 V 67.638748 H 51.875 V 322.98575 Z"/><path id="path108" fill="#e6e6e6" d="m 285.9447,282.08355 h -14.8195 v -22.292 h 22.69447 v -6.4028 h -7.86111 l 4e-5,-116.1662 h 7.86107 v -7.2921 h -22.7083 l -7e-5,-22.3056 h 14.8334 V 61.444348 H 57.6257 V 329.12535 l 228.319,-8e-4 z M 101.361,129.93045 H 90.0554 l 6e-4,-22.125 h 12.2361 c 3.84722,-5.9167 10.5556,-9.833302 18.1528,-9.833302 8.30556,0 15.3472,3.041602 19.0139,9.833302 v 0 h 62.2222 v 22.1111 h -62.25 c -3.66667,6.7778 -10.7361,11.4583 -19.0417,11.4583 -8.2923,-3e-4 -15.3753,-4.6663 -19.0283,-11.4444 z m 0,151.2221 H 90.0554 v -22.1111 h 12.2361 c 3.84722,-5.9167 10.5556,-9.8194 18.1528,-9.8194 8.30556,0 15.3472,3.0139 19.0139,9.8194 v 0 h 62.2222 v 22.1111 h -62.25 c -3.66667,6.8056 -10.7361,11.4722 -19.0417,11.4722 -8.2917,-2e-4 -15.3747,-4.6522 -19.0277,-11.4722 z"/><polygon id="polygon110" fill="#f2f2f2" points="25.403 12.958 46.667 12.958 31.042 241.333 25.403 241.333" transform="rotate(90,131.43073,167.47227)"/><polygon id="polygon112" fill="#999" points="277.333 12.958 293.111 12.958 293.111 241.333 285.208 88.833" transform="rotate(90,131.43073,167.47227)"/><rect id="rect114" width="22.111" height="1.806" x="107.805" y="-201.667" fill="#ccc" transform="rotate(90)"/><rect id="rect116" width="22.097" height="1.806" x="259.07" y="-201.667" fill="#ccc" transform="rotate(90)"/><rect id="rect118" width="241.486" height="9.167" x="74.569" y="-69.57" fill="#b3b3b3" transform="rotate(90)"/><rect id="rect120" width="241.486" height="4.347" x="74.569" y="-61.917" fill="#ccc" transform="rotate(90)"/><rect id="rect20-9" width="12.962" height="32.245" x="-439.015" y="951.304" fill="#8c8c8c" stroke="none" stroke-linecap="round" stroke-width="0" connectorname="1" transform="rotate(-90)"/><rect id="rect22-8" width="12.962" height="32.245" x="-418.466" y="951.304" fill="#8c8c8c" stroke="none" stroke-linecap="round" stroke-width="0" connectorname="2" transform="rotate(-90)"/><rect id="rect24" width="12.962" height="32.245" x="-397.917" y="951.304" fill="#8c8c8c" stroke="none" stroke-linecap="round" stroke-width="0" connectorname="3" transform="rotate(-90)"/><rect id="rect26-5" width="12.962" height="32.245" x="-377.368" y="951.304" fill="#8c8c8c" stroke="none" stroke-linecap="round" stroke-width="0" connectorname="4" transform="rotate(-90)"/><rect id="rect28-2" width="12.962" height="32.245" x="-377.368" y="854.376" fill="#8c8c8c" stroke="none" stroke-linecap="round" stroke-width="0" connectorname="5" transform="rotate(-90)"/><rect id="rect30" width="12.962" height="32.245" x="-397.917" y="854.376" fill="#8c8c8c" stroke="none" stroke-linecap="round" stroke-width="0" connectorname="6" transform="rotate(-90)"/><rect id="rect32-6" width="12.962" height="32.245" x="-418.466" y="854.376" fill="#8c8c8c" stroke="none" stroke-linecap="round" stroke-width="0" connectorname="7" transform="rotate(-90)"/><rect id="rect34-6" width="12.962" height="32.245" x="-439.015" y="854.376" fill="#8c8c8c" stroke="none" stroke-linecap="round" stroke-width="0" connectorname="8" transform="rotate(-90)"/><rect id="rect36" width="82.194" height="82.193" x="-442.809" y="878.103" fill="#8c8c8c" stroke="none" stroke-linecap="round" stroke-width="0" connectorname="EP" transform="rotate(-90)"/><rect id="rect38" width="108.122" height="108.666" x="-459.203" y="864.866" fill="#303030" stroke="none" stroke-width="0" transform="rotate(-90)"/><polygon id="polygon40-4" fill="#1f1f1f" stroke-width=".623" points="134.654 46.902 124.654 56.902 10 56.902 0 46.902" transform="matrix(0,-0.8029651,0.8029651,0,827.20595,459.20315)"/><polygon id="polygon42" fill="#1f1f1f" stroke-width=".623" points="134.654 182.232 124.654 172.232 10 172.232 0 182.232" transform="matrix(0,-0.8029651,0.8029651,0,827.20595,459.20315)"/><polygon id="polygon44" fill="#000" stroke-width=".623" points="0 182.232 10 172.232 10 56.902 0 46.902" transform="matrix(0,-0.8029651,0.8029651,0,827.20595,459.20315)"/><polygon id="polygon46" fill="#3d3d3d" stroke-width=".623" points="134.654 182.232 124.654 172.232 124.654 56.902 134.654 46.902" transform="matrix(0,-0.8029651,0.8029651,0,827.20595,459.20315)"/><circle id="circle48" cx="-435.114" cy="949.443" r="8.03" fill="#1f1f1f" stroke="none" stroke-width="0" transform="rotate(-90)"/><rect id="rect3806" width="110.639" height="37.236" x="768.611" y="105.319" fill="#4d4d4d"/><rect id="rect3808" width="110.639" height=".639" x="768.611" y="105.319" fill="#fff" enable-background="new" opacity=".2"/><rect id="rect3810" width="110.639" height="11.097" x="768.611" y="133.514" fill="#333"/><rect id="rect3812" width="110.639" height=".444" x="768.611" y="144.236" enable-background="new" opacity=".2"/><path id="path3814" fill="#dcdcdc" d="m 863.18066,105.31935 v 0 0 h -1.2917 v 0 c -1.1111,3.4861 -1.875,11.0556 -1.875,14.9306 0,4.0417 0.66667,9.625 1.875,13.2639 v 0 0 l 16.98611,-1e-4 v -28.1944 z"/><path id="path3816" fill="#dcdcdc" d="m 785.90287,106.76375 v -1.4444 h -16.97224 v 28.1944 h 16.98609 c 1.22224,-3.6527 2.68054,-9.1527 2.68054,-13.25 0,-4.8055 -1.0416,-9.3194 -2.69439,-13.5 z"/><path id="path3818" fill="#999" d="m 878.97207,134.98605 h -16.98591 l -0.0972,-1.4723 h 16.98611 z"/><path id="path3820" fill="#999" d="m 769.01396,135.01375 h 16.98609 l -0.0972,-1.5 h -16.97224 l 0.0833,1.5 z"/><rect id="rect3822" width="16.986" height=".639" x="768.931" y="144.042" enable-background="new" opacity=".15"/><rect id="rect3824" width="16.986" height=".639" x="768.931" y="105.319" fill="#fff" enable-background="new" opacity=".5"/><rect id="rect3826" width="17" height=".639" x="861.903" y="144.042" enable-background="new" opacity=".15"/><rect id="rect3828" width="17" height=".639" x="861.903" y="105.319" fill="#fff" enable-background="new" opacity=".5"/><line id="line3830" x1="779.194" x2="779.194" y1="144.68" y2="144.68" fill="none"/><rect id="rect3832" width="1.639" height="9.611" x="877.597" y="134.986" fill="#999"/><rect id="rect3834" width="1.653" height="9.611" x="768.931" y="134.986" fill="#999"/><rect id="rect2010" width="110.639" height="37.236" x="452.668" y="-1064.493" fill="#4d4d4d" transform="rotate(90)"/><rect id="rect2012" width="110.639" height=".639" x="452.668" y="-1064.493" fill="#fff" enable-background="new" opacity=".2" transform="rotate(90)"/><rect id="rect2014" width="110.639" height="11.097" x="452.668" y="-1036.299" fill="#333" transform="rotate(90)"/><rect id="rect2016" width="110.639" height=".444" x="452.668" y="-1025.577" enable-background="new" opacity=".2" transform="rotate(90)"/><path id="path2018" fill="#dcdcdc" d="m 1064.4934,547.23745 v 0 0 -1.2917 0 c -3.4861,-1.1111 -11.0556,-1.875 -14.9306,-1.875 -4.0417,0 -9.625,0.6667 -13.2639,1.875 v 0 0 l 10e-5,16.9861 h 28.1944 z"/><path id="path2020" fill="#dcdcdc" d="m 1063.049,469.95965 h 1.4444 v -16.9723 h -28.1944 v 16.9861 c 3.6527,1.2223 9.1527,2.6806 13.25,2.6806 4.8055,0 9.3194,-1.0416 13.5,-2.6944 z"/><path id="path2022" fill="#999" d="m 1034.8267,563.02885 v -16.9859 l 1.4723,-0.097 v 16.9861 z"/><path id="path2024" fill="#999" d="m 1034.799,453.07075 v 16.9861 l 1.5,-0.097 v -16.9723 l -1.5,0.083 z"/><rect id="rect2026" width="16.986" height=".639" x="452.987" y="-1025.771" enable-background="new" opacity=".15" transform="rotate(90)"/><rect id="rect2028" width="16.986" height=".639" x="452.987" y="-1064.493" fill="#fff" enable-background="new" opacity=".5" transform="rotate(90)"/><rect id="rect2030" width="17" height=".639" x="545.96" y="-1025.771" enable-background="new" opacity=".15" transform="rotate(90)"/><rect id="rect2032" width="17" height=".639" x="545.96" y="-1064.493" fill="#fff" enable-background="new" opacity=".5" transform="rotate(90)"/><line id="line2034" x1="1025.132" x2="1025.132" y1="463.251" y2="463.251" fill="none"/><rect id="rect2036" width="1.639" height="9.611" x="561.654" y="-1034.827" fill="#999" transform="rotate(90)"/><rect id="rect2038" width="1.653" height="9.611" x="452.987" y="-1034.827" fill="#999" transform="rotate(90)"/><rect id="rect2042" width="110.639" height="37.236" x="291.21" y="-809.285" fill="#4d4d4d" transform="rotate(90)"/><rect id="rect2044" width="110.639" height=".639" x="291.21" y="-809.285" fill="#fff" enable-background="new" opacity=".2" transform="rotate(90)"/><rect id="rect2046" width="110.639" height="11.097" x="291.21" y="-781.091" fill="#333" transform="rotate(90)"/><rect id="rect2048" width="110.639" height=".444" x="291.21" y="-770.368" enable-background="new" opacity=".2" transform="rotate(90)"/><path id="path2050" fill="#dcdcdc" d="m 809.2851,385.77915 v 0 0 -1.2917 0 c -3.48611,-1.1111 -11.0556,-1.875 -14.9306,-1.875 -4.04167,0 -9.625,0.6667 -13.2639,1.875 v 0 0 l 10e-5,16.9861 h 28.1944 z"/><path id="path2052" fill="#dcdcdc" d="m 807.84066,308.50135 h 1.44444 v -16.9723 h -28.1944 v 16.9861 c 3.6527,1.2223 9.1527,2.6806 13.25,2.6806 4.8055,0 9.3194,-1.0416 13.49996,-2.6944 z"/><path id="path2054" fill="#999" d="m 779.6184,401.57055 v -16.9859 l 1.4723,-0.097 v 16.9861 z"/><path id="path2056" fill="#999" d="m 779.5907,291.61245 v 16.9861 l 1.5,-0.097 v -16.9723 l -1.5,0.083 z"/><rect id="rect2058" width="16.986" height=".639" x="291.529" y="-770.563" enable-background="new" opacity=".15" transform="rotate(90)"/><rect id="rect2060" width="16.986" height=".639" x="291.529" y="-809.285" fill="#fff" enable-background="new" opacity=".5" transform="rotate(90)"/><rect id="rect2062" width="17" height=".639" x="384.501" y="-770.563" enable-background="new" opacity=".15" transform="rotate(90)"/><rect id="rect2064" width="17" height=".639" x="384.501" y="-809.285" fill="#fff" enable-background="new" opacity=".5" transform="rotate(90)"/><line id="line2066" x1="769.924" x2="769.924" y1="301.793" y2="301.793" fill="none"/><rect id="rect2068" width="1.639" height="9.611" x="400.196" y="-779.618" fill="#999" transform="rotate(90)"/><rect id="rect2070" width="1.653" height="9.611" x="291.529" y="-779.618" fill="#999" transform="rotate(90)"/><rect id="rect2074" width="209.597" height="86.508" x="189.647" y="-712.931" fill="#4d4d4d" stroke-width="1" transform="rotate(90)"/><rect id="rect2076" width="209.597" height="1.484" x="189.647" y="-712.931" fill="#fff" stroke-width="1" enable-background="new" opacity=".2" transform="rotate(90)"/><rect id="rect2078" width="209.597" height="25.781" x="189.647" y="-647.429" fill="#333" stroke-width="1" transform="rotate(90)"/><rect id="rect2080" width="209.597" height="1.033" x="189.647" y="-622.519" stroke-width="1" enable-background="new" opacity=".2" transform="rotate(90)"/><path id="path2082" fill="#dcdcdc" stroke-width="1" d="m 712.93093,368.80205 v 0 0 -2.447 0 c -8.09899,-2.1049 -25.68456,-3.552 -34.68702,-3.552 -9.38968,0 -22.36096,1.2629 -30.81492,3.552 v 0 0 l 2.4e-4,32.1789 h 65.5017 z"/><path id="path2084" fill="#dcdcdc" stroke-width="1" d="m 709.57518,222.40505 h 3.35575 v -32.1526 h -65.5017 v 32.1789 c 8.48601,2.3154 21.2637,5.078 30.78262,5.078 11.16422,0 21.65099,-1.9732 31.36333,-5.1043 z"/><path id="path2086" fill="#999" stroke-width="1" d="m 644.00875,398.71775 v -32.1786 l 3.42048,-0.1841 v 32.1789 z"/><path id="path2088" fill="#999" stroke-width="1" d="m 643.9444,190.41025 v 32.1789 l 3.48483,-0.1841 v -32.1527 l -3.48483,0.1578 z"/><rect id="rect2090" width="32.179" height="1.484" x="190.252" y="-622.971" stroke-width="1" enable-background="new" opacity=".15" transform="rotate(90)"/><rect id="rect2092" width="32.179" height="1.484" x="190.252" y="-712.931" fill="#fff" stroke-width="1" enable-background="new" opacity=".5" transform="rotate(90)"/><rect id="rect2094" width="32.205" height="1.484" x="366.381" y="-622.971" stroke-width="1" enable-background="new" opacity=".15" transform="rotate(90)"/><rect id="rect2096" width="32.205" height="1.484" x="366.381" y="-712.931" fill="#fff" stroke-width="1" enable-background="new" opacity=".5" transform="rotate(90)"/><line id="line2098" x1="621.487" x2="621.487" y1="209.697" y2="209.697" fill="none" stroke-width="1"/><rect id="rect2100" width="3.105" height="22.329" x="396.113" y="-644.009" fill="#999" stroke-width="1" transform="rotate(90)"/><rect id="rect2102" width="3.131" height="22.329" x="190.252" y="-644.009" fill="#999" stroke-width="1" transform="rotate(90)"/><rect id="rect2106" width="209.597" height="86.508" x="189.647" y="-590.894" fill="#4d4d4d" stroke-width="1" transform="rotate(90)"/><rect id="rect2108" width="209.597" height="1.484" x="189.647" y="-590.894" fill="#fff" stroke-width="1" enable-background="new" opacity=".2" transform="rotate(90)"/><rect id="rect2110" width="209.597" height="25.781" x="189.647" y="-525.392" fill="#333" stroke-width="1" transform="rotate(90)"/><rect id="rect2112" width="209.597" height="1.033" x="189.647" y="-500.482" stroke-width="1" enable-background="new" opacity=".2" transform="rotate(90)"/><path id="path2114" fill="#dcdcdc" stroke-width="1" d="m 590.89355,368.80205 v 0 0 -2.447 0 c -8.09899,-2.1049 -25.68456,-3.552 -34.68702,-3.552 -9.38968,0 -22.36096,1.2629 -30.81492,3.552 v 0 0 l 2.4e-4,32.1789 h 65.5017 z"/><path id="path2116" fill="#dcdcdc" stroke-width="1" d="m 587.5378,222.40505 h 3.35575 v -32.1526 h -65.5017 v 32.1789 c 8.48601,2.3154 21.2637,5.078 30.78262,5.078 11.16422,0 21.65099,-1.9732 31.36333,-5.1043 z"/><path id="path2118" fill="#999" stroke-width="1" d="m 521.97137,398.71775 v -32.1786 l 3.42048,-0.1841 v 32.1789 z"/><path id="path2120" fill="#999" stroke-width="1" d="m 521.90702,190.41025 v 32.1789 l 3.48483,-0.1841 v -32.1527 l -3.48483,0.1578 z"/><rect id="rect2122" width="32.179" height="1.484" x="190.252" y="-500.933" stroke-width="1" enable-background="new" opacity=".15" transform="rotate(90)"/><rect id="rect2124" width="32.179" height="1.484" x="190.252" y="-590.894" fill="#fff" stroke-width="1" enable-background="new" opacity=".5" transform="rotate(90)"/><rect id="rect2126" width="32.205" height="1.484" x="366.381" y="-500.933" stroke-width="1" enable-background="new" opacity=".15" transform="rotate(90)"/><rect id="rect2128" width="32.205" height="1.484" x="366.381" y="-590.894" fill="#fff" stroke-width="1" enable-background="new" opacity=".5" transform="rotate(90)"/><line id="line2130" x1="499.449" x2="499.449" y1="209.697" y2="209.697" fill="none" stroke-width="1"/><rect id="rect2132" width="3.105" height="22.329" x="396.113" y="-521.971" fill="#999" stroke-width="1" transform="rotate(90)"/><rect id="rect2134" width="3.131" height="22.329" x="190.252" y="-521.971" fill="#999" stroke-width="1" transform="rotate(90)"/><rect id="rect2138" width="178.347" height="116.07" x="424.022" y="-825.269" fill="#d4aa00" stroke-width="1" transform="rotate(90)"/><rect id="rect2140" width="178.347" height="1.992" x="424.022" y="-825.269" fill="#fff" stroke-width="1" enable-background="new" opacity=".2" transform="rotate(90)"/><rect id="rect2142" width="178.347" height="34.592" x="424.022" y="-737.382" fill="#333" stroke-width="1" transform="rotate(90)"/><rect id="rect2144" width="178.347" height="1.385" x="424.022" y="-703.959" stroke-width="1" enable-background="new" opacity=".2" transform="rotate(90)"/><path id="path2146" fill="#dcdcdc" stroke-width="1" d="m 825.26854,576.46595 v 0 0 -2.0822 0 c -10.86672,-1.7911 -34.46193,-3.0225 -46.54087,-3.0225 -12.59848,0 -30.00254,1.0747 -41.34553,3.0225 v 0 0 l 3.1e-4,27.3812 h 87.88609 z"/><path id="path2148" fill="#dcdcdc" stroke-width="1" d="m 820.76601,451.89605 h 4.50253 v -27.3589 h -87.88609 v 27.3812 c 11.38601,1.9702 28.53031,4.321 41.3022,4.321 14.97945,0 29.04994,-1.6791 42.08136,-4.3433 z"/><path id="path2150" fill="#999" stroke-width="1" d="m 732.79308,601.92125 v -27.3808 l 4.58937,-0.1567 v 27.3812 z"/><path id="path2152" fill="#999" stroke-width="1" d="m 732.70673,424.67155 v 27.3811 l 4.67572,-0.1566 v -27.3589 l -4.67572,0.1343 z"/><rect id="rect2154" width="27.381" height="1.992" x="424.537" y="-704.566" stroke-width="1" enable-background="new" opacity=".15" transform="rotate(90)"/><rect id="rect2156" width="27.381" height="1.992" x="424.537" y="-825.269" fill="#fff" stroke-width="1" enable-background="new" opacity=".5" transform="rotate(90)"/><rect id="rect2158" width="27.404" height="1.992" x="574.406" y="-704.566" stroke-width="1" enable-background="new" opacity=".15" transform="rotate(90)"/><rect id="rect2160" width="27.404" height="1.992" x="574.406" y="-825.269" fill="#fff" stroke-width="1" enable-background="new" opacity=".5" transform="rotate(90)"/><line id="line2162" x1="702.574" x2="702.574" y1="441.082" y2="441.082" fill="none" stroke-width="1"/><rect id="rect2164" width="2.642" height="29.959" x="599.705" y="-732.793" fill="#999" stroke-width="1" transform="rotate(90)"/><rect id="rect2166" width="2.664" height="29.959" x="424.537" y="-732.793" fill="#999" stroke-width="1" transform="rotate(90)"/><rect id="rect2358" width="59.896" height="247.396" x="69.803" y="453.125" fill="#e9ddaf" stroke="none" stroke-width="0"/><rect id="rect2378" width="205.729" height="36.458" x="201.535" y="518.229" fill="#b3b3b3" stroke="none" stroke-width="0"/><rect id="rect2398" width="205.729" height="36.458" x="201.535" y="589.083" fill="#b3b3b3" stroke="none" stroke-width="0"/><rect id="rect2228" width="205.729" height="322.917" x="97.368" y="414.062" fill="#fff6d5" stroke="none" stroke-width="0"/><rect id="rect2354" width="205.729" height="36.458" x="172.889" y="414.062" fill="#fff6d5" stroke="none" stroke-width="0"/><rect id="rect2356" width="205.729" height="36.458" x="172.889" y="701.445" fill="#fff6d5" stroke="none" stroke-width="0"/><rect id="rect2408" width="59.896" height="247.396" x="-1615.597" y="-701.445" fill="#e9ddaf" stroke="none" stroke-width="0" transform="scale(-1)"/><rect id="rect2410" width="205.729" height="36.458" x="-1483.866" y="-636.341" fill="#b3b3b3" stroke="none" stroke-width="0" transform="scale(-1)"/><rect id="rect2412" width="205.729" height="36.458" x="-1483.866" y="-565.487" fill="#b3b3b3" stroke="none" stroke-width="0" transform="scale(-1)"/><rect id="rect2414" width="205.729" height="322.917" x="-1588.033" y="-740.508" fill="#fff6d5" stroke="none" stroke-width="0" transform="scale(-1)"/><rect id="rect2416" width="205.729" height="36.458" x="-1512.512" y="-740.508" fill="#fff6d5" stroke="none" stroke-width="0" transform="scale(-1)"/><rect id="rect2418" width="205.729" height="36.458" x="-1512.512" y="-453.125" fill="#fff6d5" stroke="none" stroke-width="0" transform="scale(-1)"/><rect id="rect2422" width="59.896" height="247.396" x="-1615.597" y="-311.696" fill="#e9ddaf" stroke="none" stroke-width="0" transform="scale(-1)"/><rect id="rect2424" width="205.729" height="36.458" x="-1483.866" y="-246.592" fill="#b3b3b3" stroke="none" stroke-width="0" transform="scale(-1)"/><rect id="rect2426" width="205.729" height="36.458" x="-1483.866" y="-175.738" fill="#b3b3b3" stroke="none" stroke-width="0" transform="scale(-1)"/><rect id="rect2428" width="205.729" height="322.917" x="-1588.033" y="-350.759" fill="#fff6d5" stroke="none" stroke-width="0" transform="scale(-1)"/><rect id="rect2430" width="205.729" height="36.458" x="-1512.512" y="-350.759" fill="#fff6d5" stroke="none" stroke-width="0" transform="scale(-1)"/><rect id="rect2432" width="205.729" height="36.458" x="-1512.512" y="-63.376" fill="#fff6d5" stroke="none" stroke-width="0" transform="scale(-1)"/><text id="text3685" x="310.25" y="52.812" fill="#fff" font-family="OCRA" font-size="60">Solar Charger v1.0</text><text id="text2446" x="109.73" y="396.562" fill="#fff" font-family="OCRA" font-size="60">4.4-6.0V</text><text id="text2448" x="455.086" y="578.438" fill="#fff" font-family="OCRA" font-size="120">+</text><text id="text2450" x="1160.815" y="656.563" fill="#fff" font-family="OCRA" font-size="120">+</text><text id="text2452" x="1166.024" y="273.751" fill="#fff" font-family="OCRA" font-size="120">+</text><text id="text2454" x="455.086" y="653.243" fill="#fff" font-family="OCRA" font-size="120">-</text><text id="text2456" x="1155.607" y="572.514" fill="#fff" font-family="OCRA" font-size="120">-</text><text id="text2458" x="1163.42" y="187.097" fill="#fff" font-family="OCRA" font-size="120">-</text><text id="text2460" x="879.565" y="658.451" fill="#fff" font-family="OCRA" font-size="120">-</text><text id="text2462" x="728.524" y="663.66" fill="#fff" font-family="OCRA" font-size="120">-</text><text id="text2464" x="978.524" y="661.771" fill="#fff" font-family="OCRA" font-size="120">+</text><text id="text2466" x="624.357" y="659.167" fill="#fff" font-family="OCRA" font-size="120">+</text><text id="text2468" x="-248.158" y="372.709" fill="#fff" font-family="OCRA" font-size="60" transform="rotate(-90)">USB</text><text id="text2470" x="-659.616" y="601.875" fill="#fff" font-family="OCRA" font-size="60" transform="rotate(-90)">SOLAR</text><text id="text2472" x="-693.47" y="1153.959" fill="#fff" font-family="OCRA" font-size="50" transform="rotate(-90)">BATT IN</text><text id="text2474" x="-319.446" y="1153.959" fill="#fff" font-family="OCRA" font-size="50" transform="rotate(-90)">SYS OUT</text><text id="text2476" x="1009.742" y="120.479" fill="#fff" font-family="OCRA" font-size="50">OK</text><text id="text2478" x="1009.742" y="179.54" fill="#fff" font-family="OCRA" font-size="50">CH</text><rect id="connector0pin" width="36" height="36.458" x="70" y="518" fill="none" stroke="none" stroke-width="0"/><rect id="connector1pin" width="36" height="36.458" x="70" y="589" fill="none" stroke="none" stroke-width="0"/><circle id="connector2pin" cx="673.764" cy="691.212" r="29" fill="#fff" stroke="#999" stroke-width="20"/><circle id="connector3pin" cx="773.764" cy="691.212" r="29" fill="#fff" stroke="#999" stroke-width="20"/><circle id="connector4pin" cx="923.37" cy="691.212" r="29" fill="#fff" stroke="#999" stroke-width="20"/><circle id="connector5pin" cx="1023.764" cy="691.212" r="29" fill="#fff" stroke="#999" stroke-width="20"/><rect id="connector6pin" width="36" height="36.458" x="-1617.299" y="-636.458" fill="none" stroke="none" stroke-width="0" transform="scale(-1)"/><rect id="connector7pin" width="36" height="36.458" x="-1617" y="-565.487" fill="none" stroke="none" stroke-width="0" transform="scale(-1)"/><rect id="connector8pin" width="36" height="36.458" x="-1617" y="-246.458" fill="none" stroke="none" stroke-width="0" transform="scale(-1)"/><rect id="connector9pin" width="36" height="36.458" x="-1617" y="-175.458" fill="none" stroke="none" stroke-width="0" transform="scale(-1)"/></g></svg>