<svg xmlns="http://www.w3.org/2000/svg" xmlns:svg="http://www.w3.org/2000/svg" id="Layer_2" width="56.693" height="56.691" x="0" y="0" enable-background="new 0 0 28.35 35.43" gorn="0" version="1.1" viewBox="0 0 42.52 42.519" xml:space="preserve"><desc id="desc2"><referenceFile>AHT20-BMP280_breadboard.svg</referenceFile></desc><g id="breadboard"><path id="rect2833" fill="#521676" fill-opacity="1" stroke="none" stroke-dasharray="none" stroke-miterlimit="4" stroke-opacity="1" stroke-width="2.285" d="m 2.8688974,0.70898442 c -1.1966405,0 -2.16064525,0.96400458 -2.16064525,2.16064498 V 39.651871 c 0,1.19664 0.96400475,2.159176 2.16064525,2.159176 H 39.651136 c 1.19664,0 2.160645,-0.962536 2.160645,-2.159176 V 2.8696294 c 0,-1.1966404 -0.964005,-2.16064498 -2.160645,-2.16064498 z M 22.307381,2.2470707 c 1.717831,0 3.111328,1.3934967 3.111328,3.1113287 0,1.7178306 -1.393497,3.1098677 -3.111328,3.1098647 -1.717832,0 -3.109865,-1.3920341 -3.109865,-3.1098647 0,-1.717832 1.392033,-3.1113287 3.109865,-3.1113287 z M 5.7531756,9.7177758 A 1.2600004,1.2479124 0 0 1 7.0129417,10.965823 1.2600004,1.2479124 0 0 1 5.7531756,12.21387 1.2600004,1.2479124 0 0 1 4.4919447,10.965823 1.2600004,1.2479124 0 0 1 5.7531756,9.7177758 Z m 0.00146,7.2524442 c 0.661,0 1.1967777,0.533314 1.1967777,1.195313 0,0.660999 -0.5357777,1.198242 -1.1967777,1.198242 -0.6609999,0 -1.1967777,-0.537243 -1.1967777,-1.198242 0,-0.661 0.5357778,-1.195313 1.1967777,-1.195313 z m 0,7.201174 c 0.661,0 1.1967777,0.534308 1.1967777,1.195313 0,0.660998 -0.5357777,1.196778 -1.1967777,1.196778 -0.6609999,0 -1.1967777,-0.53578 -1.1967777,-1.196778 0,-0.661005 0.5357778,-1.195306 1.1967777,-1.195313 z m 0,7.198247 c 0.661,0 1.1967777,0.535777 1.1967777,1.196775 0,0.661005 -0.5357777,1.196775 -1.1967777,1.196775 -0.6609999,0 -1.1967777,-0.53577 -1.1967777,-1.196775 0,-0.660998 0.5357778,-1.196775 1.1967777,-1.196775 z m 16.5527394,2.641111 c 1.717832,0 3.111329,1.3935 3.111329,3.111331 0,1.71783 -1.393497,3.109861 -3.111329,3.109861 -1.717831,0 -3.109864,-1.392031 -3.109864,-3.109861 0,-1.717831 1.392033,-3.111331 3.109864,-3.111331 z" gorn="0.2.0.0.0.0.0.0.0.0.0.0.0.0.0.0.0.0.0.0.0.0.0" paint-order="markers stroke fill"/><path id="rect2835" fill="#676767" fill-opacity="1" stroke="none" stroke-dasharray="none" stroke-miterlimit="4" stroke-opacity="1" stroke-width="2.285" d="M 2.1606453,0 C 0.9640047,0 0,0.96254 0,2.15918 v 38.2002 c 0,1.19664 0.9640047,2.16065 2.1606453,2.16065 H 40.360853 c 1.19664,0 2.15918,-0.96401 2.15918,-2.16065 V 2.15918 C 42.520033,0.96254 41.557493,0 40.360853,0 Z M 2.8696295,0.70898 H 39.651868 c 1.19664,0 2.15918,0.96254 2.15918,2.15918 V 39.6504 c 0,1.19664 -0.96254,2.16065 -2.15918,2.16065 H 2.8696295 c -1.1966404,0 -2.1606449,-0.96401 -2.1606449,-2.16065 V 2.86816 c 0,-1.19664 0.9640045,-2.15918 2.1606449,-2.15918 z" gorn="0.2.0.0.0.0.0.0.0.0.0.0.1" paint-order="markers stroke fill"/><g id="g43" stroke-width=".76" gorn="0.3.0.0.0.0.0.0.0.0.0.0" transform="matrix(0,-1.1630524,1.4868327,0,4.4579576,39.08402)"><rect id="rect14" width="2.125" height="3.813" x="9.313" y="10.688" fill="#95825d" stroke-width=".673" gorn="0.3.0.0.0.0.0.0.0.0.0.0.0"/><rect id="rect16" width="2.126" height=".858" x="9.312" y="10.688" fill="#999" stroke-width=".673" gorn="0.3.0.0.0.0.0.0.0.0.0.0.1"/><rect id="rect18" width="2.126" height=".858" x="9.312" y="13.642" fill="#999" stroke-width=".673" gorn="0.3.0.0.0.0.0.0.0.0.0.0.2"/></g><g id="g1171"><rect id="rect48" width="2.666" height="5.669" x="-22.926" y="20.349" fill="#020202" stroke-width=".901" gorn="0.4.0.0.0.0.0.0.0.0.0.0.0" transform="rotate(-90)"/><rect id="rect50" width="2.666" height="1.468" x="-22.926" y="24.55" fill="#999" stroke-width=".901" gorn="0.4.0.0.0.0.0.0.0.0.0.0.1" transform="rotate(-90)"/><rect id="rect52" width="2.666" height=".906" x="-22.926" y="20.349" fill="#999" stroke-width=".901" gorn="0.4.0.0.0.0.0.0.0.0.0.0.2" transform="rotate(-90)"/></g><g id="g1264"><rect id="rect56" width="2.666" height="5.669" x="-17.512" y="20.349" fill="#020202" stroke-width=".901" gorn="0.5.0.0.0.0.0.0.0.0.0.0.0" transform="rotate(-90)"/><rect id="rect58" width="2.666" height="1.468" x="-17.512" y="24.55" fill="#999" stroke-width=".901" gorn="0.5.0.0.0.0.0.0.0.0.0.0.1" transform="rotate(-90)"/><rect id="rect60" width="2.666" height=".906" x="-17.512" y="20.349" fill="#999" stroke-width=".901" gorn="0.5.0.0.0.0.0.0.0.0.0.0.2" transform="rotate(-90)"/></g><path id="path64" fill="#999" stroke-width="1" d="m 18.103403,5.3564069 c 0,2.3487499 1.90322,4.2519702 4.25197,4.2519702 2.34875,0 4.25197,-1.9032203 4.25197,-4.2519702 0,-2.3487498 -1.90322,-4.2519698 -4.25197,-4.2519698 -2.34875,0 -4.25197,1.90322 -4.25197,4.2519698 z m 7.315362,0 c 0,1.7178317 -1.392655,3.1104862 -3.110487,3.1104862 -1.717831,0 -3.110486,-1.3926545 -3.110486,-3.1104862 0,-1.7178317 1.392655,-3.1104863 3.110486,-3.1104863 1.717832,0 3.110487,1.3926546 3.110487,3.1104863 z" gorn=".6"/><g id="text12204" stroke-width=".75" font-family="OCRA" font-size="3.2" gorn=".7" letter-spacing="-.525" line-height="1.25" word-spacing="0" xml:space="preserve"><text id="tspan12202" x="26.573" y="11.913" fill="#fff" fill-opacity="1" stroke-width=".75" gorn="0.7.0">BMP280</text></g><g id="text22455" stroke-width=".75" font-family="OCRA" font-size="3.2" gorn=".8" letter-spacing="-.525" line-height="1.25" word-spacing="0" xml:space="preserve"><text id="tspan22453" x="28.564" y="37.28" fill="#fff" fill-opacity="1" stroke-width=".75" gorn="0.8.0">AHT20</text></g><g id="g2567"><path id="path485" fill="#9a916c" stroke-width=".75" d="m 39.512991,32.385065 h -1.9843 c -0.1957,0 -0.3543,-0.1586 -0.3543,-0.3543 v -0.7087 c 0,-0.1957 0.1586,-0.3543 0.3543,-0.3543 h 1.9843 c 0.1957,0 0.3543,0.1586 0.3543,0.3543 v 0.7087 c 10e-5,0.1957 -0.1586,0.3543 -0.3543,0.3543 z" font-family="OCRA" font-size="1.6" gorn="0.9.0.0.0.0.0.0.0.0.0.0.0.0.0.0.0.0.0.0.0.0.0.0" letter-spacing="-.285" line-height=".65" word-spacing="0"/><path id="path486" fill="#9a916c" stroke-width=".75" d="m 39.512991,29.550465 h -1.9843 c -0.1957,0 -0.3543,-0.1586 -0.3543,-0.3543 v -0.7087 c 0,-0.1957 0.1586,-0.3543 0.3543,-0.3543 h 1.9843 c 0.1957,0 0.3543,0.1586 0.3543,0.3543 v 0.7087 c 10e-5,0.1957 -0.1586,0.3543 -0.3543,0.3543 z" font-family="OCRA" font-size="1.6" gorn="0.9.0.0.0.0.0.0.0.0.0.0.0.1.0.0.0.0.0.0.0.0.0.0" letter-spacing="-.285" line-height=".65" word-spacing="0"/><path id="path487" fill="#9a916c" stroke-width=".75" d="m 32.142891,26.715765 h -1.9843 c -0.1957,0 -0.3543,-0.1586 -0.3543,-0.3543 v -0.7087 c 0,-0.1957 0.1586,-0.3543 0.3543,-0.3543 h 1.9843 c 0.1957,0 0.3543,0.1586 0.3543,0.3543 v 0.7087 c 10e-5,0.1957 -0.1586,0.3543 -0.3543,0.3543 z" font-family="OCRA" font-size="1.6" gorn="0.9.0.0.0.0.0.0.0.0.0.0.0.2.0.0.0.0.0.0.0.0.0.0" letter-spacing="-.285" line-height=".65" word-spacing="0"/><path id="path4855" fill="#9a916c" stroke-width=".75" d="m 32.142891,29.550465 h -1.9843 c -0.1957,0 -0.3543,-0.1586 -0.3543,-0.3543 v -0.7087 c 0,-0.1957 0.1586,-0.3543 0.3543,-0.3543 h 1.9843 c 0.1957,0 0.3543,0.1586 0.3543,0.3543 v 0.7087 c 10e-5,0.1957 -0.1586,0.3543 -0.3543,0.3543 z" font-family="OCRA" font-size="1.6" gorn="0.9.0.0.0.0.0.0.0.0.0.0.0.3.0.0.0.0.0.0.0.0.0.0" letter-spacing="-.285" line-height=".65" word-spacing="0"/><path id="path4856" fill="#9a916c" stroke-width=".75" d="m 32.142891,32.385065 h -1.9843 c -0.1957,0 -0.3543,-0.1586 -0.3543,-0.3543 v -0.7087 c 0,-0.1957 0.1586,-0.3543 0.3543,-0.3543 h 1.9843 c 0.1957,0 0.3543,0.1586 0.3543,0.3543 v 0.7087 c 10e-5,0.1957 -0.1586,0.3543 -0.3543,0.3543 z" font-family="OCRA" font-size="1.6" gorn="0.9.0.0.0.0.0.0.0.0.0.0.0.4.0.0.0.0.0.0.0.0.0.0" letter-spacing="-.285" line-height=".65" word-spacing="0"/><path id="path39902" fill="#9a916c" stroke-width=".75" d="m 39.512991,26.715765 h -1.9843 c -0.1957,0 -0.3543,-0.1586 -0.3543,-0.3543 v -0.7087 c 0,-0.1957 0.1586,-0.3543 0.3543,-0.3543 h 1.9843 c 0.1957,0 0.3543,0.1586 0.3543,0.3543 v 0.7087 c 10e-5,0.1957 -0.1586,0.3543 -0.3543,0.3543 z" font-family="OCRA" font-size="1.6" gorn="0.9.0.0.0.0.0.0.0.0.0.0.0.5.0.0.0.0.0.0.0.0.0.0" letter-spacing="-.285" line-height=".65" word-spacing="0"/><path id="path868" fill="#848484" stroke-width=".75" d="m 39.37129,25.204966 c 0,-0.4697 -0.3807,-0.8504 -0.8504,-0.8504 h -7.3701 c -0.4697,0 -0.8504,0.3807 -0.8504,0.8504 v 7.2286 c 0,0.4697 0.3807,0.8504 0.8504,0.8504 h 7.3701 c 0.4697,0 0.8504,-0.3807 0.8504,-0.8504 z" font-family="OCRA" font-size="1.6" gorn="0.9.0.0.0.0.0.0.0.0.0.0.0.6.0.0.0.0.0.0.0.0.0.0.0" letter-spacing="-.285" line-height=".65" word-spacing="0"/><path id="path872" stroke-width=".75" d="m 37.23969,31.315566 c 0,-0.3513 -0.2848,-0.6361 -0.6361,-0.6361 h -3.5354 c -0.3513,0 -0.6361,0.2848 -0.6361,0.6361 0,0.3513 0.2848,0.6361 0.6361,0.6361 h 3.5354 c 0.3513,0 0.6361,-0.2848 0.6361,-0.6361 0,0 0,0.3513 0,0 z" font-family="OCRA" font-size="1.6" gorn="0.9.0.0.0.0.0.0.0.0.0.0.0.7.0.0.0.0.0.0.0.0.0.0.0" letter-spacing="-.285" line-height=".65" word-spacing="0"/><path id="path39847" fill="#fff" stroke-width=".75" d="m 31.973827,29.107639 0.406,-1.386 q 0.01,-0.032 0.036,-0.052 0.026,-0.02 0.06,-0.02 0.034,0 0.062,0.02 0.028,0.02 0.036,0.052 l 0.404,1.386 q 0,0.042 -0.032,0.072 -0.03,0.03 -0.072,0.03 -0.034,0 -0.06,-0.02 -0.026,-0.02 -0.036,-0.052 l -0.078,-0.268 h -0.446 l -0.078,0.268 q -0.01,0.032 -0.038,0.052 -0.026,0.02 -0.06,0.02 -0.042,0 -0.074,-0.03 -0.03,-0.03 -0.03,-0.072 z m 0.34,-0.44 h 0.326 l -0.164,-0.556 z" font-family="OCRA" font-size="1.6" gorn="0.9.0.0.0.0.0.0.0.0.0.0.0.8" letter-spacing="-.285" line-height=".65" word-spacing="0"/><path id="path39849" fill="#fff" stroke-width=".75" d="m 33.140826,29.107639 v -1.358 q 0,-0.04 0.028,-0.07 0.03,-0.03 0.072,-0.03 0.042,0 0.072,0.03 0.03,0.03 0.03,0.07 v 0.578 h 0.592 v -0.578 q 0,-0.04 0.028,-0.07 0.03,-0.03 0.072,-0.03 0.042,0 0.072,0.03 0.03,0.03 0.03,0.07 v 1.358 q 0,0.042 -0.03,0.072 -0.03,0.03 -0.072,0.03 -0.042,0 -0.072,-0.03 -0.028,-0.03 -0.028,-0.072 v -0.578 h -0.592 v 0.578 q 0,0.042 -0.03,0.072 -0.03,0.03 -0.072,0.03 -0.042,0 -0.072,-0.03 -0.028,-0.03 -0.028,-0.072 z" font-family="OCRA" font-size="1.6" gorn="0.9.0.0.0.0.0.0.0.0.0.0.0.9" letter-spacing="-.285" line-height=".65" word-spacing="0"/><path id="path39851" fill="#fff" stroke-width=".75" d="m 34.301825,27.919639 v -0.27 h 0.996 v 0.27 q 0,0.042 -0.03,0.072 -0.03,0.03 -0.072,0.03 -0.042,0 -0.072,-0.03 -0.028,-0.03 -0.028,-0.072 v -0.068 h -0.196 v 1.256 q 0,0.042 -0.03,0.072 -0.03,0.03 -0.07,0.03 -0.042,0 -0.072,-0.03 -0.03,-0.03 -0.03,-0.072 v -1.256 h -0.194 v 0.068 q 0,0.042 -0.03,0.072 -0.03,0.03 -0.072,0.03 -0.042,0 -0.072,-0.03 -0.028,-0.03 -0.028,-0.072 z" font-family="OCRA" font-size="1.6" gorn="0.9.0.0.0.0.0.0.0.0.0.0.0.10" letter-spacing="-.285" line-height=".65" word-spacing="0"/><path id="path39853" fill="#fff" stroke-width=".75" d="m 35.462824,29.209639 v -0.68 q 0,-0.082 0.06,-0.14 0.06,-0.06 0.142,-0.06 h 0.592 v -0.478 h -0.694 q -0.042,0 -0.072,-0.03 -0.028,-0.03 -0.028,-0.072 0,-0.04 0.028,-0.07 0.03,-0.03 0.072,-0.03 h 0.694 q 0.08,0 0.14,0.06 0.062,0.06 0.062,0.142 v 0.478 q 0,0.08 -0.06,0.14 -0.06,0.06 -0.142,0.06 h -0.592 v 0.478 h 0.692 q 0.042,0 0.072,0.03 0.03,0.03 0.03,0.07 0,0.042 -0.03,0.072 -0.03,0.03 -0.072,0.03 z" font-family="OCRA" font-size="1.6" gorn="0.9.0.0.0.0.0.0.0.0.0.0.0.11" letter-spacing="-.285" line-height=".65" word-spacing="0"/><path id="path39855" fill="#fff" stroke-width=".75" d="m 36.623824,29.007639 v -1.156 q 0,-0.082 0.06,-0.142 0.06,-0.06 0.142,-0.06 h 0.592 q 0.08,0 0.14,0.06 0.062,0.06 0.062,0.142 v 1.156 q 0,0.082 -0.062,0.142 -0.06,0.06 -0.14,0.06 h -0.592 q -0.082,0 -0.142,-0.06 -0.06,-0.06 -0.06,-0.142 z m 0.202,0 h 0.592 v -1.156 h -0.592 z" font-family="OCRA" font-size="1.6" gorn="0.9.0.0.0.0.0.0.0.0.0.0.0.12" letter-spacing="-.285" line-height=".65" word-spacing="0"/></g><path id="connector3pin" fill="#9a916c" d="m 3.361,32.564652 c 0,1.322 1.071,2.393 2.393,2.393 1.322,0 2.394,-1.071 2.394,-2.393 0,-1.322 -1.071,-2.393 -2.394,-2.393 -1.321,0 -2.393,1.071 -2.393,2.393 z m 3.591,0 c 0,0.661 -0.536,1.197 -1.197,1.197 -0.661,0 -1.197,-0.536 -1.197,-1.197 0,-0.661 0.536,-1.197 1.197,-1.197 0.661,0 1.197,0.536 1.197,1.197 z" gorn=".1"/><path id="connector2pin" fill="#9a916c" d="m 3.361,25.365652 c 0,1.322 1.071,2.393 2.393,2.393 1.322,0 2.394,-1.071 2.394,-2.393 0,-1.322 -1.071,-2.393 -2.394,-2.393 -1.321,0 -2.393,1.071 -2.393,2.393 z m 3.591,0 c 0,0.661 -0.536,1.197 -1.197,1.197 -0.661,0 -1.197,-0.536 -1.197,-1.197 0,-0.661 0.536,-1.196 1.197,-1.196 0.661,0 1.197,0.535 1.197,1.196 z" gorn=".11"/><path id="connector1pin" fill="#9a916c" d="m 3.361,18.166652 c 0,1.321 1.071,2.393 2.393,2.393 1.322,0 2.394,-1.071 2.394,-2.393 0,-1.322 -1.071,-2.394 -2.394,-2.394 -1.321,0 -2.393,1.071 -2.393,2.394 z m 3.591,-0.002 c 0,0.661 -0.536,1.197 -1.197,1.197 -0.661,0 -1.197,-0.536 -1.197,-1.197 0,-0.661 0.536,-1.196 1.197,-1.196 0.661,0 1.197,0.534 1.197,1.196 z" gorn=".12"/><path id="connector0pin" fill="#9a916c" fill-opacity="1" stroke-width="1.125" d="m 3.3785225,8.588175 v 4.751954 H 8.1304774 V 8.588175 Z m 2.3759773,1.12793 a 1.2600004,1.2479124 0 0 1 1.259766,1.248047 1.2600004,1.2479124 0 0 1 -1.259766,1.248047 1.2600004,1.2479124 0 0 1 -1.2612309,-1.248047 1.2600004,1.2479124 0 0 1 1.2612309,-1.248047 z" gorn=".13" paint-order="markers stroke fill"/><path id="path4831" fill="#999" stroke-width="1" d="m 18.103403,37.120246 c 0,2.348749 1.90322,4.251969 4.25197,4.251969 2.34875,0 4.25197,-1.90322 4.25197,-4.251969 0,-2.348749 -1.90322,-4.251969 -4.25197,-4.251969 -2.34875,0 -4.25197,1.90322 -4.25197,4.251969 z m 7.315362,0 c 0,1.717831 -1.392655,3.110485 -3.110487,3.110485 -1.717831,0 -3.110486,-1.392654 -3.110486,-3.110485 0,-1.717831 1.392655,-3.110485 3.110486,-3.110485 1.717832,0 3.110487,1.392654 3.110487,3.110485 z" gorn=".14"/><g id="g2629"><path id="path39896" fill="#9a916c" stroke-width="1" d="m 33.29088,19.344111 v -1.462123 c 0,-0.144201 0.145026,-0.261065 0.323977,-0.261065 h 0.648046 c 0.178951,0 0.323977,0.116864 0.323977,0.261065 v 1.462123 c 0,0.144201 -0.145026,0.261065 -0.323977,0.261065 h -0.648046 c -0.178951,7.3e-5 -0.323977,-0.116864 -0.323977,-0.261065 z" gorn="0.15.0"/><path id="path4857" fill="#9a916c" stroke-width="1" d="m 31.466772,19.344111 v -1.462123 c 0,-0.144201 0.145026,-0.261065 0.323977,-0.261065 h 0.648046 c 0.178951,0 0.323977,0.116864 0.323977,0.261065 v 1.462123 c 0,0.144201 -0.145026,0.261065 -0.323977,0.261065 h -0.648046 c -0.178951,7.3e-5 -0.323977,-0.116864 -0.323977,-0.261065 z" gorn="0.15.1"/><path id="path39898" fill="#9a916c" stroke-width="1" d="m 35.114988,19.344111 v -1.462123 c 0,-0.144201 0.145026,-0.261065 0.323977,-0.261065 h 0.648046 c 0.178951,0 0.323977,0.116864 0.323977,0.261065 v 1.462123 c 0,0.144201 -0.145026,0.261065 -0.323977,0.261065 h -0.648046 c -0.178951,7.3e-5 -0.323977,-0.116864 -0.323977,-0.261065 z" gorn="0.15.2"/><path id="path39900" fill="#9a916c" stroke-width="1" d="m 36.939098,19.344111 v -1.462123 c 0,-0.144201 0.145026,-0.261065 0.323977,-0.261065 h 0.648046 c 0.178951,0 0.323977,0.116864 0.323977,0.261065 v 1.462123 c 0,0.144201 -0.145026,0.261065 -0.323977,0.261065 h -0.648046 c -0.178951,7.3e-5 -0.323977,-0.116864 -0.323977,-0.261065 z" gorn="0.15.3"/><path id="path40150" fill="#9a916c" stroke-width="1" d="m 36.939098,14.587914 v -1.462123 c 0,-0.144201 0.145026,-0.261065 0.323977,-0.261065 h 0.648046 c 0.178951,0 0.323977,0.116864 0.323977,0.261065 v 1.462123 c 0,0.144201 -0.145026,0.261065 -0.323977,0.261065 h -0.648046 c -0.178951,7.3e-5 -0.323977,-0.116864 -0.323977,-0.261065 z" gorn="0.15.4"/><path id="path40148" fill="#9a916c" stroke-width="1" d="m 35.114988,14.587914 v -1.462123 c 0,-0.144201 0.145026,-0.261065 0.323977,-0.261065 h 0.648046 c 0.178951,0 0.323977,0.116864 0.323977,0.261065 v 1.462123 c 0,0.144201 -0.145026,0.261065 -0.323977,0.261065 h -0.648046 c -0.178951,7.3e-5 -0.323977,-0.116864 -0.323977,-0.261065 z" gorn="0.15.5"/><path id="path40144" fill="#9a916c" stroke-width="1" d="m 33.29088,14.587914 v -1.462123 c 0,-0.144201 0.145026,-0.261065 0.323977,-0.261065 h 0.648046 c 0.178951,0 0.323977,0.116864 0.323977,0.261065 v 1.462123 c 0,0.144201 -0.145026,0.261065 -0.323977,0.261065 h -0.648046 c -0.178951,7.3e-5 -0.323977,-0.116864 -0.323977,-0.261065 z" gorn="0.15.6"/><path id="path40146" fill="#9a916c" stroke-width="1" d="m 31.466772,14.587914 v -1.462123 c 0,-0.144201 0.145026,-0.261065 0.323977,-0.261065 h 0.648046 c 0.178951,0 0.323977,0.116864 0.323977,0.261065 v 1.462123 c 0,0.144201 -0.145026,0.261065 -0.323977,0.261065 h -0.648046 c -0.178951,7.3e-5 -0.323977,-0.116864 -0.323977,-0.261065 z" gorn="0.15.7"/><rect id="rect66" width="5.625" height="7.329" x="-18.986" y="-38.561" fill="#e0e0e0" stroke-width="1.741" gorn="0.15.8.0.0.0.0.0.0.0.0.0.0.0" transform="matrix(0,-1,-1,0,0,0)"/><path id="path68" fill="#999" stroke-width="1.741" d="m 32.751831,13.659113 c -0.537683,0 -0.978044,0.366481 -0.978044,0.813956 v 3.412064 c 0,0.448049 0.440361,0.813955 0.978044,0.813955 h 4.272474 c 0.537683,0 0.978045,-0.366481 0.978045,-0.813955 v -3.412064 c 0,-0.448049 -0.440362,-0.813956 -0.978045,-0.813956 z" gorn="0.15.8.0.0.0.0.0.0.0.0.0.0.1.0"/><ellipse id="circle72" cx="-17.334" cy="-36.419" fill="#414141" stroke-width="1.741" gorn="0.15.8.0.0.0.0.0.0.0.0.0.0.2" rx=".431" ry=".431" transform="matrix(0,-1,-1,0,0,0)"/><g id="text40474" stroke-width=".75" aria-label="BMP 280" font-family="OCRA" font-size="1.2" gorn="0.15.9" letter-spacing="-.215" line-height=".95" word-spacing="0"><path id="path47383" fill="#fff" d="m 32.40731,15.410491 v -1.17046 h 0.444175 q 0.123048,0 0.213083,0.09004 0.09004,0.09004 0.09004,0.213084 v 0.05552 q 0,0.133552 -0.105041,0.226589 0.105041,0.09304 0.105041,0.226589 v 0.05552 q 0,0.123048 -0.09004,0.213084 -0.09004,0.09004 -0.213083,0.09004 z m 0.15156,-0.15156 h 0.292615 q 0.06152,0 0.106542,-0.04502 0.04502,-0.04652 0.04502,-0.106542 v -0.05552 q 0,-0.06152 -0.04502,-0.106542 -0.04502,-0.04502 -0.106542,-0.04502 H 32.55887 Z m 0,-0.5102 h 0.292615 q 0.06152,0 0.106542,-0.04502 0.04502,-0.04502 0.04502,-0.105041 v -0.05552 q 0,-0.06002 -0.04502,-0.105041 -0.04502,-0.04652 -0.106542,-0.04652 H 32.55887 Z" gorn="0.15.9.0"/><path id="path47385" fill="#fff" d="m 33.276978,15.333961 v -1.09393 h 0.189074 l 0.184573,0.262603 0.183072,-0.262603 h 0.190575 v 1.09393 q 0,0.03151 -0.02251,0.05402 -0.02251,0.02251 -0.05402,0.02251 -0.03151,0 -0.05402,-0.02251 -0.02101,-0.02251 -0.02101,-0.05402 v -0.885348 l -0.147058,0.210082 v 0.03902 q 0,0.03151 -0.02251,0.05402 -0.02251,0.02251 -0.05252,0.02251 -0.03151,0 -0.05402,-0.02251 -0.02251,-0.02251 -0.02251,-0.05402 v -0.03902 l -0.145557,-0.207081 v 0.882347 q 0,0.03151 -0.02251,0.05402 -0.02251,0.02251 -0.05402,0.02251 -0.03151,0 -0.05402,-0.02251 -0.02101,-0.02251 -0.02101,-0.05402 z" gorn="0.15.9.1"/><path id="path47387" fill="#fff" d="m 34.146646,15.333961 v -1.09393 h 0.519204 q 0.09304,0 0.160563,0.06753 0.06753,0.06603 0.06753,0.159063 v 0.270106 q 0,0.09304 -0.06753,0.160563 -0.06753,0.06753 -0.160563,0.06753 h -0.367645 v 0.369145 q 0,0.03151 -0.02251,0.05402 -0.02251,0.02251 -0.05402,0.02251 -0.03151,0 -0.05402,-0.02251 -0.02101,-0.02251 -0.02101,-0.05402 z m 0.151559,-0.520705 h 0.367645 q 0.03001,0 0.05252,-0.02251 0.02401,-0.02251 0.02401,-0.05402 V 14.46662 q 0,-0.03001 -0.02401,-0.05252 -0.02251,-0.02251 -0.05252,-0.02251 h -0.367645 z" gorn="0.15.9.2"/><path id="path47389" fill="#fff" d="m 32.40731,16.836051 v -0.5102 q 0,-0.06152 0.04502,-0.105041 0.04502,-0.04502 0.106542,-0.04502 h 0.444174 V 15.817151 H 32.48234 q -0.03151,0 -0.05402,-0.02251 -0.02101,-0.02251 -0.02101,-0.05402 0,-0.03001 0.02101,-0.05252 0.02251,-0.02251 0.05402,-0.02251 h 0.520704 q 0.06002,0 0.105042,0.04502 0.04652,0.04502 0.04652,0.106542 v 0.358641 q 0,0.06002 -0.04502,0.105041 -0.04502,0.04502 -0.106542,0.04502 H 32.55887 v 0.358641 h 0.519204 q 0.03151,0 0.05402,0.02251 0.02251,0.02251 0.02251,0.05252 0,0.03151 -0.02251,0.05402 -0.02251,0.02251 -0.05402,0.02251 z" gorn="0.15.9.3"/><path id="path47391" fill="#fff" d="m 33.276978,16.684492 v -0.358641 q 0,-0.06152 0.04352,-0.106542 0.04502,-0.04502 0.106542,-0.04502 v -0.43367 q 0,-0.03151 0.02101,-0.05252 0.02101,-0.02251 0.05252,-0.02251 h 0.298617 q 0.03151,0 0.05252,0.02251 0.02101,0.02101 0.02101,0.05252 v 0.43367 q 0.06002,0 0.105041,0.04652 0.04652,0.04502 0.04652,0.105041 v 0.358641 q 0,0.06152 -0.04652,0.106542 -0.04502,0.04502 -0.105041,0.04502 h -0.445675 q -0.06152,0 -0.106542,-0.04502 -0.04352,-0.04502 -0.04352,-0.106542 z m 0.150059,0 h 0.445675 v -0.358641 h -0.445675 z m 0.150059,-0.510201 h 0.145557 v -0.35714 h -0.145557 z" gorn="0.15.9.4"/><path id="path47393" fill="#fff" d="m 34.146646,16.684492 v -0.867341 q 0,-0.06152 0.04502,-0.106542 0.04502,-0.04502 0.106541,-0.04502 h 0.444175 q 0.06002,0 0.105041,0.04502 0.04652,0.04502 0.04652,0.106542 v 0.867341 q 0,0.06152 -0.04652,0.106542 -0.04502,0.04502 -0.105041,0.04502 h -0.444175 q -0.06152,0 -0.106541,-0.04502 -0.04502,-0.04502 -0.04502,-0.106542 z m 0.151559,0 h 0.444175 v -0.867341 h -0.444175 z" gorn="0.15.9.5"/></g></g><g id="text50849" stroke-width=".75" font-family="OCRA" font-size="3.2" gorn=".16" letter-spacing="-.525" line-height="1.25" word-spacing="0" xml:space="preserve"><text id="tspan50847" x="9.92" y="12.078" fill="#fff" fill-opacity="1" stroke-width=".75" font-family="OCRA" font-stretch="normal" font-style="normal" font-variant="normal" font-weight="normal" gorn="0.16.0">VDD</text></g><g id="text53841" stroke-width=".75" font-family="OCRA" font-size="3.2" gorn=".17" letter-spacing="-.525" line-height="1.25" word-spacing="0" xml:space="preserve"><text id="tspan53839" x="9.92" y="19.578" fill="#fff" fill-opacity="1" stroke-width=".75" font-family="OCRA" font-stretch="normal" font-style="normal" font-variant="normal" font-weight="normal" gorn="0.17.0">SDA</text></g><g id="text53845" stroke-width=".75" font-family="OCRA" font-size="3.2" gorn=".18" letter-spacing="-.525" line-height="1.25" word-spacing="0" xml:space="preserve"><text id="tspan53843" x="9.92" y="27.078" fill="#fff" fill-opacity="1" stroke-width=".75" font-family="OCRA" font-stretch="normal" font-style="normal" font-variant="normal" font-weight="normal" gorn="0.18.0">GND</text></g><g id="text53849" stroke-width=".75" font-family="OCRA" font-size="3.2" gorn=".19" letter-spacing="-.525" line-height="1.25" word-spacing="0" xml:space="preserve"><text id="tspan53847" x="9.92" y="34.18" fill="#fff" fill-opacity="1" stroke-width=".75" font-family="OCRA" font-stretch="normal" font-style="normal" font-variant="normal" font-weight="normal" gorn="0.19.0">SCL</text></g></g></svg>