<svg xmlns="http://www.w3.org/2000/svg" id="svg5" width="133mm" height="289.24" gorn="0" version="1.1" viewBox="0 0 133 76.528"><desc><referenceFile>svg.breaboard.solar_cell.svg</referenceFile></desc><g id="layer1" gorn=".2"><g><g transform="matrix(-1,0,0,1,133.96139,0)"><g id="g3407" gorn="0.2.0.0.0"><g><g transform="rotate(-90,61.599413,54.390034)"><g id="g1643" gorn="0.2.0.0.0.0.0.0"><line style="stroke-linecap:round" id="connector1leg" x1="113.462" x2="115.46" y1="61.688" y2="61.688" fill="none" stroke="red" stroke-width="1.058" gorn="0.2.0.0.0.0.0.0.0"/><path fill="none" stroke="red" stroke-width="1.058" d="m 111.46275,61.688404 h 1.99877" gorn="0.2.0.0.0.0.0.0.1"/><g><g transform="rotate(90,111.66312,67.077663)"><rect id="rect1772" width="1.287" height=".504" x="105.63" y="66.027" fill="gray" stroke-width=".088" gorn="0.2.0.0.0.0.0.0.2.0.0"/></g></g><g><g transform="matrix(0,-1,-1,0,115.98945,126.75201)"><circle id="connector0pin" cx="65.064" cy=".4" r=".4" fill="red" stroke-width=".265" gorn="0.2.0.0.0.0.0.0.3.0.0"/></g></g></g></g></g><g><g transform="translate(-0.15833135,-6.8797602e-4)"><g id="g3254" gorn="0.2.0.0.0.1.0.0"><g><g transform="rotate(-90,110.22656,68.513882)"><line style="fill:#000;stroke-linecap:round" id="connector1leg-8" x1="176.212" x2="178.211" y1="24.471" y2="24.471" fill="none" stroke="#000" stroke-width="1.058" gorn="0.2.0.0.0.1.0.0.0.0.0"/></g></g><g><g transform="rotate(-90,110.22656,68.513882)"><path d="m 174.2134,24.470656 h 1.99877" style="fill:#000" id="connector1pin-0" fill="none" stroke="#000" stroke-width="1.058" gorn="0.2.0.0.0.1.0.0.1.0.0"/></g></g><g><g transform="translate(41.712676,178.74044)"><rect id="rect1772-8" width="1.287" height=".504" x="23.827" y="-175.465" fill="gray" stroke-width=".088" gorn="0.2.0.0.0.1.0.0.2.0.0"/></g></g><g><g transform="matrix(-1,0,0,1,134.11972,6.8797602e-4)"><circle id="connector1pin" cx="67.936" cy=".4" r=".4" fill="#000" stroke-width=".265" gorn="0.2.0.0.0.1.0.0.3.0.0"/></g></g></g></g></g></g></g></g><rect id="rect113" width="133" height="73" x="0" y="3.528" fill="#000" stroke-width=".265" gorn="0.2.1" rx="3" ry="3"/><g><g transform="translate(-36.901085,-62.750818)"><g id="g2285" gorn="0.2.2.0.0"><rect id="rect459" width=".38" height="25.813" x="42.813" y="72.452" fill="#fff" stroke-width=".265" gorn="0.2.2.0.0.0"/><rect id="rect459-00" width=".38" height="25.813" x="46.276" y="72.452" fill="#fff" stroke-width=".265" gorn="0.2.2.0.0.1"/><rect id="rect459-6-6-7-7" width=".38" height="25.813" x="49.739" y="72.452" fill="#fff" stroke-width=".265" gorn="0.2.2.0.0.2"/><rect id="rect459-6-6-7-7-4" width=".38" height="25.813" x="53.201" y="72.452" fill="#fff" stroke-width=".265" gorn="0.2.2.0.0.3"/></g></g></g><g><g transform="translate(-36.901085,-62.750818)"><g id="g2291" gorn="0.2.3.0.0"><rect id="rect459-6" width=".38" height="25.813" x="42.813" y="107.932" fill="#fff" stroke-width=".265" gorn="0.2.3.0.0.0"/><rect id="rect459-6-6" width=".38" height="25.813" x="46.276" y="107.932" fill="#fff" stroke-width=".265" gorn="0.2.3.0.0.1"/><rect id="rect459-6-6-7" width=".38" height="25.813" x="49.739" y="107.932" fill="#fff" stroke-width=".265" gorn="0.2.3.0.0.2"/><rect id="rect459-6-6-7-7-9" width=".38" height="25.813" x="53.201" y="107.932" fill="#fff" stroke-width=".265" gorn="0.2.3.0.0.3"/></g></g></g><g><g transform="translate(-36.901085,-62.750818)"><g id="g2279" gorn="0.2.4.0.0"><rect id="rect459-2-0" width=".38" height="25.813" x="63.59" y="72.452" fill="#fff" stroke-width=".265" gorn="0.2.4.0.0.0"/><rect id="rect459-00-6-0" width=".38" height="25.813" x="67.053" y="72.452" fill="#fff" stroke-width=".265" gorn="0.2.4.0.0.1"/><rect id="rect459-6-6-7-7-2-2" width=".38" height="25.813" x="70.516" y="72.452" fill="#fff" stroke-width=".265" gorn="0.2.4.0.0.2"/><rect id="rect459-6-6-7-7-4-3-3" width=".38" height="25.813" x="73.978" y="72.452" fill="#fff" stroke-width=".265" gorn="0.2.4.0.0.3"/></g></g></g><g><g transform="translate(-36.901085,-62.750818)"><g id="g2302" gorn="0.2.5.0.0"><rect id="rect459-6-7-6" width=".38" height="25.813" x="63.59" y="107.932" fill="#fff" stroke-width=".265" gorn="0.2.5.0.0.0"/><rect id="rect459-6-6-73-1" width=".38" height="25.813" x="67.053" y="107.932" fill="#fff" stroke-width=".265" gorn="0.2.5.0.0.1"/><rect id="rect459-6-6-7-0-9" width=".38" height="25.813" x="70.516" y="107.932" fill="#fff" stroke-width=".265" gorn="0.2.5.0.0.2"/><rect id="rect459-6-6-7-7-9-1-5" width=".38" height="25.813" x="73.978" y="107.932" fill="#fff" stroke-width=".265" gorn="0.2.5.0.0.3"/></g></g></g><g><g transform="translate(-36.901085,-62.750818)"><g id="g2273" gorn="0.2.6.0.0"><rect id="rect459-2-0-8" width=".38" height="25.813" x="84.367" y="72.452" fill="#fff" stroke-width=".265" gorn="0.2.6.0.0.0"/><rect id="rect459-00-6-0-0" width=".38" height="25.813" x="87.83" y="72.452" fill="#fff" stroke-width=".265" gorn="0.2.6.0.0.1"/><rect id="rect459-6-6-7-7-2-2-8" width=".38" height="25.813" x="91.293" y="72.452" fill="#fff" stroke-width=".265" gorn="0.2.6.0.0.2"/><rect id="rect459-6-6-7-7-4-3-3-3" width=".38" height="25.813" x="94.756" y="72.452" fill="#fff" stroke-width=".265" gorn="0.2.6.0.0.3"/></g></g></g><g><g transform="translate(-36.901085,-62.750818)"><g id="g2267" gorn="0.2.7.0.0"><rect id="rect459-6-7-6-8" width=".38" height="25.813" x="84.367" y="107.932" fill="#fff" stroke-width=".265" gorn="0.2.7.0.0.0"/><rect id="rect459-6-6-73-1-2" width=".38" height="25.813" x="87.83" y="107.932" fill="#fff" stroke-width=".265" gorn="0.2.7.0.0.1"/><rect id="rect459-6-6-7-0-9-7" width=".38" height="25.813" x="91.293" y="107.932" fill="#fff" stroke-width=".265" gorn="0.2.7.0.0.2"/><rect id="rect459-6-6-7-7-9-1-5-8" width=".38" height="25.813" x="94.756" y="107.932" fill="#fff" stroke-width=".265" gorn="0.2.7.0.0.3"/></g></g></g><g><g transform="translate(-36.901085,-62.750818)"><g id="g2255" gorn="0.2.8.0.0"><rect id="rect459-2-0-8-7" width=".38" height="25.813" x="112.046" y="72.452" fill="#fff" stroke-width=".265" gorn="0.2.8.0.0.0"/><rect id="rect459-00-6-0-0-9" width=".38" height="25.813" x="115.509" y="72.452" fill="#fff" stroke-width=".265" gorn="0.2.8.0.0.1"/><rect id="rect459-6-6-7-7-2-2-8-9" width=".38" height="25.813" x="118.972" y="72.452" fill="#fff" stroke-width=".265" gorn="0.2.8.0.0.2"/><rect id="rect459-6-6-7-7-4-3-3-3-0" width=".38" height="25.813" x="122.435" y="72.452" fill="#fff" stroke-width=".265" gorn="0.2.8.0.0.3"/></g></g></g><g><g transform="translate(-36.901085,-62.750818)"><g id="g2261" gorn="0.2.9.0.0"><rect id="rect459-6-7-6-8-8" width=".38" height="25.813" x="112.046" y="107.932" fill="#fff" stroke-width=".265" gorn="0.2.9.0.0.0"/><rect id="rect459-6-6-73-1-2-9" width=".38" height="25.813" x="115.509" y="107.932" fill="#fff" stroke-width=".265" gorn="0.2.9.0.0.1"/><rect id="rect459-6-6-7-0-9-7-9" width=".38" height="25.813" x="118.972" y="107.932" fill="#fff" stroke-width=".265" gorn="0.2.9.0.0.2"/><rect id="rect459-6-6-7-7-9-1-5-8-4" width=".38" height="25.813" x="122.435" y="107.932" fill="#fff" stroke-width=".265" gorn="0.2.9.0.0.3"/></g></g></g><g><g transform="translate(-36.901085,-62.750818)"><g id="g2249" gorn="0.2.10.0.0"><rect id="rect459-2" width=".38" height="25.813" x="132.823" y="72.452" fill="#fff" stroke-width=".265" gorn="0.2.10.0.0.0"/><rect id="rect459-00-6" width=".38" height="25.813" x="136.286" y="72.452" fill="#fff" stroke-width=".265" gorn="0.2.10.0.0.1"/><rect id="rect459-6-6-7-7-2" width=".38" height="25.813" x="139.749" y="72.452" fill="#fff" stroke-width=".265" gorn="0.2.10.0.0.2"/><rect id="rect459-6-6-7-7-4-3" width=".38" height="25.813" x="143.212" y="72.452" fill="#fff" stroke-width=".265" gorn="0.2.10.0.0.3"/></g></g></g><g><g transform="translate(-36.901085,-62.750818)"><g id="g2243" gorn="0.2.11.0.0"><rect id="rect459-6-7" width=".38" height="25.813" x="132.823" y="107.932" fill="#fff" stroke-width=".265" gorn="0.2.11.0.0.0"/><rect id="rect459-6-6-73" width=".38" height="25.813" x="136.286" y="107.932" fill="#fff" stroke-width=".265" gorn="0.2.11.0.0.1"/><rect id="rect459-6-6-7-0" width=".38" height="25.813" x="139.749" y="107.932" fill="#fff" stroke-width=".265" gorn="0.2.11.0.0.2"/><rect id="rect459-6-6-7-7-9-1" width=".38" height="25.813" x="143.212" y="107.932" fill="#fff" stroke-width=".265" gorn="0.2.11.0.0.3"/></g></g></g><g><g transform="translate(-36.901085,-62.750818)"><g id="g2231" gorn="0.2.12.0.0"><rect id="rect459-0" width=".38" height="25.813" x="163.989" y="72.452" fill="#fff" stroke-width=".265" gorn="0.2.12.0.0.0"/><rect id="rect459-0-8" width=".38" height="25.813" x="160.526" y="72.452" fill="#fff" stroke-width=".265" gorn="0.2.12.0.0.1"/><rect id="rect459-0-8-2" width=".38" height="25.813" x="157.063" y="72.452" fill="#fff" stroke-width=".265" gorn="0.2.12.0.0.2"/><rect id="rect459-0-8-2-3" width=".38" height="25.813" x="153.6" y="72.452" fill="#fff" stroke-width=".265" gorn="0.2.12.0.0.3"/></g></g></g><g><g transform="translate(-36.901085,-62.750818)"><g id="g2237" gorn="0.2.13.0.0"><rect id="rect459-6-4" width=".38" height="25.813" x="163.989" y="107.932" fill="#fff" stroke-width=".265" gorn="0.2.13.0.0.0"/><rect id="rect459-6-4-7" width=".38" height="25.813" x="160.526" y="107.932" fill="#fff" stroke-width=".265" gorn="0.2.13.0.0.1"/><rect id="rect459-6-4-7-0" width=".38" height="25.813" x="157.063" y="107.932" fill="#fff" stroke-width=".265" gorn="0.2.13.0.0.2"/><rect id="rect459-6-4-7-0-6" width=".38" height="25.813" x="153.6" y="107.932" fill="#fff" stroke-width=".265" gorn="0.2.13.0.0.3"/></g></g></g></g></svg>