<svg xmlns="http://www.w3.org/2000/svg" xmlns:svg="http://www.w3.org/2000/svg" id="svg55" width="292.678" height="78.347" x="0" y="0" version="1.2" viewBox="0 0 3048.73 816.111"><metadata id="metadata61"/><desc id="desc2"><referenceFile>18650-battery-holder-alt_1_pcb.svg</referenceFile></desc><g id="silkscreen"><line id="line30" x1="2064.685" x2="1014.903" y1="310.357" y2="310.357" stroke="#000" stroke-linecap="round" stroke-width="10"/><line id="line32" x1="1014.903" x2="1014.903" y1="310.357" y2="387.357" stroke="#000" stroke-linecap="round" stroke-width="10"/><line id="line34" x1="1014.903" x2="1014.903" y1="387.357" y2="437.357" stroke="#000" stroke-linecap="round" stroke-width="10"/><line id="line36" x1="1014.903" x2="1014.903" y1="437.357" y2="510.357" stroke="#000" stroke-linecap="round" stroke-width="10"/><line id="line38" x1="1014.903" x2="2064.685" y1="510.357" y2="510.357" stroke="#000" stroke-linecap="round" stroke-width="10"/><line id="line40" x1="2064.685" x2="2064.685" y1="510.357" y2="310.357" stroke="#000" stroke-linecap="round" stroke-width="10"/><line id="line42" x1="1014.903" x2="964.914" y1="387.357" y2="387.357" stroke="#000" stroke-linecap="round" stroke-width="10"/><line id="line44" x1="964.914" x2="964.914" y1="387.357" y2="437.357" stroke="#000" stroke-linecap="round" stroke-width="10"/><line id="line46" x1="964.914" x2="1014.903" y1="437.357" y2="437.357" stroke="#000" stroke-linecap="round" stroke-width="10"/><line id="line48" x1="1989.7" x2="1939.711" y1="410.357" y2="410.357" stroke="#000" stroke-linecap="round" stroke-width="10"/><line id="line50" x1="1139.877" x2="1089.888" y1="410.357" y2="410.357" stroke="#000" stroke-linecap="round" stroke-width="10"/><line id="line52" x1="1114.882" x2="1114.882" y1="385.357" y2="435.357" stroke="#000" stroke-linecap="round" stroke-width="10"/><line id="line18" x1="3040.894" x2="2665.972" y1="4.999" y2="4.999" stroke="#000" stroke-linecap="round" stroke-width="10"/><line id="line20" x1="2665.972" x2="3040.894" y1="805.926" y2="805.926" stroke="#000" stroke-linecap="round" stroke-width="10"/><line id="line22" x1="3043.73" x2="3043.73" y1="805.001" y2="6.319" stroke="#000" stroke-linecap="round" stroke-width="10"/><line id="line24" x1="379.992" x2="5.07" y1="811.111" y2="811.111" stroke="#000" stroke-linecap="round" stroke-width="10"/><line id="line26" x1="4.999" x2="4.999" y1="811.054" y2="9.45" stroke="#000" stroke-linecap="round" stroke-width="10"/><line id="line28" x1="5.663" x2="380.585" y1="6.59" y2="6.59" stroke="#000" stroke-linecap="round" stroke-width="10"/></g><g id="copper1"><g id="copper0"><circle id="nonconn0" cx="2610.548" cy="410.472" r="63" fill="#000" stroke-width="0" connectorname="GND@2" gorn="0.0.1"/><circle id="nonconn1" cx="420.8" cy="410.472" r="63" fill="#000" stroke-width="0" connectorname="PWR@2" gorn="0.0.3"/><circle id="connector0pin" cx="83.3" cy="410.317" r="41.5" fill="none" stroke="#f7bd13" stroke-width="10"/><circle id="connector1pin" cx="2952.297" cy="410.972" r="41.5" fill="none" stroke="#f7bd13" stroke-width="10"/></g></g></svg>