<svg xmlns="http://www.w3.org/2000/svg" xmlns:xml="http://www.w3.org/XML/1998/namespace" width="21.437" height="21.604" fill-rule="evenodd" clip-rule="evenodd" image-rendering="optimizeQuality" shape-rendering="geometricPrecision" text-rendering="geometricPrecision" version="1.1" viewBox="0 0 8569 8635" xml:space="preserve"><desc><referenceFile>svg.pcb.solar_cell.svg</referenceFile></desc><g id="pcb" gorn=".1"><metadata id="CorelCorpID_0Corel-Layer"/><g id="copper1" gorn="0.1.1"><g id="copper0" gorn="0.1.1.0"><circle id="connector0pin" cx="2378" cy="2110" r="1113" fill="none" stroke="#FFBF00" stroke-width="767.441" gorn="0.1.1.0.0"/><circle id="connector1pin" cx="6215" cy="2110" r="1113" fill="none" stroke="#FFBF00" stroke-width="767.441" gorn="0.1.1.0.1"/></g></g><g id="silkscreen" gorn="0.1.2"><line x1="459" x2="8134" y1="4029" y2="4029" fill="none" stroke="#fff" stroke-width="383.72"/><line x1="8134" x2="8134" y1="4029" y2="192" fill="none" stroke="#fff" stroke-width="383.72"/><line x1="8134" x2="459" y1="192" y2="192" fill="none" stroke="#fff" stroke-width="383.72"/><line x1="459" x2="459" y1="192" y2="4029" fill="none" stroke="#fff" stroke-width="383.72"/><g><polygon fill="#fff" fill-rule="nonzero" stroke="#fff" stroke-width="501.405" points="881 7450 881 6816 251 6816 251 6551 881 6551 881 5921 1149 5921 1149 6551 1779 6551 1779 6816 1149 6816 1149 7450"/><polygon fill="#000" fill-rule="nonzero" stroke="#fff" stroke-width="501.405" points="6437 6897 6437 6693 8318 6693 8318 6897"/><g><polygon fill="#fff" points="2904 4902 6308 4902 5192 8635 2048 8635"/><polygon fill="#252F32" points="3207 5265 3572 5265 3452 5665 3116 5665"/><polygon fill="#252F32" points="3951 5265 4316 5265 4198 5665 3860 5665"/><polygon fill="#252F32" points="4687 5265 5053 5265 4932 5665 4596 5665"/><polygon fill="#252F32" points="5430 5265 5795 5265 5676 5665 5339 5665"/><polygon fill="#252F32" points="2968 6113 3332 6113 3213 6513 2875 6513"/><polygon fill="#252F32" points="3712 6113 4077 6113 3957 6513 3621 6513"/><polygon fill="#252F32" points="4449 6113 4814 6113 4693 6513 4357 6513"/><polygon fill="#252F32" points="5191 6113 5556 6113 5436 6513 5100 6513"/><polygon fill="#252F32" points="2740 6915 3104 6915 2985 7315 2647 7315"/><polygon fill="#252F32" points="3484 6915 3849 6915 3729 7315 3393 7315"/><polygon fill="#252F32" points="4220 6915 4585 6915 4465 7315 4129 7315"/><polygon fill="#252F32" points="4963 6915 5328 6915 5208 7315 4871 7315"/><polygon fill="#252F32" points="2487 7824 2853 7824 2732 8224 2396 8224"/><polygon fill="#252F32" points="3231 7824 3597 7824 3476 8224 3140 8224"/><polygon fill="#252F32" points="3968 7824 4333 7824 4213 8224 3876 8224"/><polygon fill="#252F32" points="4710 7824 5075 7824 4955 8224 4619 8224"/></g></g></g></g></svg>