<?xml version='1.0' encoding='UTF-8' standalone='no'?>
<!-- Generator: Adobe Illustrator 17.0.0, SVG Export Plug-In . SVG Version: 6.00 Build 0)  -->
<svg xmlns="http://www.w3.org/2000/svg"  id="Layer_1" viewBox="0 0 36 18.000001" height="18" y="0px" gorn="0" width="36" enable-background="new 0 0 72 46.8" x="0px" xmlns:xml="http://www.w3.org/XML/1998/namespace" version="1.1" xml:space="preserve">
    <desc  id="desc3">
        <referenceFile  id="referenceFile5">grove_generic_pcb.svg</referenceFile>
    </desc>
    <metadata  id="metadata48">
        <rdf:RDF xmlns:rdf="http://www.w3.org/1999/02/22-rdf-syntax-ns#">
            <cc:Work xmlns:cc="http://creativecommons.org/ns#" xmlns:rdf="http://www.w3.org/1999/02/22-rdf-syntax-ns#" rdf:about="">
                <dc:format xmlns:dc="http://purl.org/dc/elements/1.1/">image/svg+xml</dc:format>
                <dc:type xmlns:dc="http://purl.org/dc/elements/1.1/" xmlns:rdf="http://www.w3.org/1999/02/22-rdf-syntax-ns#" rdf:resource="http://purl.org/dc/dcmitype/StillImage"/>
                <dc:title xmlns:dc="http://purl.org/dc/elements/1.1/"/>
            </cc:Work>
        </rdf:RDF>
    </metadata>
    <defs  id="defs46"/>
    <g  transform="matrix(-1,0,0,-1,35.716536,32.25984)">
        <g >
            <g >
                <g  id="copper1" gorn="0.3.0.0.0">
                    <g  transform="translate(-3.5433065,-21.996953)">
                        <g >
                            <g >
                                <g  id="copper0" gorn="0.3.0.0.0.0.0.0.0">
                                    <g  transform="translate(-0.16907948,0.05579348)">
                                        <g >
                                            <g >
                                                <g  id="g47" gorn="0.3.0.0.0.0.0.0.0.0.0.0.0">
                                                    <circle  id="connector1pad" cy="43.201" d="m 12.851,43.201 c 0,1.133289 -0.918712,2.052 -2.052,2.052 -1.1332885,0 -2.0520003,-0.918711 -2.0520003,-2.052 0,-1.133288 0.9187118,-2.052 2.0520003,-2.052 1.133288,0 2.052,0.918712 2.052,2.052 z" style="fill:none;stroke:#f5bd18;stroke-width:1.22399998" gorn="0.3.0.0.0.0.0.0.0.0.0.0.0.0" cx="10.799" r="2.052"/>
                                                    <rect  id="connector3pin" height="4.1040001" y="41.148998" style="fill:none;stroke:#f5bd18;stroke-width:1.22399998" gorn="0.3.0.0.0.0.0.0.0.0.0.0.0.1" width="4.1040001" x="8.7469997"/>
                                                </g>
                                            </g>
                                        </g>
                                    </g>
                                    <g  transform="translate(-0.5102379,0.05579253)">
                                        <g >
                                            <g >
                                                <circle  id="connector0pin" cy="43.201" d="m 34.452002,43.201 c 0,1.133289 -0.918712,2.052 -2.052,2.052 -1.133289,0 -2.052001,-0.918711 -2.052001,-2.052 0,-1.133288 0.918712,-2.052 2.052001,-2.052 1.133288,0 2.052,0.918712 2.052,2.052 z" style="fill:none;stroke:#f5bd18;stroke-width:1.22399998" gorn="0.3.0.0.0.0.0.0.0.1.0.0.0" cx="32.400002" r="2.052"/>
                                            </g>
                                        </g>
                                    </g>
                                    <g  transform="translate(-0.39685158,0.05579253)">
                                        <g >
                                            <g >
                                                <circle  id="connector1pin" cy="43.201" d="m 27.252001,43.201 c 0,1.133289 -0.918712,2.052 -2.052,2.052 -1.133289,0 -2.052,-0.918711 -2.052,-2.052 0,-1.133288 0.918711,-2.052 2.052,-2.052 1.133288,0 2.052,0.918712 2.052,2.052 z" style="fill:none;stroke:#f5bd18;stroke-width:1.22399998" gorn="0.3.0.0.0.0.0.0.0.2.0.0.0" cx="25.200001" r="2.052"/>
                                            </g>
                                        </g>
                                    </g>
                                    <g  transform="translate(-0.2824658,0.05579253)">
                                        <g >
                                            <g >
                                                <circle  id="connector2pin" cy="43.201" d="m 20.051001,43.201 c 0,1.133289 -0.918712,2.052 -2.052,2.052 -1.133289,0 -2.052,-0.918711 -2.052,-2.052 0,-1.133288 0.918711,-2.052 2.052,-2.052 1.133288,0 2.052,0.918712 2.052,2.052 z" style="fill:none;stroke:#f5bd18;stroke-width:1.22399998" gorn="0.3.0.0.0.0.0.0.0.3.0.0.0" cx="17.999001" r="2.052"/>
                                            </g>
                                        </g>
                                    </g>
                                </g>
                            </g>
                        </g>
                    </g>
                </g>
            </g>
        </g>
    </g>
    <g  transform="matrix(0,1.2499991,-1.2499991,0,151.90942,-164.56147)">
        <g >
            <g >
                <g  id="silkscreen" style="fill:none;stroke:#ffffff;stroke-width:0.4000003;stroke-miterlimit:4;stroke-opacity:1;stroke-dasharray:none" gorn="0.4.0.0.0">
                    <path  id="rect3085" d="m 131.62427,121.40262 14.45001,0 0,-28.550021 -14.45001,0 0,4.825004 2.275,0 0,18.925017 -2.275,0 0,4.8 z" style="opacity:0.62962964;fill:none;stroke:#ffffff;stroke-width:0.4000003;stroke-miterlimit:4;stroke-opacity:1;stroke-dasharray:none" gorn="0.4.0.0.0.0"/>
                </g>
            </g>
        </g>
    </g>
</svg>
