<svg xmlns="http://www.w3.org/2000/svg" width="67.2" height="72.48" x="0" y="0" baseProfile="tiny" version="1.2" viewBox="0 0 50.4 54.36"><desc><referenceFile>Adafruit_BMP180_pcb.svg</referenceFile></desc><desc>Fritzing footprint generated by brd2svg</desc><g id="silkscreen" gorn=".1"><path fill="none" stroke="#fff" stroke-width=".576" d="M42.9943,54.072L7.4057,54.072A6.912,6.912,0,0,1,0.288,46.9483L0.288,7.41168A6.912,6.912,0,0,1,7.4057,0.288L42.9943,0.288A6.912,6.912,0,0,1,50.112,7.41168L50.112,46.9483A6.912,6.912,0,0,1,42.9943,54.072"/><g><title>element:JP1</title><g><title>package:1X05_ROUND_70</title></g></g><g><title>element:U3</title><g><title>package:BMP180_EXTENDED</title><line x1="30.728" x2="30.728" y1="15.789" y2="27.411" stroke="#fff" stroke-linecap="round" stroke-width=".36"/><line x1="30.728" x2="19.672" y1="27.411" y2="27.411" stroke="#fff" stroke-linecap="round" stroke-width=".36"/><line x1="19.672" x2="19.672" y1="27.411" y2="15.789" stroke="#fff" stroke-linecap="round" stroke-width=".36"/><line x1="19.672" x2="30.728" y1="15.789" y2="15.789" stroke="#fff" stroke-linecap="round" stroke-width=".36"/><circle cx="20.948" cy="13.238" r=".567" fill="none" stroke="#fff" stroke-width=".992"/></g></g></g><g id="copper1" gorn=".2"><g id="copper0" gorn="0.2.0"><circle id="connector4pad" cx="10.8" cy="50.4" r="1.969" fill="none" stroke="#F7BD13" stroke-width="1.103" connectorname="+5V" gorn="0.2.0.0"/><rect width="3.937" height="3.937" x="8.831" y="48.431" fill="none" stroke="#F7BD13" stroke-width="1.103"/><circle id="connector5pad" cx="18" cy="50.4" r="1.969" fill="none" stroke="#F7BD13" stroke-width="1.103" connectorname="+3V3" gorn="0.2.0.2"/><circle id="connector6pad" cx="25.2" cy="50.4" r="1.969" fill="none" stroke="#F7BD13" stroke-width="1.103" connectorname="GND" gorn="0.2.0.3"/><circle id="connector7pad" cx="32.4" cy="50.4" r="1.969" fill="none" stroke="#F7BD13" stroke-width="1.103" connectorname="SCL_5.0V" gorn="0.2.0.4"/><circle id="connector8pad" cx="39.6" cy="50.4" r="1.969" fill="none" stroke="#F7BD13" stroke-width="1.103" connectorname="SDA_5.0V" gorn="0.2.0.5"/></g></g></svg>