<svg xmlns="http://www.w3.org/2000/svg" xmlns:svg="http://www.w3.org/2000/svg" id="Ebene_1" width="297.6" height="72.914" x="0" y="0" enable-background="new 0 0 154.08 37.908" gorn="0" version="1.1" viewBox="0 0 3100 759.523" xml:space="preserve"><metadata id="metadata206"/><desc id="desc2"><referenceFile>18650-battery-holder-alt_1_breadboard.svg</referenceFile></desc><g id="breadboard"><path id="path8" fill="#1a1a1a" stroke-width="14.217" d="M 41.437404,19.468738 C 41.437404,7.9791258 64.150156,0 84.097117,0 H 3057.3211 c 28.2442,0 42.6598,6.5351951 42.6598,19.468738 V 736.83877 c 0,10.27033 -17.5792,19.4605 -42.6598,19.4605 H 84.097117 c -23.110253,0 -42.659713,-7.74711 -42.659713,-19.46935 z" gorn=".7"/><path id="path90" fill="none" stroke="#c9c9c9" stroke-width="18.515" d="m 3052.8304,399.99997 2.7289,209.52709 c 0.182,14.02296 -8.0508,25.64136 -17.9014,25.64136 -9.8502,0 -17.8444,-11.6172 -17.8444,-25.64136 l -18.9431,-463.7395 c 0,-14.0968 -8.1077,-25.6414 -17.9012,-25.6414 -9.7938,0 -17.9014,11.5446 -17.9014,25.6414 l -18.9432,359.27248 c 0,14.09669 -8.0697,25.65949 -17.8444,25.65949 -9.8695,0 -17.8824,-11.5628 -17.8824,-25.65949 V 222.76613" gorn=".8"/><rect id="rect92" width="61.168" height="285.659" x="-157.217" y="-535.081" fill="#c9c9c9" stroke-width="14.217" gorn=".12" transform="scale(-1)"/><path id="path95" fill="#353535" stroke-width="14.217" d="m 211.07124,95.264273 c 0,-42.362893 36.2383,-76.943674 80.54637,-76.943674 H 2820.7586 c 44.3082,0 80.5464,34.580781 80.5464,76.943674 V 659.52536 c 0,42.30841 -36.2382,76.94367 -80.5464,76.94367 H 291.59852 c -44.30809,0 -80.54628,-34.63526 -80.54628,-76.94367 l 0.0153,-564.261087 v 0 z" gorn=".13"/><path id="path97" fill="#ce925d" stroke-width="29.044" d="M 2800,735.27395 H 496.22806 c -145.97936,0 -265.37112,-34.58082 -265.37112,-76.94229 V 93.942176 c 0,-42.307087 119.39176,-76.942285 265.37112,-76.942285 H 2800 Z" gorn=".14"/><path id="path99" stroke-width="14.217" d="m 2814.659,47.725991 c 33.34,0 75.8863,29.496086 75.8863,64.456669 v 161.50466 c 0,-34.99689 -42.5463,-89.84538 -75.8863,-89.84538 H 303.85502 c -33.35909,0 -75.88658,54.84849 -75.88658,89.84538 V 112.16447 c 0,-34.996893 42.52749,-64.456687 75.88658,-64.456687 H 2814.659 Z" enable-background="new" gorn=".15" opacity=".35"/><path id="path101" fill="#b2b2b2" stroke-width="14.217" d="m 213.34434,382.15418 c 0,-160.85405 6.40281,-291.215115 14.34,-291.215115 7.9372,0 7.9372,582.412195 0,582.412195 -7.93719,0 -14.34,-130.38064 -14.34,-291.19708" gorn=".16"/><path id="path103" fill="#7c7c7c" stroke-width="14.217" d="m 218.70524,282.88081 c 5.24741,0 5.24741,215.19434 0,215.19434 h 0.15195 c 0,-13.2646 -11.2522,-24.01351 -25.15639,-24.01351 h -11.366 c -13.8663,0 -25.13769,-10.74879 -25.13769,-24.03029 V 331.03339 c 0,-13.21019 11.27139,-24.03158 25.13769,-24.03158 h 11.366 c 13.90419,0 25.15639,-10.74881 25.15639,-23.994 l -0.15195,-0.13959 v 0 z" gorn=".17"/><path id="path105" fill="#fff" stroke-width="14.217" d="m 289.19292,524.33223 c 0,-25.64139 29.17249,-46.43399 65.16448,-46.43399 H 2766.316 c 35.9353,0 65.1266,18.9832 65.1266,44.6428 v 139.9888 c 0,25.65952 -29.1725,48.27966 -65.1266,48.27966 H 354.3762 c -35.99179,0 -65.16428,-20.81075 -65.16428,-46.47028 V 524.33223 Z" enable-background="new" gorn=".18" opacity=".35"/><path id="path109" fill="#fff" stroke-width="18.515" d="m 2893.8414,759.52337 -9.68,-3.43867 c 0,0 0,-12.79417 -21.5193,-26.40227 -12.9003,-8.12409 -23.6032,-11.67166 -39.4967,-18.94553 -15.9121,-7.23894 -38.5491,-8.79423 -57.8903,-8.79423 -5.3419,0 -496.1407,0 -501.5774,0 -19.3409,0 -41.9211,1.55529 -57.8146,8.79423 -15.9311,7.27387 -26.6719,10.82144 -39.4964,18.94553 -21.5952,13.6081 -21.5763,26.40227 -21.5763,26.40227 l -9.4905,3.40238 z" enable-background="new" gorn="0.25.0.0.0.0.0.1" opacity=".2"/><path id="path113" fill="#fff" stroke-width="18.515" d="m 1005.8511,759.52337 -9.68,-3.43867 c 0,0 0,-12.79417 -21.51949,-26.40227 -12.9004,-8.12409 -23.58419,-11.67166 -39.49649,-18.94553 -15.96919,-7.23894 -38.54939,-8.79423 -57.89038,-8.79423 -5.342,0 -496.15965,0 -501.59645,0 -19.34099,0 -41.92109,1.55529 -57.83327,8.79423 -15.93131,7.27387 -26.6532,10.82144 -39.53459,18.94553 -21.55729,13.6081 -21.5384,26.40227 -21.5384,26.40227 l -9.49049,3.40238 z" enable-background="new" gorn="0.26.0.0.0.0.0.1" opacity=".2"/><text id="text115" x="1050.127" y="487.541" fill="#f9f9f9" stroke-width="1" font-family="'Droid Sans'" font-size="227.488">18650 battery</text><rect id="connector0pin" width="100" height="100" x="3000" y="350.071" fill="#c9c9c9" stroke-width="1"/><rect id="connector1pin" width="100" height="100" x="0" y="350.071" fill="#c9c9c9" stroke-width="1"/></g></svg>