<svg xmlns="http://www.w3.org/2000/svg" id="svg6398" width="67.2" height="72.48" x="0" y="0" gorn="0" version="1.2" viewBox="0 0 50.4 54.36"><desc><referenceFile>Adafruit_BMP180_breadboard.svg</referenceFile></desc><metadata id="metadata6842"/><desc id="desc6400">Fritzing breadboard generated by brd2svg</desc><g id="breadboard" gorn=".3"><g id="icon" gorn="0.3.0"><path id="path6404" fill="#014cb1" stroke="none" stroke-width="0" d="M43.2,54.36L7.2,54.36A7.2,7.2,0,0,1,0,47.16L0,7.2A7.2,7.2,0,0,1,7.2,0L43.2,0A7.2,7.2,0,0,1,50.4,7.2L50.4,47.16A7.2,7.2,0,0,1,43.2,54.36M9.38268,50.4a1.41732,1.41732,0,1,0,2.83465,0,1.41732,1.41732,0,1,0,-2.83465,0zM16.5827,50.4a1.41732,1.41732,0,1,0,2.83465,0,1.41732,1.41732,0,1,0,-2.83465,0zM23.7827,50.4a1.41732,1.41732,0,1,0,2.83465,0,1.41732,1.41732,0,1,0,-2.83465,0zM30.9827,50.4a1.41732,1.41732,0,1,0,2.83465,0,1.41732,1.41732,0,1,0,-2.83465,0zM38.1827,50.4a1.41732,1.41732,0,1,0,2.83465,0,1.41732,1.41732,0,1,0,-2.83465,0zM4.08189,7.56a3.11811,3.11811,0,1,0,6.23622,0,3.11811,3.11811,0,1,0,-6.23622,0zM40.0819,7.56a3.11811,3.11811,0,1,0,6.23622,0,3.11811,3.11811,0,1,0,-6.23622,0z" gorn="0.3.0.0"/><g id="g6406" gorn="0.3.0.1"><title id="title6408">layer 21</title><g id="g6410" gorn="0.3.0.1.1"><title id="title6412">text:BMP180</title><text id="text6414" x="18" y="4.32" fill="#fff" stroke="none" stroke-width="0" font-family="OCRA" font-size="3.341" gorn="0.3.0.1.1.1" text-anchor="start">BMP180</text></g><g id="g6416" gorn="0.3.0.1.2"><title id="title6418">text:PRESSURE</title><text id="text6420" x="15.48" y="8.28" fill="#fff" stroke="none" stroke-width="0" font-family="OCRA" font-size="3.341" gorn="0.3.0.1.2.1" text-anchor="start">PRESSURE</text></g><g id="g6422" gorn="0.3.0.1.3"><title id="title6424">text:SENSOR</title><text id="text6426" x="18" y="11.88" fill="#fff" stroke="none" stroke-width="0" font-family="OCRA" font-size="3.341" gorn="0.3.0.1.3.1" text-anchor="start">SENSOR</text></g><g id="g6428" gorn="0.3.0.1.4"><title id="title6430">text:VIN</title><g transform="matrix(1, 0, 0, 1, 12.24, 46.8)"><g id="g6432" gorn="0.3.0.1.4.1.0"><g transform="rotate(270)"><g id="g6434" gorn="0.3.0.1.4.1.0.0.0"><text id="text6436" x="0" y="0" fill="#fff" stroke="none" stroke-width="0" font-family="OCRA" font-size="3.341" gorn="0.3.0.1.4.1.0.0.0.0" text-anchor="start">VIN</text></g></g></g></g></g><g id="g6438" gorn="0.3.0.1.5"><title id="title6440">text:3Vo</title><g transform="matrix(1, 0, 0, 1, 19.44, 46.8)"><g id="g6442" gorn="0.3.0.1.5.1.0"><g transform="rotate(270)"><g id="g6444" gorn="0.3.0.1.5.1.0.0.0"><text id="text6446" x="0" y="0" fill="#fff" stroke="none" stroke-width="0" font-family="OCRA" font-size="3.341" gorn="0.3.0.1.5.1.0.0.0.0" text-anchor="start">3Vo</text></g></g></g></g></g><g id="g6448" gorn="0.3.0.1.6"><title id="title6450">text:GND</title><g transform="matrix(1, 0, 0, 1, 26.28, 46.8)"><g id="g6452" gorn="0.3.0.1.6.1.0"><g transform="rotate(270)"><g id="g6454" gorn="0.3.0.1.6.1.0.0.0"><text id="text6456" x="0" y="0" fill="#fff" stroke="none" stroke-width="0" font-family="OCRA" font-size="3.341" gorn="0.3.0.1.6.1.0.0.0.0" text-anchor="start">GND</text></g></g></g></g></g><g id="g6458" gorn="0.3.0.1.7"><title id="title6460">text:SCL</title><g transform="matrix(1, 0, 0, 1, 33.12, 46.8)"><g id="g6462" gorn="0.3.0.1.7.1.0"><g transform="rotate(270)"><g id="g6464" gorn="0.3.0.1.7.1.0.0.0"><text id="text6466" x="0" y="0" fill="#fff" stroke="none" stroke-width="0" font-family="OCRA" font-size="3.341" gorn="0.3.0.1.7.1.0.0.0.0" text-anchor="start">SCL</text></g></g></g></g></g><g id="g6468" gorn="0.3.0.1.8"><title id="title6470">text:SDA</title><g transform="matrix(1, 0, 0, 1, 40.68, 46.8)"><g id="g6472" gorn="0.3.0.1.8.1.0"><g transform="rotate(270)"><g id="g6474" gorn="0.3.0.1.8.1.0.0.0"><text id="text6476" x="0" y="0" fill="#fff" stroke="none" stroke-width="0" font-family="OCRA" font-size="3.341" gorn="0.3.0.1.8.1.0.0.0.0" text-anchor="start">SDA</text></g></g></g></g></g><g id="g6478" gorn="0.3.0.1.9"><title id="title6480">element:C1</title><g id="g6482" gorn="0.3.0.1.9.1"><title id="title6484">package:0805-NO</title><line id="line6486" x1="8.28" x2="8.28" y1="17.64" y2="20.52" stroke="#fff" stroke-linecap="round" stroke-width=".864" gorn="0.3.0.1.9.1.1"/></g></g><g id="g6488" gorn="0.3.0.1.10"><title id="title6490">element:C2</title><g id="g6492" gorn="0.3.0.1.10.1"><title id="title6494">package:0805-NO</title><line id="line6496" x1="7.92" x2="7.92" y1="38.16" y2="35.28" stroke="#fff" stroke-linecap="round" stroke-width=".864" gorn="0.3.0.1.10.1.1"/></g></g><g id="g6498" gorn="0.3.0.1.11"><title id="title6500">element:JP1</title><g id="g6502" gorn="0.3.0.1.11.1"><title id="title6504">package:1X05_ROUND_70</title></g></g><g id="g6506" gorn="0.3.0.1.12"><title id="title6508">element:Q1</title><g id="g6510" gorn="0.3.0.1.12.1"><title id="title6512">package:SOT23</title></g></g><g id="g6514" gorn="0.3.0.1.13"><title id="title6516">element:Q2</title><g id="g6518" gorn="0.3.0.1.13.1"><title id="title6520">package:SOT23</title></g></g><g id="g6522" gorn="0.3.0.1.14"><title id="title6524">element:R1</title><g id="g6526" gorn="0.3.0.1.14.1"><title id="title6528">package:0805-NO</title><line id="line6530" x1="45.36" x2="42.48" y1="34.2" y2="34.2" stroke="#fff" stroke-linecap="round" stroke-width=".864" gorn="0.3.0.1.14.1.1"/></g></g><g id="g6532" gorn="0.3.0.1.15"><title id="title6534">element:R2</title><g id="g6536" gorn="0.3.0.1.15.1"><title id="title6538">package:_0805MP</title><line id="line6540" x1="14.4" x2="17.28" y1="34.2" y2="34.2" stroke="#fff" stroke-linecap="round" stroke-width=".576" gorn="0.3.0.1.15.1.1"/></g></g><g id="g6542" gorn="0.3.0.1.16"><title id="title6544">element:R3</title><g id="g6546" gorn="0.3.0.1.16.1"><title id="title6548">package:0805-NO</title><line id="line6550" x1="21.24" x2="24.12" y1="34.2" y2="34.2" stroke="#fff" stroke-linecap="round" stroke-width=".864" gorn="0.3.0.1.16.1.1"/></g></g><g id="g6552" gorn="0.3.0.1.17"><title id="title6554">element:R4</title><g id="g6556" gorn="0.3.0.1.17.1"><title id="title6558">package:0805-NO</title><line id="line6560" x1="37.44" x2="37.44" y1="18" y2="15.12" stroke="#fff" stroke-linecap="round" stroke-width=".864" gorn="0.3.0.1.17.1.1"/></g></g><g id="g6562" gorn="0.3.0.1.18"><title id="title6564">element:U$1</title><g id="g6566" gorn="0.3.0.1.18.1"><title id="title6568">package:FIDUCIAL_1MM</title></g></g><g id="g6570" gorn="0.3.0.1.19"><title id="title6572">element:U$2</title><g id="g6574" gorn="0.3.0.1.19.1"><title id="title6576">package:ADAFRUIT_2.5MM</title></g></g><g id="g6578" gorn="0.3.0.1.20"><title id="title6580">element:U$5</title><g id="g6582" gorn="0.3.0.1.20.1"><title id="title6584">package:FIDUCIAL_1MM</title></g></g><g id="g6586" gorn="0.3.0.1.21"><title id="title6588">element:U$6</title><g id="g6590" gorn="0.3.0.1.21.1"><title id="title6592">package:ADAFRUIT_2.5MM</title></g></g><g id="g6594" gorn="0.3.0.1.22"><title id="title6596">element:U$7</title><g id="g6598" gorn="0.3.0.1.22.1"><title id="title6600">package:MOUNTINGHOLE_2.0_PLATED</title><circle id="circle6602" cx="7.2" cy="7.56" r="5.102" fill="none" stroke="#fff" stroke-width=".576" gorn="0.3.0.1.22.1.1"/></g></g><g id="g6604" gorn="0.3.0.1.23"><title id="title6606">element:U$8</title><g id="g6608" gorn="0.3.0.1.23.1"><title id="title6610">package:MOUNTINGHOLE_2.0_PLATED</title><circle id="circle6612" cx="43.2" cy="7.56" r="5.102" fill="none" stroke="#fff" stroke-width=".576" gorn="0.3.0.1.23.1.1"/></g></g><g id="g6614" gorn="0.3.0.1.24"><title id="title6616">element:U$15</title><g id="g6618" gorn="0.3.0.1.24.1"><title id="title6620">package:FIDUCIAL_1MM</title></g></g><g id="g6622" gorn="0.3.0.1.25"><title id="title6624">element:U2</title><g id="g6626" gorn="0.3.0.1.25.1"><title id="title6628">package:SOT23-5</title><line id="line6630" x1="3.243" x2="3.243" y1="25.452" y2="29.988" stroke="#fff" stroke-linecap="round" stroke-width=".576" gorn="0.3.0.1.25.1.1"/><line id="line6632" x1="12.597" x2="12.597" y1="25.452" y2="29.988" stroke="#fff" stroke-linecap="round" stroke-width=".576" gorn="0.3.0.1.25.1.2"/><line id="line6634" x1="6.786" x2="9.054" y1="24.744" y2="24.744" stroke="#fff" stroke-linecap="round" stroke-width=".576" gorn="0.3.0.1.25.1.3"/></g></g><g id="g6636" gorn="0.3.0.1.26"><title id="title6638">element:U3</title><g id="g6640" gorn="0.3.0.1.26.1"><title id="title6642">package:BMP180_EXTENDED</title><line id="line6644" x1="30.728" x2="30.728" y1="15.789" y2="27.411" stroke="#fff" stroke-linecap="round" stroke-width=".36" gorn="0.3.0.1.26.1.1"/><line id="line6646" x1="30.728" x2="19.672" y1="27.411" y2="27.411" stroke="#fff" stroke-linecap="round" stroke-width=".36" gorn="0.3.0.1.26.1.2"/><line id="line6648" x1="19.672" x2="19.672" y1="27.411" y2="15.789" stroke="#fff" stroke-linecap="round" stroke-width=".36" gorn="0.3.0.1.26.1.3"/><line id="line6650" x1="19.672" x2="30.728" y1="15.789" y2="15.789" stroke="#fff" stroke-linecap="round" stroke-width=".36" gorn="0.3.0.1.26.1.4"/><circle id="circle6652" cx="20.948" cy="13.238" r=".567" fill="none" stroke="#fff" stroke-width=".992" gorn="0.3.0.1.26.1.5"/></g></g></g><rect id="connector0pin" width="3.685" height="4.252" x="3.745" y="16.954" fill="#9A916C" stroke="none" stroke-width="0" gorn="0.3.0.2"/><rect id="connector1pin" width="3.685" height="4.252" x="9.13" y="16.954" fill="#9A916C" stroke="none" stroke-width="0" gorn="0.3.0.3"/><g transform="matrix(-1, 0, 0, -1, 21.2258, 73.44)"><g id="g6656" gorn="0.3.0.4.0"><rect id="connector2pin" width="3.685" height="4.252" x="8.77" y="34.594" fill="#9A916C" stroke="none" stroke-width="0" gorn="0.3.0.4.0.0"/></g></g><g transform="matrix(-1, 0, 0, -1, 10.4542, 73.44)"><g id="g6659" gorn="0.3.0.5.0"><rect id="connector3pin" width="3.685" height="4.252" x="3.385" y="34.594" fill="#9A916C" stroke="none" stroke-width="0" gorn="0.3.0.5.0.0"/></g></g><circle id="connector4pin" cx="10.8" cy="50.4" r="1.969" fill="none" stroke="#9A916C" stroke-width="1.103" connectorname="+5V" gorn="0.3.0.6"/><rect id="rect6663" width="3.937" height="3.937" x="8.831" y="48.431" fill="none" stroke="#9A916C" stroke-width="1.103" gorn="0.3.0.7"/><circle id="connector5pin" cx="18" cy="50.4" r="1.969" fill="none" stroke="#9A916C" stroke-width="1.103" connectorname="+3V3" gorn="0.3.0.8"/><circle id="connector6pin" cx="25.2" cy="50.4" r="1.969" fill="none" stroke="#9A916C" stroke-width="1.103" connectorname="GND" gorn="0.3.0.9"/><circle id="connector7pin" cx="32.4" cy="50.4" r="1.969" fill="none" stroke="#9A916C" stroke-width="1.103" connectorname="SCL_5.0V" gorn="0.3.0.10"/><circle id="connector8pin" cx="39.6" cy="50.4" r="1.969" fill="none" stroke="#9A916C" stroke-width="1.103" connectorname="SDA_5.0V" gorn="0.3.0.11"/><g transform="matrix(0, -1, 1, 0, -2.8148, 71.691)"><g id="g6669" gorn="0.3.0.12.0"><rect id="connector9pin" width="2.835" height="3.969" x="33.021" y="35.269" fill="#9A916C" stroke="none" stroke-width="0" gorn="0.3.0.12.0.0"/></g></g><g transform="matrix(0, -1, 1, 0, 2.57103, 66.3052)"><g id="g6672" gorn="0.3.0.13.0"><rect id="connector10pin" width="2.835" height="3.969" x="33.021" y="29.883" fill="#9A916C" stroke="none" stroke-width="0" gorn="0.3.0.13.0.0"/></g></g><g transform="matrix(0, -1, 1, 0, -6.35811, 62.7619)"><g id="g6675" gorn="0.3.0.14.0"><rect id="connector11pin" width="2.835" height="3.969" x="26.785" y="32.576" fill="#9A916C" stroke="none" stroke-width="0" gorn="0.3.0.14.0.0"/></g></g><g transform="matrix(-1, 0, 0, -1, 83.1456, 43.4438)"><g id="g6678" gorn="0.3.0.15.0"><rect id="connector12pin" width="2.835" height="3.969" x="40.156" y="19.738" fill="#9A916C" stroke="none" stroke-width="0" gorn="0.3.0.15.0.0"/></g></g><g transform="matrix(-1, 0, 0, -1, 72.3744, 43.4438)"><g id="g6681" gorn="0.3.0.16.0"><rect id="connector13pin" width="2.835" height="3.969" x="34.77" y="19.738" fill="#9A916C" stroke="none" stroke-width="0" gorn="0.3.0.16.0.0"/></g></g><g transform="matrix(-1, 0, 0, -1, 77.76, 55.9162)"><g id="g6684" gorn="0.3.0.17.0"><rect id="connector14pin" width="2.835" height="3.969" x="37.463" y="25.974" fill="#9A916C" stroke="none" stroke-width="0" gorn="0.3.0.17.0.0"/></g></g><g transform="matrix(0, 1, -1, 0, 75.4272, -12.4129)"><g id="g6687" gorn="0.3.0.18.0"><rect id="connector15pin" width="3.685" height="4.252" x="42.077" y="29.381" fill="#9A916C" stroke="none" stroke-width="0" gorn="0.3.0.18.0.0"/></g></g><g transform="matrix(0, 1, -1, 0, 80.8128, -7.02708)"><g id="g6690" gorn="0.3.0.19.0"><rect id="connector16pin" width="3.685" height="4.252" x="42.077" y="34.767" fill="#9A916C" stroke="none" stroke-width="0" gorn="0.3.0.19.0.0"/></g></g><g transform="matrix(0, -1, 1, 0, -21.24, 52.92)"><g id="g6693" gorn="0.3.0.20.0"><rect id="connector17pin" width="3.402" height="3.685" x="14.139" y="35.237" fill="#9A916C" stroke="none" stroke-width="0" gorn="0.3.0.20.0.0"/></g></g><g transform="matrix(0, -1, 1, 0, -15.48, 47.16)"><g id="g6696" gorn="0.3.0.21.0"><rect id="connector18pin" width="3.402" height="3.685" x="14.139" y="29.477" fill="#9A916C" stroke="none" stroke-width="0" gorn="0.3.0.21.0.0"/></g></g><g transform="matrix(0, -1, 1, 0, -14.2129, 59.5729)"><g id="g6699" gorn="0.3.0.22.0"><rect id="connector19pin" width="3.685" height="4.252" x="20.837" y="34.767" fill="#9A916C" stroke="none" stroke-width="0" gorn="0.3.0.22.0.0"/></g></g><g transform="matrix(0, -1, 1, 0, -8.82706, 54.1871)"><g id="g6702" gorn="0.3.0.23.0"><rect id="connector20pin" width="3.685" height="4.252" x="20.837" y="29.381" fill="#9A916C" stroke="none" stroke-width="0" gorn="0.3.0.23.0.0"/></g></g><g transform="matrix(-1, 0, 0, -1, 80.2656, 33.12)"><g id="g6705" gorn="0.3.0.24.0"><rect id="connector21pin" width="3.685" height="4.252" x="38.29" y="14.434" fill="#9A916C" stroke="none" stroke-width="0" gorn="0.3.0.24.0.0"/></g></g><g transform="matrix(-1, 0, 0, -1, 69.4942, 33.12)"><g id="g6708" gorn="0.3.0.25.0"><rect id="connector22pin" width="3.685" height="4.252" x="32.905" y="14.434" fill="#9A916C" stroke="none" stroke-width="0" gorn="0.3.0.25.0.0"/></g></g><rect id="connector23pin" width="2.835" height="2.835" x="2.903" y="47.183" fill="#9A916C" stroke="none" stroke-width="0" gorn="0.3.0.26" rx="1.417" ry="1.417"/><rect id="connector24pin" width="2.835" height="2.835" x="15.143" y="16.943" fill="#9A916C" stroke="none" stroke-width="0" gorn="0.3.0.27" rx="1.417" ry="1.417"/><circle id="connector25pin" cx="7.2" cy="7.56" r="3.838" fill="none" stroke="#9A916C" stroke-width="1.44" connectorname="P$1" gorn="0.3.0.28"/><circle id="connector26pin" cx="43.2" cy="7.56" r="3.838" fill="none" stroke="#9A916C" stroke-width="1.44" connectorname="P$1" gorn="0.3.0.29"/><rect id="connector27pin" width="2.835" height="2.835" x="45.383" y="14.063" fill="#9A916C" stroke="none" stroke-width="0" gorn="0.3.0.30" rx="1.417" ry="1.417"/><rect id="connector28pin" width="1.559" height="3.402" x="4.448" y="29.704" fill="#9A916C" stroke="none" stroke-width="0" gorn="0.3.0.31"/><rect id="connector29pin" width="1.559" height="3.402" x="7.14" y="29.704" fill="#9A916C" stroke="none" stroke-width="0" gorn="0.3.0.32"/><rect id="connector30pin" width="1.559" height="3.402" x="9.833" y="29.704" fill="#9A916C" stroke="none" stroke-width="0" gorn="0.3.0.33"/><rect id="connector31pin" width="1.559" height="3.402" x="9.833" y="22.334" fill="#9A916C" stroke="none" stroke-width="0" gorn="0.3.0.34"/><rect id="connector32pin" width="1.559" height="3.402" x="4.448" y="22.334" fill="#9A916C" stroke="none" stroke-width="0" gorn="0.3.0.35"/><g transform="matrix(0, 1, -1, 0, 37.5874, -4.59212)"><g id="g6721" gorn="0.3.0.36.0"><rect id="connector33pin" width="3.402" height="1.417" x="19.389" y="15.789" fill="#9A916C" stroke="none" stroke-width="0" gorn="0.3.0.36.0.0"/></g></g><g transform="matrix(0, 1, -1, 0, 41.8393, 1.36063)"><g id="g6724" gorn="0.3.0.37.0"><rect id="connector34pin" width="1.701" height="3.118" x="19.389" y="20.041" fill="#9A916C" stroke="none" stroke-width="0" gorn="0.3.0.37.0.0"/></g></g><g transform="matrix(0, 1, -1, 0, 47.7922, 5.6126)"><g id="g6727" gorn="0.3.0.38.0"><rect id="connector35pin" width="3.402" height="1.417" x="19.389" y="25.994" fill="#9A916C" stroke="none" stroke-width="0" gorn="0.3.0.38.0.0"/></g></g><g transform="matrix(0, 1, -1, 0, 56.0126, -2.60788)"><g id="g6730" gorn="0.3.0.39.0"><rect id="connector36pin" width="3.402" height="1.417" x="27.61" y="25.994" fill="#9A916C" stroke="none" stroke-width="0" gorn="0.3.0.39.0.0"/></g></g><g transform="matrix(0, 1, -1, 0, 51.7607, -8.56066)"><g id="g6733" gorn="0.3.0.40.0"><rect id="connector37pin" width="1.701" height="3.118" x="29.31" y="20.041" fill="#9A916C" stroke="none" stroke-width="0" gorn="0.3.0.40.0.0"/></g></g><g transform="matrix(0, 1, -1, 0, 45.8078, -12.8126)"><g id="g6736" gorn="0.3.0.41.0"><rect id="connector38pin" width="3.402" height="1.417" x="27.61" y="15.789" fill="#9A916C" stroke="none" stroke-width="0" gorn="0.3.0.41.0.0"/></g></g><g transform="matrix(0, 1, -1, 0, 41.6976, -8.70235)"><g id="g6739" gorn="0.3.0.42.0"><rect id="connector39pin" width="3.118" height="1.701" x="23.641" y="15.647" fill="#9A916C" stroke="none" stroke-width="0" gorn="0.3.0.42.0.0"/></g></g></g><g transform="matrix(1, 0, 0, 1, 5.4455, 17.3085)"><g id="0805-cap" gorn="0.3.1.0"><path id="path6743" fill="#DCDCDC" d="M5.386,3.543L0.283,3.543C0.127,3.543,0,3.416,0,3.26L0,0.283C0,0.127,0.127,0,0.283,0l5.102,0c0.157,0,0.283,0.127,0.283,0.283L5.668,3.26C5.669,3.416,5.542,3.543,5.386,3.543z" gorn="0.3.1.0.0"/><rect id="rect6745" width="3.543" height="3.543" x="1.063" fill="#6E554B" gorn="0.3.1.0.1"/></g></g><g transform="matrix(1, 0, 0, 1, 5.0855, 34.9485)"><g id="g6747" gorn="0.3.2.0"><g transform="matrix(-1, 0, 0, -1, 5.669, 3.543)"><g id="g6749" gorn="0.3.2.0.0.0"><path id="path6751" fill="#DCDCDC" d="M5.386,3.543L0.283,3.543C0.127,3.543,0,3.416,0,3.26L0,0.283C0,0.127,0.127,0,0.283,0l5.102,0c0.157,0,0.283,0.127,0.283,0.283L5.668,3.26C5.669,3.416,5.542,3.543,5.386,3.543z" gorn="0.3.2.0.0.0.0"/><rect id="rect6753" width="3.543" height="3.543" x="1.063" fill="#6E554B" gorn="0.3.2.0.0.0.1"/></g></g></g></g><g transform="matrix(1, 0, 0, 1, 27.068, 30.733)"><g id="sot23" gorn="0.3.3.0"><g transform="matrix(0, -1, 1, 0, 0.42498, 8.07898)"><g id="g6756" gorn="0.3.3.0.0.0"><g id="g6758" gorn="0.3.3.0.0.0.0"><rect id="rect6760" width="1.417" height="2.976" x=".85" y="4.677" fill="#DCDCDC" gorn="0.3.3.0.0.0.0.0"/><rect id="rect6762" width="1.417" height="2.976" x="6.236" y="4.677" fill="#DCDCDC" gorn="0.3.3.0.0.0.0.1"/><rect id="rect6764" width="1.417" height="3.118" x="3.543" fill="#DCDCDC" gorn="0.3.3.0.0.0.0.2"/><rect id="rect6766" width="8.504" height="3.685" y="1.984" fill="#303030" gorn="0.3.3.0.0.0.0.3"/></g></g></g></g></g><g transform="matrix(1, 0, 0, 1, 34.628, 21.013)"><g id="g6768" gorn="0.3.4.0"><g transform="matrix(-1, 0, 0, -1, 8.50399, 7.65403)"><g id="g6770" gorn="0.3.4.0.0.0"><g id="g6772" gorn="0.3.4.0.0.0.0"><rect id="rect6774" width="1.417" height="2.976" x=".85" y="4.677" fill="#DCDCDC" gorn="0.3.4.0.0.0.0.0"/><rect id="rect6776" width="1.417" height="2.976" x="6.236" y="4.677" fill="#DCDCDC" gorn="0.3.4.0.0.0.0.1"/><rect id="rect6778" width="1.417" height="3.118" x="3.543" fill="#DCDCDC" gorn="0.3.4.0.0.0.0.2"/><rect id="rect6780" width="8.504" height="3.685" y="1.984" fill="#303030" gorn="0.3.4.0.0.0.0.3"/></g></g></g></g></g><g transform="matrix(1, 0, 0, 1, 41.0855, 32.4285)"><g id="0805-res" gorn="0.3.5.0"><g transform="matrix(0, 1, -1, 0, 4.606, -1.063)"><g id="g6783" gorn="0.3.5.0.0.0"><path id="path6785" fill="#DCDCDC" d="M5.386,3.543L0.283,3.543C0.127,3.543,0,3.416,0,3.26L0,0.283C0,0.127,0.127,0,0.283,0l5.102,0c0.157,0,0.283,0.127,0.283,0.283L5.668,3.26C5.669,3.416,5.542,3.543,5.386,3.543z" gorn="0.3.5.0.0.0.0"/><rect id="rect6787" width="3.543" height="3.543" x="1.063" fill="#333" gorn="0.3.5.0.0.0.1"/></g></g></g></g><g transform="matrix(1, 0, 0, 1, 13.0055, 32.4285)"><g id="g6789" gorn="0.3.6.0"><g transform="matrix(0, -1, 1, 0, 1.063, 4.606)"><g id="g6791" gorn="0.3.6.0.0.0"><path id="path6793" fill="#DCDCDC" d="M5.386,3.543L0.283,3.543C0.127,3.543,0,3.416,0,3.26L0,0.283C0,0.127,0.127,0,0.283,0l5.102,0c0.157,0,0.283,0.127,0.283,0.283L5.668,3.26C5.669,3.416,5.542,3.543,5.386,3.543z" gorn="0.3.6.0.0.0.0"/><rect id="rect6795" width="3.543" height="3.543" x="1.063" fill="#333" gorn="0.3.6.0.0.0.1"/></g></g></g></g><g transform="matrix(1, 0, 0, 1, 19.8455, 32.4285)"><g id="g6797" gorn="0.3.7.0"><g transform="matrix(0, -1, 1, 0, 1.063, 4.606)"><g id="g6799" gorn="0.3.7.0.0.0"><path id="path6801" fill="#DCDCDC" d="M5.386,3.543L0.283,3.543C0.127,3.543,0,3.416,0,3.26L0,0.283C0,0.127,0.127,0,0.283,0l5.102,0c0.157,0,0.283,0.127,0.283,0.283L5.668,3.26C5.669,3.416,5.542,3.543,5.386,3.543z" gorn="0.3.7.0.0.0.0"/><rect id="rect6803" width="3.543" height="3.543" x="1.063" fill="#333" gorn="0.3.7.0.0.0.1"/></g></g></g></g><g transform="matrix(1, 0, 0, 1, 34.6055, 14.7885)"><g id="g6805" gorn="0.3.8.0"><g transform="matrix(-1, 0, 0, -1, 5.669, 3.543)"><g id="g6807" gorn="0.3.8.0.0.0"><path id="path6809" fill="#DCDCDC" d="M5.386,3.543L0.283,3.543C0.127,3.543,0,3.416,0,3.26L0,0.283C0,0.127,0.127,0,0.283,0l5.102,0c0.157,0,0.283,0.127,0.283,0.283L5.668,3.26C5.669,3.416,5.542,3.543,5.386,3.543z" gorn="0.3.8.0.0.0.0"/><rect id="rect6811" width="3.543" height="3.543" x="1.063" fill="#333" gorn="0.3.8.0.0.0.1"/></g></g></g></g><g transform="translate(40.120744,39.416639)"><g id="adafruit_2.5mm" gorn="0.3.9.0"><path id="path6814" d="M 9.747,3.082 C 9.724,2.94 9.647,2.899 9.461,2.839 9.31903,2.794 8.37202,2.492 8.37202,2.492 c 0,0 -0.66,-0.249 -1.15,0.103 C 7.156,2.643 7.088,2.697 7.019,2.755 7.077,2.686 7.131,2.618 7.178,2.552 7.53,2.062 7.279,1.402 7.279,1.402 7.279,1.402 6.976,0.455 6.93,0.313 6.87,0.127 6.83,0.05 6.687,0.028 6.545,0.005 6.483,0.066 6.369,0.225 6.282,0.345 5.702,1.153 5.702,1.153 c 0,0 -0.441,0.551 -0.257,1.126 C 5.47,2.356 5.5,2.438 5.534,2.521 5.486,2.445 5.438,2.372 5.39,2.307 5.032,1.821 4.328,1.855 4.328,1.855 c 0,0 -0.995,-0.004 -1.143,-0.004 -0.195,0 -0.281,0.014 -0.347,0.143 -0.065,0.128 -0.027,0.206 0.089,0.364 0.088,0.12 0.677,0.921002 0.677,0.921002 0,0 0.388,0.59 0.991001,0.592 0.081,0 0.168,-0.003 0.257,-0.01 C 4.765,3.883 4.681,3.907 4.604,3.932 4.031,4.122 3.845998,4.802998 3.845998,4.802998 3.845998,4.802998 3.536,5.747 3.489,5.888 3.428,6.074 3.416,6.16 3.518,6.262 3.62,6.364 3.706,6.352 3.892,6.29 4.033,6.244 4.977,5.931 4.977,5.931 c 0,0 0.681,-0.187 0.868997,-0.760003 0.025,-0.077 0.049,-0.16 0.07,-0.247 C 5.91,5.014 5.907,5.1 5.907,5.181 c 0.004,0.603 0.594,0.99 0.594,0.99 0,0 0.802001,0.588 0.922003,0.675 C 7.58102,6.962 7.659,7 7.78802,6.935 7.91597,6.869 7.93102,6.783 7.93001,6.588 7.929,6.439 7.92403,5.445 7.92403,5.445 7.92403,5.445 7.95701,4.74 7.47,4.383 7.40498,4.335 7.33198,4.287 7.25602,4.24 c 0.083,0.034 0.165,0.064 0.242,0.088 0.575,0.183 1.125,-0.259 1.125,-0.259 0,0 0.80696,-0.5809998 0.92699,-0.6679998 C 9.70898,3.286 9.76903,3.224 9.747,3.082 Z M 6.322,2.35 C 6.43,2.367 6.484,2.598 6.442,2.865 6.4,3.132 6.278,3.335 6.169,3.318 6.061,3.301 6.007,3.07 6.049,2.803 6.091,2.535 6.213,2.332 6.322,2.35 Z M 4.933,3.059 c 0.05,-0.098 0.286,-0.078 0.527,0.045 C 5.701,3.227 5.857,3.406 5.807,3.503 5.757,3.601 5.521,3.581 5.28,3.458 5.038,3.335 4.883,3.157 4.933,3.059 Z M 5.665,4.393 C 5.474,4.584 5.256,4.677 5.178,4.599 5.101,4.521 5.193,4.303 5.384,4.112 5.575,3.92 5.793,3.827 5.871,3.905 5.949,3.983 5.857,4.201 5.665,4.393 Z M 6.719,4.842 C 6.6210001,4.892 6.442,4.737 6.319,4.496 6.196,4.254 6.175,4.018 6.273,3.968 c 0.098,-0.05 0.277,0.105 0.4,0.346 0.123,0.242 0.144,0.478 0.046,0.528 z M 6.973,3.725 C 6.706,3.767 6.475,3.714 6.457,3.606 6.44,3.497 6.643,3.375 6.91,3.332 7.177,3.289 7.408,3.343 7.425,3.451 7.443,3.56 7.24003,3.682 6.973,3.725 Z" gorn="0.3.9.0.0" style="fill:#9fbbe0"/></g></g><g transform="matrix(1, 0, 0, 1, 3.80999, 23.893)"><g id="sot23-5" gorn="0.3.10.0"><g id="g6817" gorn="0.3.10.0.0"><rect id="rect6819" width="1.134" height="7.654" x=".85" fill="#DCDCDC" gorn="0.3.10.0.0.0"/><rect id="rect6821" width="1.134" height="7.654" x="6.236" fill="#DCDCDC" gorn="0.3.10.0.0.1"/><rect id="rect6823" width="1.134" height="3.118" x="3.543" y="4.535" fill="#DCDCDC" gorn="0.3.10.0.0.2"/><rect id="rect6825" width="8.22" height="4.535" y="1.559" fill="#303030" gorn="0.3.10.0.0.3"/></g></g></g><g transform="translate(19.8142,16.412337)"><g id="bmp180_extended" gorn="0.3.11.0"><g transform="matrix(0,1,-1,0,10.4882,-0.283464)"><g id="g6828" gorn="0.3.11.0.0.0"><metadata id="metadata15"><rdf:RDF xmlns:rdf="http://www.w3.org/1999/02/22-rdf-syntax-ns#"><cc:Work xmlns:cc="http://creativecommons.org/ns#" xmlns:rdf="http://www.w3.org/1999/02/22-rdf-syntax-ns#"><dc:format xmlns:dc="http://purl.org/dc/elements/1.1/">image/svg+xml</dc:format><dc:type xmlns:dc="http://purl.org/dc/elements/1.1/" xmlns:rdf="http://www.w3.org/1999/02/22-rdf-syntax-ns#" rdf:resource="http://purl.org/dc/dcmitype/StillImage"/><dc:title xmlns:dc="http://purl.org/dc/elements/1.1/"/></cc:Work></rdf:RDF></metadata><g transform="matrix(1.56238,0,0,1.44742,0,0.0288002)"><g id="g3350" gorn="0.3.11.0.0.0.2.0"><g id="g3346" gorn="0.3.11.0.0.0.2.0.0"><path id="path5" d="M 0,6.4616 0,0.548908 C 0,0.234421 0.250848,-0.019897 0.561046,-0.019897 l 5.77231,0 c 0.309406,0 0.561046,0.254318 0.561046,0.568805 l 0,5.91269 C 6.8944,6.77528 6.64356,7.0304 6.33336,7.0304 l -5.77231,0 C 0.250848,7.0296 0,6.77528 0,6.4616 Z" gorn="0.3.11.0.0.0.2.0.0.0" nodetypes="ssssssscs" style="fill:#b4b4b4"/><path id="path7" d="m 0.336311,0.548908 c 0,-0.125153 0.100498,-0.227843 0.223944,-0.227843 l 5.75227,0 c 0.123446,0 0.223944,0.10269 0.223944,0.227843 l 0,5.91269 c 0,0.125153 -0.100498,0.227843 -0.223944,0.227843 l -5.75227,0 c -0.123446,0 -0.223944,-0.10269 -0.223944,-0.227843 z" gorn="0.3.11.0.0.0.2.0.0.1" nodetypes="sssssssss" style="fill:#dcdcdc"/></g><ellipse id="circle9" cx="5.379" cy="1.447" gorn="0.3.11.0.0.0.2.0.1" rx=".449" ry=".491"/></g></g></g></g></g></g></g></svg>