<?xml version='1.0' encoding='UTF-8' standalone='no'?>
<!-- Generator: Adobe Illustrator 15.1.0, SVG Export Plug-In . SVG Version: 6.00 Build 0)  -->
  <svg
  xmlns:inkscape="http://www.inkscape.org/namespaces/inkscape"
  xmlns:sodipodi="http://sodipodi.sourceforge.net/DTD/sodipodi-0.dtd"
  xmlns="http://www.w3.org/2000/svg"
  xmlns:svg="http://www.w3.org/2000/svg"
  gorn="0"
  width="15.000117mm"
  height="14.999601mm"
  viewBox="0 0 42.520017 42.518582"
  y="0px"
  x="0px"
  version="1.1"
  id="Layer_2"
  xml:space="preserve"
  enable-background="new 0 0 28.35 35.43"
  sodipodi:docname="AHT20-BMP280_breadboard.svg"
  inkscape:version="1.1.2 (0a00cf5339, 2022-02-04)">
  <sodipodi:namedview
    id="namedview271"
    pagecolor="#ffffff"
    bordercolor="#666666"
    borderopacity="1.0"
    inkscape:pageshadow="2"
    inkscape:pageopacity="0.0"
    inkscape:pagecheckerboard="0"
    inkscape:document-units="mm"
    showgrid="false"
    scale-x="1"
    inkscape:zoom="4.1452491"
    inkscape:cx="13.388821"
    inkscape:cy="17.972382"
    inkscape:window-width="1366"
    inkscape:window-height="704"
    inkscape:window-x="0"
    inkscape:window-y="0"
    inkscape:window-maximized="1"
    inkscape:current-layer="breadboard"
  />
  <desc
    id="desc2">
    <referenceFile>AHT20-BMP280_breadboard.svg</referenceFile>
  </desc>
  <defs
    id="aht_bmp280"
  />
  <g
    id="breadboard">
    <path
      stroke="none"
      gorn="0.2.0.0.0.0.0.0.0.0.0.0.0.0.0.0.0.0.0.0.0.0.0"
      stroke-width="2.28473"
      stroke-opacity="1"
      id="rect2833"
      d="m 2.8688974,0.70898442 c -1.1966405,0 -2.16064525,0.96400458 -2.16064525,2.16064498 V 39.651871 c 0,1.19664 0.96400475,2.159176 2.16064525,2.159176 H 39.651136 c 1.19664,0 2.160645,-0.962536 2.160645,-2.159176 V 2.8696294 c 0,-1.1966404 -0.964005,-2.16064498 -2.160645,-2.16064498 z M 22.307381,2.2470707 c 1.717831,0 3.111328,1.3934967 3.111328,3.1113287 0,1.7178306 -1.393497,3.1098677 -3.111328,3.1098647 -1.717832,0 -3.109865,-1.3920341 -3.109865,-3.1098647 0,-1.717832 1.392033,-3.1113287 3.109865,-3.1113287 z M 5.7531756,9.7177758 A 1.2600004,1.2479124 0 0 1 7.0129417,10.965823 1.2600004,1.2479124 0 0 1 5.7531756,12.21387 1.2600004,1.2479124 0 0 1 4.4919447,10.965823 1.2600004,1.2479124 0 0 1 5.7531756,9.7177758 Z m 0.00146,7.2524442 c 0.661,0 1.1967777,0.533314 1.1967777,1.195313 0,0.660999 -0.5357777,1.198242 -1.1967777,1.198242 -0.6609999,0 -1.1967777,-0.537243 -1.1967777,-1.198242 0,-0.661 0.5357778,-1.195313 1.1967777,-1.195313 z m 0,7.201174 c 0.661,0 1.1967777,0.534308 1.1967777,1.195313 0,0.660998 -0.5357777,1.196778 -1.1967777,1.196778 -0.6609999,0 -1.1967777,-0.53578 -1.1967777,-1.196778 0,-0.661005 0.5357778,-1.195306 1.1967777,-1.195313 z m 0,7.198247 c 0.661,0 1.1967777,0.535777 1.1967777,1.196775 0,0.661005 -0.5357777,1.196775 -1.1967777,1.196775 -0.6609999,0 -1.1967777,-0.53577 -1.1967777,-1.196775 0,-0.660998 0.5357778,-1.196775 1.1967777,-1.196775 z m 16.5527394,2.641111 c 1.717832,0 3.111329,1.3935 3.111329,3.111331 0,1.71783 -1.393497,3.109861 -3.111329,3.109861 -1.717831,0 -3.109864,-1.392031 -3.109864,-3.109861 0,-1.717831 1.392033,-3.111331 3.109864,-3.111331 z"
      fill="#521676"
      fill-opacity="1"
      stroke-miterlimit="4"
      stroke-dasharray="none"
      paint-order="markers stroke fill"
    />
    <path
      stroke="none"
      gorn="0.2.0.0.0.0.0.0.0.0.0.0.1"
      stroke-width="2.28473"
      stroke-opacity="1"
      id="rect2835"
      d="M 2.1606453,0 C 0.9640047,0 0,0.96254 0,2.15918 v 38.2002 c 0,1.19664 0.9640047,2.16065 2.1606453,2.16065 H 40.360853 c 1.19664,0 2.15918,-0.96401 2.15918,-2.16065 V 2.15918 C 42.520033,0.96254 41.557493,0 40.360853,0 Z M 2.8696295,0.70898 H 39.651868 c 1.19664,0 2.15918,0.96254 2.15918,2.15918 V 39.6504 c 0,1.19664 -0.96254,2.16065 -2.15918,2.16065 H 2.8696295 c -1.1966404,0 -2.1606449,-0.96401 -2.1606449,-2.16065 V 2.86816 c 0,-1.19664 0.9640045,-2.15918 2.1606449,-2.15918 z"
      fill="#676767"
      fill-opacity="1"
      stroke-miterlimit="4"
      stroke-dasharray="none"
      paint-order="markers stroke fill"
    />
    <g
      gorn="0.3.0.0.0.0.0.0.0.0.0.0"
      stroke-width="0.760447"
      id="g43"
      transform="matrix(0,-1.1630524,1.4868327,0,4.4579576,39.08402)">
      <rect
        gorn="0.3.0.0.0.0.0.0.0.0.0.0.0"
        stroke-width="0.672571"
        width="2.125"
        height="3.813"
        y="10.688"
        x="9.3129997"
        id="rect14"
        fill="#95825d"
      />
      <rect
        gorn="0.3.0.0.0.0.0.0.0.0.0.0.1"
        stroke-width="0.672571"
        width="2.1259999"
        height="0.85799998"
        y="10.688"
        x="9.3120003"
        id="rect16"
        fill="#999999"
      />
      <rect
        gorn="0.3.0.0.0.0.0.0.0.0.0.0.2"
        stroke-width="0.672571"
        width="2.1259999"
        height="0.85799998"
        y="13.642"
        x="9.3120003"
        id="rect18"
        fill="#999999"
      />
    </g>
    <g
      id="g1171">
      <rect
        gorn="0.4.0.0.0.0.0.0.0.0.0.0.0"
        stroke-width="0.901001"
        width="2.6658823"
        height="5.6692924"
        y="20.349226"
        x="-22.925541"
        id="rect48"
        fill="#020202"
        transform="rotate(-90)"
      />
      <rect
        gorn="0.4.0.0.0.0.0.0.0.0.0.0.1"
        stroke-width="0.901001"
        width="2.6658823"
        height="1.4680454"
        y="24.550472"
        x="-22.925541"
        id="rect50"
        fill="#999999"
        transform="rotate(-90)"
      />
      <rect
        gorn="0.4.0.0.0.0.0.0.0.0.0.0.2"
        stroke-width="0.901001"
        width="2.6658823"
        height="0.90575355"
        y="20.349226"
        x="-22.925541"
        id="rect52"
        fill="#999999"
        transform="rotate(-90)"
      />
    </g>
    <g
      id="g1264">
      <rect
        gorn="0.5.0.0.0.0.0.0.0.0.0.0.0"
        stroke-width="0.901001"
        width="2.6658823"
        height="5.6692924"
        y="20.349226"
        x="-17.511602"
        id="rect56"
        fill="#020202"
        transform="rotate(-90)"
      />
      <rect
        gorn="0.5.0.0.0.0.0.0.0.0.0.0.1"
        stroke-width="0.901001"
        width="2.6658823"
        height="1.4680454"
        y="24.550472"
        x="-17.511602"
        id="rect58"
        fill="#999999"
        transform="rotate(-90)"
      />
      <rect
        gorn="0.5.0.0.0.0.0.0.0.0.0.0.2"
        stroke-width="0.901001"
        width="2.6658823"
        height="0.90575355"
        y="20.349226"
        x="-17.511602"
        id="rect60"
        fill="#999999"
        transform="rotate(-90)"
      />
    </g>
    <path
      gorn="0.6"
      stroke-width="0.999998"
      id="path64"
      d="m 18.103403,5.3564069 c 0,2.3487499 1.90322,4.2519702 4.25197,4.2519702 2.34875,0 4.25197,-1.9032203 4.25197,-4.2519702 0,-2.3487498 -1.90322,-4.2519698 -4.25197,-4.2519698 -2.34875,0 -4.25197,1.90322 -4.25197,4.2519698 z m 7.315362,0 c 0,1.7178317 -1.392655,3.1104862 -3.110487,3.1104862 -1.717831,0 -3.110486,-1.3926545 -3.110486,-3.1104862 0,-1.7178317 1.392655,-3.1104863 3.110486,-3.1104863 1.717832,0 3.110487,1.3926546 3.110487,3.1104863 z"
      fill="#999999"
    />
    <g
      gorn="0.7"
      stroke-width="0.75"
      font-size="3.2"
      id="text12204"
      xml:space="preserve"
      line-height="1.25"
      font-family="OCRA"
      letter-spacing="-0.525px"
      word-spacing="0px">
      <text
        gorn="0.7.0"
        stroke-width="0.75"
        y="11.912823"
        x="26.572903"
        id="tspan12202"
        fill="#ffffff"
        fill-opacity="1">BMP280</text>
    </g>
    <g
      gorn="0.8"
      stroke-width="0.75"
      font-size="3.2"
      id="text22455"
      xml:space="preserve"
      line-height="1.25"
      font-family="OCRA"
      letter-spacing="-0.525px"
      word-spacing="0px">
      <text
        gorn="0.8.0"
        stroke-width="0.75"
        y="37.280247"
        x="28.5641"
        id="tspan22453"
        fill="#ffffff"
        fill-opacity="1">AHT20</text>
    </g>
    <g
      id="g2567">
      <path
        gorn="0.9.0.0.0.0.0.0.0.0.0.0.0.0.0.0.0.0.0.0.0.0.0.0"
        d="m 39.512991,32.385065 h -1.9843 c -0.1957,0 -0.3543,-0.1586 -0.3543,-0.3543 v -0.7087 c 0,-0.1957 0.1586,-0.3543 0.3543,-0.3543 h 1.9843 c 0.1957,0 0.3543,0.1586 0.3543,0.3543 v 0.7087 c 10e-5,0.1957 -0.1586,0.3543 -0.3543,0.3543 z"
        fill="#9a916c"
        id="path485"
        font-size="1.6"
        line-height="0.65"
        font-family="OCRA"
        letter-spacing="-0.285px"
        word-spacing="0px"
        stroke-width="0.75"
      />
      <path
        gorn="0.9.0.0.0.0.0.0.0.0.0.0.0.1.0.0.0.0.0.0.0.0.0.0"
        id="path486"
        d="m 39.512991,29.550465 h -1.9843 c -0.1957,0 -0.3543,-0.1586 -0.3543,-0.3543 v -0.7087 c 0,-0.1957 0.1586,-0.3543 0.3543,-0.3543 h 1.9843 c 0.1957,0 0.3543,0.1586 0.3543,0.3543 v 0.7087 c 10e-5,0.1957 -0.1586,0.3543 -0.3543,0.3543 z"
        fill="#9a916c"
        font-size="1.6"
        line-height="0.65"
        font-family="OCRA"
        letter-spacing="-0.285px"
        word-spacing="0px"
        stroke-width="0.75"
      />
      <path
        gorn="0.9.0.0.0.0.0.0.0.0.0.0.0.2.0.0.0.0.0.0.0.0.0.0"
        id="path487"
        d="m 32.142891,26.715765 h -1.9843 c -0.1957,0 -0.3543,-0.1586 -0.3543,-0.3543 v -0.7087 c 0,-0.1957 0.1586,-0.3543 0.3543,-0.3543 h 1.9843 c 0.1957,0 0.3543,0.1586 0.3543,0.3543 v 0.7087 c 10e-5,0.1957 -0.1586,0.3543 -0.3543,0.3543 z"
        fill="#9a916c"
        font-size="1.6"
        line-height="0.65"
        font-family="OCRA"
        letter-spacing="-0.285px"
        word-spacing="0px"
        stroke-width="0.75"
      />
      <path
        gorn="0.9.0.0.0.0.0.0.0.0.0.0.0.3.0.0.0.0.0.0.0.0.0.0"
        id="path4855"
        d="m 32.142891,29.550465 h -1.9843 c -0.1957,0 -0.3543,-0.1586 -0.3543,-0.3543 v -0.7087 c 0,-0.1957 0.1586,-0.3543 0.3543,-0.3543 h 1.9843 c 0.1957,0 0.3543,0.1586 0.3543,0.3543 v 0.7087 c 10e-5,0.1957 -0.1586,0.3543 -0.3543,0.3543 z"
        fill="#9a916c"
        font-size="1.6"
        line-height="0.65"
        font-family="OCRA"
        letter-spacing="-0.285px"
        word-spacing="0px"
        stroke-width="0.75"
      />
      <path
        gorn="0.9.0.0.0.0.0.0.0.0.0.0.0.4.0.0.0.0.0.0.0.0.0.0"
        id="path4856"
        d="m 32.142891,32.385065 h -1.9843 c -0.1957,0 -0.3543,-0.1586 -0.3543,-0.3543 v -0.7087 c 0,-0.1957 0.1586,-0.3543 0.3543,-0.3543 h 1.9843 c 0.1957,0 0.3543,0.1586 0.3543,0.3543 v 0.7087 c 10e-5,0.1957 -0.1586,0.3543 -0.3543,0.3543 z"
        fill="#9a916c"
        font-size="1.6"
        line-height="0.65"
        font-family="OCRA"
        letter-spacing="-0.285px"
        word-spacing="0px"
        stroke-width="0.75"
      />
      <path
        gorn="0.9.0.0.0.0.0.0.0.0.0.0.0.5.0.0.0.0.0.0.0.0.0.0"
        id="path39902"
        d="m 39.512991,26.715765 h -1.9843 c -0.1957,0 -0.3543,-0.1586 -0.3543,-0.3543 v -0.7087 c 0,-0.1957 0.1586,-0.3543 0.3543,-0.3543 h 1.9843 c 0.1957,0 0.3543,0.1586 0.3543,0.3543 v 0.7087 c 10e-5,0.1957 -0.1586,0.3543 -0.3543,0.3543 z"
        fill="#9a916c"
        font-size="1.6"
        line-height="0.65"
        font-family="OCRA"
        letter-spacing="-0.285px"
        word-spacing="0px"
        stroke-width="0.75"
      />
      <path
        gorn="0.9.0.0.0.0.0.0.0.0.0.0.0.6.0.0.0.0.0.0.0.0.0.0.0"
        id="path868"
        d="m 39.37129,25.204966 c 0,-0.4697 -0.3807,-0.8504 -0.8504,-0.8504 h -7.3701 c -0.4697,0 -0.8504,0.3807 -0.8504,0.8504 v 7.2286 c 0,0.4697 0.3807,0.8504 0.8504,0.8504 h 7.3701 c 0.4697,0 0.8504,-0.3807 0.8504,-0.8504 z"
        fill="#848484"
        font-size="1.6"
        line-height="0.65"
        font-family="OCRA"
        letter-spacing="-0.285px"
        word-spacing="0px"
        stroke-width="0.75"
      />
      <path
        gorn="0.9.0.0.0.0.0.0.0.0.0.0.0.7.0.0.0.0.0.0.0.0.0.0.0"
        id="path872"
        d="m 37.23969,31.315566 c 0,-0.3513 -0.2848,-0.6361 -0.6361,-0.6361 h -3.5354 c -0.3513,0 -0.6361,0.2848 -0.6361,0.6361 0,0.3513 0.2848,0.6361 0.6361,0.6361 h 3.5354 c 0.3513,0 0.6361,-0.2848 0.6361,-0.6361 0,0 0,0.3513 0,0 z"
        font-size="1.6"
        line-height="0.65"
        font-family="OCRA"
        letter-spacing="-0.285px"
        word-spacing="0px"
        stroke-width="0.75"
      />
      <path
        gorn="0.9.0.0.0.0.0.0.0.0.0.0.0.8"
        id="path39847"
        d="m 31.973827,29.107639 0.406,-1.386 q 0.01,-0.032 0.036,-0.052 0.026,-0.02 0.06,-0.02 0.034,0 0.062,0.02 0.028,0.02 0.036,0.052 l 0.404,1.386 q 0,0.042 -0.032,0.072 -0.03,0.03 -0.072,0.03 -0.034,0 -0.06,-0.02 -0.026,-0.02 -0.036,-0.052 l -0.078,-0.268 h -0.446 l -0.078,0.268 q -0.01,0.032 -0.038,0.052 -0.026,0.02 -0.06,0.02 -0.042,0 -0.074,-0.03 -0.03,-0.03 -0.03,-0.072 z m 0.34,-0.44 h 0.326 l -0.164,-0.556 z"
        fill="#ffffff"
        font-size="1.6"
        line-height="0.65"
        font-family="OCRA"
        letter-spacing="-0.285px"
        word-spacing="0px"
        stroke-width="0.75"
      />
      <path
        gorn="0.9.0.0.0.0.0.0.0.0.0.0.0.9"
        id="path39849"
        d="m 33.140826,29.107639 v -1.358 q 0,-0.04 0.028,-0.07 0.03,-0.03 0.072,-0.03 0.042,0 0.072,0.03 0.03,0.03 0.03,0.07 v 0.578 h 0.592 v -0.578 q 0,-0.04 0.028,-0.07 0.03,-0.03 0.072,-0.03 0.042,0 0.072,0.03 0.03,0.03 0.03,0.07 v 1.358 q 0,0.042 -0.03,0.072 -0.03,0.03 -0.072,0.03 -0.042,0 -0.072,-0.03 -0.028,-0.03 -0.028,-0.072 v -0.578 h -0.592 v 0.578 q 0,0.042 -0.03,0.072 -0.03,0.03 -0.072,0.03 -0.042,0 -0.072,-0.03 -0.028,-0.03 -0.028,-0.072 z"
        fill="#ffffff"
        font-size="1.6"
        line-height="0.65"
        font-family="OCRA"
        letter-spacing="-0.285px"
        word-spacing="0px"
        stroke-width="0.75"
      />
      <path
        gorn="0.9.0.0.0.0.0.0.0.0.0.0.0.10"
        id="path39851"
        d="m 34.301825,27.919639 v -0.27 h 0.996 v 0.27 q 0,0.042 -0.03,0.072 -0.03,0.03 -0.072,0.03 -0.042,0 -0.072,-0.03 -0.028,-0.03 -0.028,-0.072 v -0.068 h -0.196 v 1.256 q 0,0.042 -0.03,0.072 -0.03,0.03 -0.07,0.03 -0.042,0 -0.072,-0.03 -0.03,-0.03 -0.03,-0.072 v -1.256 h -0.194 v 0.068 q 0,0.042 -0.03,0.072 -0.03,0.03 -0.072,0.03 -0.042,0 -0.072,-0.03 -0.028,-0.03 -0.028,-0.072 z"
        fill="#ffffff"
        font-size="1.6"
        line-height="0.65"
        font-family="OCRA"
        letter-spacing="-0.285px"
        word-spacing="0px"
        stroke-width="0.75"
      />
      <path
        gorn="0.9.0.0.0.0.0.0.0.0.0.0.0.11"
        id="path39853"
        d="m 35.462824,29.209639 v -0.68 q 0,-0.082 0.06,-0.14 0.06,-0.06 0.142,-0.06 h 0.592 v -0.478 h -0.694 q -0.042,0 -0.072,-0.03 -0.028,-0.03 -0.028,-0.072 0,-0.04 0.028,-0.07 0.03,-0.03 0.072,-0.03 h 0.694 q 0.08,0 0.14,0.06 0.062,0.06 0.062,0.142 v 0.478 q 0,0.08 -0.06,0.14 -0.06,0.06 -0.142,0.06 h -0.592 v 0.478 h 0.692 q 0.042,0 0.072,0.03 0.03,0.03 0.03,0.07 0,0.042 -0.03,0.072 -0.03,0.03 -0.072,0.03 z"
        fill="#ffffff"
        font-size="1.6"
        line-height="0.65"
        font-family="OCRA"
        letter-spacing="-0.285px"
        word-spacing="0px"
        stroke-width="0.75"
      />
      <path
        gorn="0.9.0.0.0.0.0.0.0.0.0.0.0.12"
        id="path39855"
        d="m 36.623824,29.007639 v -1.156 q 0,-0.082 0.06,-0.142 0.06,-0.06 0.142,-0.06 h 0.592 q 0.08,0 0.14,0.06 0.062,0.06 0.062,0.142 v 1.156 q 0,0.082 -0.062,0.142 -0.06,0.06 -0.14,0.06 h -0.592 q -0.082,0 -0.142,-0.06 -0.06,-0.06 -0.06,-0.142 z m 0.202,0 h 0.592 v -1.156 h -0.592 z"
        fill="#ffffff"
        font-size="1.6"
        line-height="0.65"
        font-family="OCRA"
        letter-spacing="-0.285px"
        word-spacing="0px"
        stroke-width="0.75"
      />
    </g>
    <path
      gorn="0.10"
      id="connector3pin"
      d="m 3.361,32.564652 c 0,1.322 1.071,2.393 2.393,2.393 1.322,0 2.394,-1.071 2.394,-2.393 0,-1.322 -1.071,-2.393 -2.394,-2.393 -1.321,0 -2.393,1.071 -2.393,2.393 z m 3.591,0 c 0,0.661 -0.536,1.197 -1.197,1.197 -0.661,0 -1.197,-0.536 -1.197,-1.197 0,-0.661 0.536,-1.197 1.197,-1.197 0.661,0 1.197,0.536 1.197,1.197 z"
      fill="#9a916c"
    />
    <path
      gorn="0.11"
      id="connector2pin"
      d="m 3.361,25.365652 c 0,1.322 1.071,2.393 2.393,2.393 1.322,0 2.394,-1.071 2.394,-2.393 0,-1.322 -1.071,-2.393 -2.394,-2.393 -1.321,0 -2.393,1.071 -2.393,2.393 z m 3.591,0 c 0,0.661 -0.536,1.197 -1.197,1.197 -0.661,0 -1.197,-0.536 -1.197,-1.197 0,-0.661 0.536,-1.196 1.197,-1.196 0.661,0 1.197,0.535 1.197,1.196 z"
      fill="#9a916c"
    />
    <path
      gorn="0.12"
      id="connector1pin"
      d="m 3.361,18.166652 c 0,1.321 1.071,2.393 2.393,2.393 1.322,0 2.394,-1.071 2.394,-2.393 0,-1.322 -1.071,-2.394 -2.394,-2.394 -1.321,0 -2.393,1.071 -2.393,2.394 z m 3.591,-0.002 c 0,0.661 -0.536,1.197 -1.197,1.197 -0.661,0 -1.197,-0.536 -1.197,-1.197 0,-0.661 0.536,-1.196 1.197,-1.196 0.661,0 1.197,0.534 1.197,1.196 z"
      fill="#9a916c"
    />
    <path
      gorn="0.13"
      stroke-width="1.125"
      id="connector0pin"
      d="m 3.3785225,8.588175 v 4.751954 H 8.1304774 V 8.588175 Z m 2.3759773,1.12793 a 1.2600004,1.2479124 0 0 1 1.259766,1.248047 1.2600004,1.2479124 0 0 1 -1.259766,1.248047 1.2600004,1.2479124 0 0 1 -1.2612309,-1.248047 1.2600004,1.2479124 0 0 1 1.2612309,-1.248047 z"
      fill="#9a916c"
      fill-opacity="1"
      paint-order="markers stroke fill"
    />
    <path
      gorn="0.14"
      stroke-width="0.999998"
      id="path4831"
      d="m 18.103403,37.120246 c 0,2.348749 1.90322,4.251969 4.25197,4.251969 2.34875,0 4.25197,-1.90322 4.25197,-4.251969 0,-2.348749 -1.90322,-4.251969 -4.25197,-4.251969 -2.34875,0 -4.25197,1.90322 -4.25197,4.251969 z m 7.315362,0 c 0,1.717831 -1.392655,3.110485 -3.110487,3.110485 -1.717831,0 -3.110486,-1.392654 -3.110486,-3.110485 0,-1.717831 1.392655,-3.110485 3.110486,-3.110485 1.717832,0 3.110487,1.392654 3.110487,3.110485 z"
      fill="#999999"
    />
    <g
      id="g2629">
      <path
        gorn="0.15.0"
        stroke-width="0.999999"
        id="path39896"
        d="m 33.29088,19.344111 v -1.462123 c 0,-0.144201 0.145026,-0.261065 0.323977,-0.261065 h 0.648046 c 0.178951,0 0.323977,0.116864 0.323977,0.261065 v 1.462123 c 0,0.144201 -0.145026,0.261065 -0.323977,0.261065 h -0.648046 c -0.178951,7.3e-5 -0.323977,-0.116864 -0.323977,-0.261065 z"
        fill="#9a916c"
      />
      <path
        gorn="0.15.1"
        stroke-width="0.999999"
        id="path4857"
        d="m 31.466772,19.344111 v -1.462123 c 0,-0.144201 0.145026,-0.261065 0.323977,-0.261065 h 0.648046 c 0.178951,0 0.323977,0.116864 0.323977,0.261065 v 1.462123 c 0,0.144201 -0.145026,0.261065 -0.323977,0.261065 h -0.648046 c -0.178951,7.3e-5 -0.323977,-0.116864 -0.323977,-0.261065 z"
        fill="#9a916c"
      />
      <path
        gorn="0.15.2"
        stroke-width="0.999999"
        id="path39898"
        d="m 35.114988,19.344111 v -1.462123 c 0,-0.144201 0.145026,-0.261065 0.323977,-0.261065 h 0.648046 c 0.178951,0 0.323977,0.116864 0.323977,0.261065 v 1.462123 c 0,0.144201 -0.145026,0.261065 -0.323977,0.261065 h -0.648046 c -0.178951,7.3e-5 -0.323977,-0.116864 -0.323977,-0.261065 z"
        fill="#9a916c"
      />
      <path
        gorn="0.15.3"
        stroke-width="0.999999"
        id="path39900"
        d="m 36.939098,19.344111 v -1.462123 c 0,-0.144201 0.145026,-0.261065 0.323977,-0.261065 h 0.648046 c 0.178951,0 0.323977,0.116864 0.323977,0.261065 v 1.462123 c 0,0.144201 -0.145026,0.261065 -0.323977,0.261065 h -0.648046 c -0.178951,7.3e-5 -0.323977,-0.116864 -0.323977,-0.261065 z"
        fill="#9a916c"
      />
      <path
        gorn="0.15.4"
        stroke-width="0.999999"
        id="path40150"
        d="m 36.939098,14.587914 v -1.462123 c 0,-0.144201 0.145026,-0.261065 0.323977,-0.261065 h 0.648046 c 0.178951,0 0.323977,0.116864 0.323977,0.261065 v 1.462123 c 0,0.144201 -0.145026,0.261065 -0.323977,0.261065 h -0.648046 c -0.178951,7.3e-5 -0.323977,-0.116864 -0.323977,-0.261065 z"
        fill="#9a916c"
      />
      <path
        gorn="0.15.5"
        stroke-width="0.999999"
        id="path40148"
        d="m 35.114988,14.587914 v -1.462123 c 0,-0.144201 0.145026,-0.261065 0.323977,-0.261065 h 0.648046 c 0.178951,0 0.323977,0.116864 0.323977,0.261065 v 1.462123 c 0,0.144201 -0.145026,0.261065 -0.323977,0.261065 h -0.648046 c -0.178951,7.3e-5 -0.323977,-0.116864 -0.323977,-0.261065 z"
        fill="#9a916c"
      />
      <path
        gorn="0.15.6"
        stroke-width="0.999999"
        id="path40144"
        d="m 33.29088,14.587914 v -1.462123 c 0,-0.144201 0.145026,-0.261065 0.323977,-0.261065 h 0.648046 c 0.178951,0 0.323977,0.116864 0.323977,0.261065 v 1.462123 c 0,0.144201 -0.145026,0.261065 -0.323977,0.261065 h -0.648046 c -0.178951,7.3e-5 -0.323977,-0.116864 -0.323977,-0.261065 z"
        fill="#9a916c"
      />
      <path
        gorn="0.15.7"
        stroke-width="0.999999"
        id="path40146"
        d="m 31.466772,14.587914 v -1.462123 c 0,-0.144201 0.145026,-0.261065 0.323977,-0.261065 h 0.648046 c 0.178951,0 0.323977,0.116864 0.323977,0.261065 v 1.462123 c 0,0.144201 -0.145026,0.261065 -0.323977,0.261065 h -0.648046 c -0.178951,7.3e-5 -0.323977,-0.116864 -0.323977,-0.261065 z"
        fill="#9a916c"
      />
      <rect
        gorn="0.15.8.0.0.0.0.0.0.0.0.0.0.0"
        stroke-width="1.74088"
        width="5.6247358"
        height="7.3294673"
        y="-38.561428"
        x="-18.985725"
        id="rect66"
        fill="#e0e0e0"
        transform="matrix(0,-1,-1,0,0,0)"
      />
      <path
        gorn="0.15.8.0.0.0.0.0.0.0.0.0.0.1.0"
        stroke-width="1.74088"
        id="path68"
        d="m 32.751831,13.659113 c -0.537683,0 -0.978044,0.366481 -0.978044,0.813956 v 3.412064 c 0,0.448049 0.440361,0.813955 0.978044,0.813955 h 4.272474 c 0.537683,0 0.978045,-0.366481 0.978045,-0.813955 v -3.412064 c 0,-0.448049 -0.440362,-0.813956 -0.978045,-0.813956 z"
        fill="#999999"
      />
      <ellipse
        gorn="0.15.8.0.0.0.0.0.0.0.0.0.0.2"
        stroke-width="1.74088"
        cx="-17.333857"
        ry="0.43138874"
        id="circle72"
        fill="#414141"
        rx="0.43086627"
        cy="-36.418884"
        transform="matrix(0,-1,-1,0,0,0)"
      />
      <g
        gorn="0.15.9"
        stroke-width="0.749999"
        aria-label="BMP 280"
        font-size="1.20047"
        id="text40474"
        line-height="0.95"
        font-family="OCRA"
        letter-spacing="-0.215258px"
        word-spacing="0px">
        <path
          gorn="0.15.9.0"
          id="path47383"
          d="m 32.40731,15.410491 v -1.17046 h 0.444175 q 0.123048,0 0.213083,0.09004 0.09004,0.09004 0.09004,0.213084 v 0.05552 q 0,0.133552 -0.105041,0.226589 0.105041,0.09304 0.105041,0.226589 v 0.05552 q 0,0.123048 -0.09004,0.213084 -0.09004,0.09004 -0.213083,0.09004 z m 0.15156,-0.15156 h 0.292615 q 0.06152,0 0.106542,-0.04502 0.04502,-0.04652 0.04502,-0.106542 v -0.05552 q 0,-0.06152 -0.04502,-0.106542 -0.04502,-0.04502 -0.106542,-0.04502 H 32.55887 Z m 0,-0.5102 h 0.292615 q 0.06152,0 0.106542,-0.04502 0.04502,-0.04502 0.04502,-0.105041 v -0.05552 q 0,-0.06002 -0.04502,-0.105041 -0.04502,-0.04652 -0.106542,-0.04652 H 32.55887 Z"
          fill="#ffffff"
        />
        <path
          gorn="0.15.9.1"
          id="path47385"
          d="m 33.276978,15.333961 v -1.09393 h 0.189074 l 0.184573,0.262603 0.183072,-0.262603 h 0.190575 v 1.09393 q 0,0.03151 -0.02251,0.05402 -0.02251,0.02251 -0.05402,0.02251 -0.03151,0 -0.05402,-0.02251 -0.02101,-0.02251 -0.02101,-0.05402 v -0.885348 l -0.147058,0.210082 v 0.03902 q 0,0.03151 -0.02251,0.05402 -0.02251,0.02251 -0.05252,0.02251 -0.03151,0 -0.05402,-0.02251 -0.02251,-0.02251 -0.02251,-0.05402 v -0.03902 l -0.145557,-0.207081 v 0.882347 q 0,0.03151 -0.02251,0.05402 -0.02251,0.02251 -0.05402,0.02251 -0.03151,0 -0.05402,-0.02251 -0.02101,-0.02251 -0.02101,-0.05402 z"
          fill="#ffffff"
        />
        <path
          gorn="0.15.9.2"
          id="path47387"
          d="m 34.146646,15.333961 v -1.09393 h 0.519204 q 0.09304,0 0.160563,0.06753 0.06753,0.06603 0.06753,0.159063 v 0.270106 q 0,0.09304 -0.06753,0.160563 -0.06753,0.06753 -0.160563,0.06753 h -0.367645 v 0.369145 q 0,0.03151 -0.02251,0.05402 -0.02251,0.02251 -0.05402,0.02251 -0.03151,0 -0.05402,-0.02251 -0.02101,-0.02251 -0.02101,-0.05402 z m 0.151559,-0.520705 h 0.367645 q 0.03001,0 0.05252,-0.02251 0.02401,-0.02251 0.02401,-0.05402 V 14.46662 q 0,-0.03001 -0.02401,-0.05252 -0.02251,-0.02251 -0.05252,-0.02251 h -0.367645 z"
          fill="#ffffff"
        />
        <path
          gorn="0.15.9.3"
          id="path47389"
          d="m 32.40731,16.836051 v -0.5102 q 0,-0.06152 0.04502,-0.105041 0.04502,-0.04502 0.106542,-0.04502 h 0.444174 V 15.817151 H 32.48234 q -0.03151,0 -0.05402,-0.02251 -0.02101,-0.02251 -0.02101,-0.05402 0,-0.03001 0.02101,-0.05252 0.02251,-0.02251 0.05402,-0.02251 h 0.520704 q 0.06002,0 0.105042,0.04502 0.04652,0.04502 0.04652,0.106542 v 0.358641 q 0,0.06002 -0.04502,0.105041 -0.04502,0.04502 -0.106542,0.04502 H 32.55887 v 0.358641 h 0.519204 q 0.03151,0 0.05402,0.02251 0.02251,0.02251 0.02251,0.05252 0,0.03151 -0.02251,0.05402 -0.02251,0.02251 -0.05402,0.02251 z"
          fill="#ffffff"
        />
        <path
          gorn="0.15.9.4"
          id="path47391"
          d="m 33.276978,16.684492 v -0.358641 q 0,-0.06152 0.04352,-0.106542 0.04502,-0.04502 0.106542,-0.04502 v -0.43367 q 0,-0.03151 0.02101,-0.05252 0.02101,-0.02251 0.05252,-0.02251 h 0.298617 q 0.03151,0 0.05252,0.02251 0.02101,0.02101 0.02101,0.05252 v 0.43367 q 0.06002,0 0.105041,0.04652 0.04652,0.04502 0.04652,0.105041 v 0.358641 q 0,0.06152 -0.04652,0.106542 -0.04502,0.04502 -0.105041,0.04502 h -0.445675 q -0.06152,0 -0.106542,-0.04502 -0.04352,-0.04502 -0.04352,-0.106542 z m 0.150059,0 h 0.445675 v -0.358641 h -0.445675 z m 0.150059,-0.510201 h 0.145557 v -0.35714 h -0.145557 z"
          fill="#ffffff"
        />
        <path
          gorn="0.15.9.5"
          id="path47393"
          d="m 34.146646,16.684492 v -0.867341 q 0,-0.06152 0.04502,-0.106542 0.04502,-0.04502 0.106541,-0.04502 h 0.444175 q 0.06002,0 0.105041,0.04502 0.04652,0.04502 0.04652,0.106542 v 0.867341 q 0,0.06152 -0.04652,0.106542 -0.04502,0.04502 -0.105041,0.04502 h -0.444175 q -0.06152,0 -0.106541,-0.04502 -0.04502,-0.04502 -0.04502,-0.106542 z m 0.151559,0 h 0.444175 v -0.867341 h -0.444175 z"
          fill="#ffffff"
        />
      </g>
    </g>
    <g
      gorn="0.16"
      stroke-width="0.75"
      font-size="3.2"
      id="text50849"
      xml:space="preserve"
      line-height="1.25"
      font-family="OCRA"
      letter-spacing="-0.525px"
      word-spacing="0px">
      <text
        gorn="0.16.0"
        stroke-width="0.75"
        y="12.077578"
        x="9.919529"
        id="tspan50847"
        fill="#ffffff"
        fill-opacity="1"
        font-style="normal"
        font-variant="normal"
        font-weight="normal"
        font-stretch="normal"
        font-family="OCRA">VDD</text>
    </g>
    <g
      gorn="0.17"
      stroke-width="0.75"
      font-size="3.2"
      id="text53841"
      xml:space="preserve"
      line-height="1.25"
      font-family="OCRA"
      letter-spacing="-0.525px"
      word-spacing="0px">
      <text
        gorn="0.17.0"
        stroke-width="0.75"
        y="19.577578"
        x="9.919529"
        id="tspan53839"
        fill="#ffffff"
        fill-opacity="1"
        font-style="normal"
        font-variant="normal"
        font-weight="normal"
        font-stretch="normal"
        font-family="OCRA">SDA</text>
    </g>
    <g
      gorn="0.18"
      stroke-width="0.75"
      font-size="3.2"
      id="text53845"
      xml:space="preserve"
      line-height="1.25"
      font-family="OCRA"
      letter-spacing="-0.525px"
      word-spacing="0px">
      <text
        gorn="0.18.0"
        stroke-width="0.75"
        y="27.077578"
        x="9.919529"
        id="tspan53843"
        fill="#ffffff"
        fill-opacity="1"
        font-style="normal"
        font-variant="normal"
        font-weight="normal"
        font-stretch="normal"
        font-family="OCRA">GND</text>
    </g>
    <g
      gorn="0.19"
      stroke-width="0.75"
      font-size="3.2"
      id="text53849"
      xml:space="preserve"
      line-height="1.25"
      font-family="OCRA"
      letter-spacing="-0.525px"
      word-spacing="0px">
      <text
        gorn="0.19.0"
        stroke-width="0.75"
        y="34.179829"
        x="9.919529"
        id="tspan53847"
        fill="#ffffff"
        fill-opacity="1"
        font-style="normal"
        font-variant="normal"
        font-weight="normal"
        font-stretch="normal"
        font-family="OCRA">SCL</text>
    </g>
  </g>
</svg>
