<?xml version='1.0' encoding='UTF-8' standalone='no'?>
<svg
  xmlns="http://www.w3.org/2000/svg"
  xmlns:svg="http://www.w3.org/2000/svg"
  xmlns:rdf="http://www.w3.org/1999/02/22-rdf-syntax-ns#"
  xmlns:cc="http://creativecommons.org/ns#"
  xmlns:dc="http://purl.org/dc/elements/1.1/"
  id="svg2"
  y="0in"
  version="1.2"
  height="0.75354743in"
  width="1.6252964in"
  x="0in"
  viewBox="0 0 1625.2962 753.54739">
  <metadata
    id="metadata24">
    <rdf:RDF>
      <cc:Work
        rdf:about="">
        <dc:format>image/svg+xml</dc:format>
        <dc:type
          rdf:resource="http://purl.org/dc/dcmitype/StillImage"
        />
      </cc:Work>
    </rdf:RDF>
  </metadata>
  <defs
    id="defs22"
  />
  <desc
    id="desc4">
    <referenceFile>CN3065-Mini-Solar-Charger-Module_1_breadboard.svg</referenceFile>
  </desc>
  <g
    id="breadboard">
    <rect
      id="rect652"
      width="1543.553"
      height="753.54736"
      x="81.743187"
      y="0"
      fill="#0044aa"
      stroke="none"
      stroke-width="0"
    />
    <rect
      id="rect8"
      y="-298.90298"
      x="137.22266"
      height="9.0277796"
      width="13.75"
      transform="rotate(90)"
      fill="#666666"
    />
    <rect
      id="rect10"
      y="-298.90298"
      x="137.22266"
      height="7.1111102"
      width="1.23611"
      transform="rotate(90)"
      fill="#999999"
    />
    <rect
      id="rect14"
      y="-298.90298"
      x="162.8335"
      height="9.0277796"
      width="13.7639"
      transform="rotate(90)"
      fill="#666666"
    />
    <rect
      id="rect16"
      y="-298.90298"
      x="162.8335"
      height="7.1111102"
      width="1.23611"
      transform="rotate(90)"
      fill="#999999"
    />
    <rect
      id="rect20"
      y="-298.90298"
      x="188.40259"
      height="9.0277796"
      width="13.7639"
      transform="rotate(90)"
      fill="#666666"
    />
    <rect
      id="rect22"
      y="-298.90298"
      x="188.40259"
      height="7.1111102"
      width="1.23611"
      transform="rotate(90)"
      fill="#999999"
    />
    <rect
      id="rect26"
      y="-298.90298"
      x="214.01343"
      height="9.0277796"
      width="13.75"
      transform="rotate(90)"
      fill="#666666"
    />
    <rect
      id="rect28"
      y="-298.90298"
      x="214.01343"
      height="7.1111102"
      width="1.2222199"
      transform="rotate(90)"
      fill="#999999"
    />
    <rect
      id="rect32"
      y="-298.90298"
      x="239.59766"
      height="9.0277796"
      width="13.75"
      transform="rotate(90)"
      fill="#666666"
    />
    <rect
      id="rect34"
      y="-298.90298"
      x="239.59766"
      height="7.1111102"
      width="1.23611"
      transform="rotate(90)"
      fill="#999999"
    />
    <polygon
      id="polygon38"
      points="28.6111,5.08333 290.347,5.08333 290.333,265.333 289.556,296.722 30.0556,296.722 28.6111,268.542 "
      transform="rotate(90,131.43073,167.47227)"
      fill="#b3b3b3"
    />
    <polygon
      id="polygon40"
      points="31.5972,294.403 56.4028,294.333 184.847,294.306 140.556,247.028 31.5972,247.028 "
      transform="rotate(90,131.43073,167.47227)"
      fill="#999999"
    />
    <rect
      id="rect42"
      y="-201.95859"
      x="329.15259"
      height="42.236099"
      width="25.430599"
      transform="rotate(90)"
      fill="#666666"
    />
    <rect
      id="rect44"
      y="-201.95859"
      x="36.041504"
      height="42.236099"
      width="25.4028"
      transform="rotate(90)"
      fill="#666666"
    />
    <rect
      id="rect46"
      y="-293.81967"
      x="64.652588"
      height="1.80556"
      width="261.73599"
      transform="rotate(90)"
      fill="#cccccc"
    />
    <rect
      id="rect48"
      y="-293.81967"
      x="123.83325"
      height="255.04201"
      width="142.931"
      transform="rotate(90)"
      fill="#333333"
    />
    <rect
      id="rect50"
      y="-46.291954"
      x="47.513672"
      height="15.0278"
      width="13.9306"
      transform="rotate(90)"
      fill="#b3b3b3"
    />
    <rect
      id="rect52"
      y="-46.291954"
      x="52.55542"
      height="15.0278"
      width="8.9166698"
      transform="rotate(90)"
      fill="#cccccc"
    />
    <rect
      id="rect54"
      y="-46.291954"
      x="329.13843"
      height="15.0278"
      width="13.9028"
      transform="rotate(90)"
      fill="#b3b3b3"
    />
    <rect
      id="rect56"
      y="-46.291954"
      x="329.13843"
      height="15.0278"
      width="8.9166698"
      transform="rotate(90)"
      fill="#cccccc"
    />
    <rect
      id="rect58"
      y="-33.569908"
      x="249.93066"
      height="9"
      width="6.625"
      transform="rotate(90)"
      fill="#f2f2f2"
    />
    <rect
      id="rect62"
      y="-33.569908"
      x="220.94458"
      height="9"
      width="6.6527801"
      transform="rotate(90)"
      fill="#f2f2f2"
    />
    <rect
      id="rect66"
      y="-33.569908"
      x="191.99951"
      height="9"
      width="6.625"
      transform="rotate(90)"
      fill="#f2f2f2"
    />
    <rect
      id="rect70"
      y="-33.569908"
      x="163.02759"
      height="9"
      width="6.625"
      transform="rotate(90)"
      fill="#f2f2f2"
    />
    <rect
      id="rect74"
      y="-33.569908"
      x="134.06934"
      height="9"
      width="6.625"
      transform="rotate(90)"
      fill="#f2f2f2"
    />
    <rect
      id="rect78"
      y="-33.569908"
      x="134.06934"
      height="9"
      width="1.33333"
      transform="rotate(90)"
      fill="#808080"
    />
    <rect
      id="rect82"
      y="-33.569908"
      x="163.02759"
      height="9"
      width="1.33333"
      transform="rotate(90)"
      fill="#808080"
    />
    <rect
      id="rect86"
      y="-33.569908"
      x="191.99951"
      height="9"
      width="1.36111"
      transform="rotate(90)"
      fill="#808080"
    />
    <rect
      id="rect90"
      y="-33.569908"
      x="220.9585"
      height="9"
      width="1.36111"
      transform="rotate(90)"
      fill="#808080"
    />
    <rect
      id="rect94"
      y="-33.569908"
      x="249.94458"
      height="9"
      width="1.36111"
      transform="rotate(90)"
      fill="#808080"
    />
    <path
      id="path100"
      d="m 21.986,126.94435 v 7.1389 h 5.5 v 6.625 h -5.5 v 22.3333 h 5.5 v 6.611 h -5.5 v 22.3333 h 5.5 v 6.625 h -5.5 v 22.3194 h 5.5 v 6.6528 h -5.5 v 22.3475 h 5.5 v 6.625 h -5.5 v 4.486 3.7361 c 0,1.0972 0.8889,2 2.0278,2 h 14.7778 c 1.1111,0 2.0278,-0.875 2.0278,-2 l 6e-4,-138.9305 c 0,-1.0972 -0.8889,-2.0278 -2.0278,-2.0278 H 24.0144 c -1.0833,0 -2.0278,0.9028 -2.0278,2.0278 z"
      fill="#4d4d4d"
    />
    <path
      id="path102"
      d="m 285.9447,61.444348 7.875,3.1806 v 35.1944 c 0,0 -1.56944,-31.9722 -3.93056,-33.1111 -2.36112,-1.1389 -3.94444,1.5277 -3.94444,1.5277 z"
      fill="#cccccc"
    />
    <path
      id="path104"
      d="m 285.9447,329.15255 7.86111,-3.1806 -3e-5,-35.2084 c 0,0 -1.56944,31.9583 -3.93056,33.0972 -2.36112,1.1389 -3.93056,-1.5139 -3.93056,-1.5139 z"
      fill="#cccccc"
    />
    <path
      id="path106"
      d="M 67.125,61.444348 H 0 L 0.083,329.16635 H 67.1247 Z M 4.5,322.95855 V 67.638748 H 51.875 V 322.98575 Z"
      fill="#cccccc"
    />
    <path
      id="path108"
      d="m 285.9447,282.08355 h -14.8195 v -22.292 h 22.69447 v -6.4028 h -7.86111 l 4e-5,-116.1662 h 7.86107 v -7.2921 h -22.7083 l -7e-5,-22.3056 h 14.8334 V 61.444348 H 57.6257 V 329.12535 l 228.319,-8e-4 z M 101.361,129.93045 H 90.0554 l 6e-4,-22.125 h 12.2361 c 3.84722,-5.9167 10.5556,-9.833302 18.1528,-9.833302 8.30556,0 15.3472,3.041602 19.0139,9.833302 v 0 h 62.2222 v 22.1111 h -62.25 c -3.66667,6.7778 -10.7361,11.4583 -19.0417,11.4583 -8.2923,-3e-4 -15.3753,-4.6663 -19.0283,-11.4444 z m 0,151.2221 H 90.0554 v -22.1111 h 12.2361 c 3.84722,-5.9167 10.5556,-9.8194 18.1528,-9.8194 8.30556,0 15.3472,3.0139 19.0139,9.8194 v 0 h 62.2222 v 22.1111 h -62.25 c -3.66667,6.8056 -10.7361,11.4722 -19.0417,11.4722 -8.2917,-2e-4 -15.3747,-4.6522 -19.0277,-11.4722 z"
      fill="#e6e6e6"
    />
    <polygon
      id="polygon110"
      points="25.4028,12.9583 46.6667,12.9583 31.0417,241.333 25.4028,241.333 "
      transform="rotate(90,131.43073,167.47227)"
      fill="#f2f2f2"
    />
    <polygon
      id="polygon112"
      points="277.333,12.9583 293.111,12.9583 293.111,241.333 285.208,88.8333 "
      transform="rotate(90,131.43073,167.47227)"
      fill="#999999"
    />
    <rect
      id="rect114"
      y="-201.6669"
      x="107.80542"
      height="1.80556"
      width="22.111099"
      transform="rotate(90)"
      fill="#cccccc"
    />
    <rect
      id="rect116"
      y="-201.6669"
      x="259.06958"
      height="1.80556"
      width="22.0972"
      transform="rotate(90)"
      fill="#cccccc"
    />
    <rect
      id="rect118"
      y="-69.57003"
      x="74.569336"
      height="9.1666698"
      width="241.48599"
      transform="rotate(90)"
      fill="#b3b3b3"
    />
    <rect
      id="rect120"
      y="-61.916954"
      x="74.569336"
      height="4.3472199"
      width="241.48599"
      transform="rotate(90)"
      fill="#cccccc"
    />
    <rect
      id="rect20-9"
      connectorname="1"
      x="-439.01514"
      y="951.30396"
      width="12.961676"
      height="32.245071"
      transform="rotate(-90)"
      fill="#8c8c8c"
      stroke="none"
      stroke-width="0"
      stroke-linecap="round"
    />
    <rect
      id="rect22-8"
      connectorname="2"
      x="-418.46606"
      y="951.30396"
      width="12.961676"
      height="32.245071"
      transform="rotate(-90)"
      fill="#8c8c8c"
      stroke="none"
      stroke-width="0"
      stroke-linecap="round"
    />
    <rect
      id="rect24"
      connectorname="3"
      x="-397.91724"
      y="951.30396"
      width="12.961676"
      height="32.245071"
      transform="rotate(-90)"
      fill="#8c8c8c"
      stroke="none"
      stroke-width="0"
      stroke-linecap="round"
    />
    <rect
      id="rect26-5"
      connectorname="4"
      x="-377.36792"
      y="951.30396"
      width="12.961676"
      height="32.245071"
      transform="rotate(-90)"
      fill="#8c8c8c"
      stroke="none"
      stroke-width="0"
      stroke-linecap="round"
    />
    <rect
      id="rect28-2"
      connectorname="5"
      x="-377.36792"
      y="854.37579"
      width="12.961676"
      height="32.245071"
      transform="rotate(-90)"
      fill="#8c8c8c"
      stroke="none"
      stroke-width="0"
      stroke-linecap="round"
    />
    <rect
      id="rect30"
      connectorname="6"
      x="-397.91724"
      y="854.37579"
      width="12.961676"
      height="32.245071"
      transform="rotate(-90)"
      fill="#8c8c8c"
      stroke="none"
      stroke-width="0"
      stroke-linecap="round"
    />
    <rect
      id="rect32-6"
      connectorname="7"
      x="-418.46606"
      y="854.37579"
      width="12.961676"
      height="32.245071"
      transform="rotate(-90)"
      fill="#8c8c8c"
      stroke="none"
      stroke-width="0"
      stroke-linecap="round"
    />
    <rect
      id="rect34-6"
      connectorname="8"
      x="-439.01514"
      y="854.37579"
      width="12.961676"
      height="32.245071"
      transform="rotate(-90)"
      fill="#8c8c8c"
      stroke="none"
      stroke-width="0"
      stroke-linecap="round"
    />
    <rect
      id="rect36"
      connectorname="EP"
      x="-442.80859"
      y="878.1026"
      width="82.193916"
      height="82.193115"
      transform="rotate(-90)"
      fill="#8c8c8c"
      stroke="none"
      stroke-width="0"
      stroke-linecap="round"
    />
    <rect
      id="rect38"
      x="-459.20312"
      y="864.86627"
      width="108.12247"
      height="108.66606"
      transform="rotate(-90)"
      fill="#303030"
      stroke="none"
      stroke-width="0"
    />
    <polygon
      transform="matrix(0,-0.8029651,0.8029651,0,827.20595,459.20315)"
      id="polygon40-4"
      points="134.654,46.9016 124.654,56.9016 10,56.9016 0,46.9016 "
      fill="#1f1f1f"
      stroke-width="0.62269"
    />
    <polygon
      transform="matrix(0,-0.8029651,0.8029651,0,827.20595,459.20315)"
      id="polygon42"
      points="134.654,182.232 124.654,172.232 10,172.232 0,182.232 "
      fill="#1f1f1f"
      stroke-width="0.62269"
    />
    <polygon
      transform="matrix(0,-0.8029651,0.8029651,0,827.20595,459.20315)"
      id="polygon44"
      points="0,182.232 10,172.232 10,56.9016 0,46.9016 "
      fill="#000000"
      stroke-width="0.62269"
    />
    <polygon
      transform="matrix(0,-0.8029651,0.8029651,0,827.20595,459.20315)"
      id="polygon46"
      points="134.654,182.232 124.654,172.232 124.654,56.9016 134.654,46.9016 "
      fill="#3d3d3d"
      stroke-width="0.62269"
    />
    <circle
      id="circle48"
      cy="949.44293"
      r="8.0296507"
      cx="-435.11426"
      transform="rotate(-90)"
      fill="#1f1f1f"
      stroke="none"
      stroke-width="0"
    />
    <rect
      height="37.236099"
      width="110.639"
      x="768.61115"
      id="rect3806"
      y="105.31934"
      fill="#4d4d4d"
    />
    <rect
      height="0.63888901"
      width="110.639"
      enable-background="new    "
      x="768.61115"
      id="rect3808"
      y="105.31934"
      opacity="0.2"
      fill="#ffffff"
    />
    <rect
      height="11.0972"
      width="110.639"
      y="133.51367"
      x="768.61115"
      id="rect3810"
      fill="#333333"
    />
    <rect
      height="0.444444"
      width="110.639"
      y="144.23608"
      enable-background="new    "
      x="768.61115"
      id="rect3812"
      opacity="0.2"
    />
    <path
      d="m 863.18066,105.31935 v 0 0 h -1.2917 v 0 c -1.1111,3.4861 -1.875,11.0556 -1.875,14.9306 0,4.0417 0.66667,9.625 1.875,13.2639 v 0 0 l 16.98611,-1e-4 v -28.1944 z"
      id="path3814"
      fill="#dcdcdc"
    />
    <path
      d="m 785.90287,106.76375 v -1.4444 h -16.97224 v 28.1944 h 16.98609 c 1.22224,-3.6527 2.68054,-9.1527 2.68054,-13.25 0,-4.8055 -1.0416,-9.3194 -2.69439,-13.5 z"
      id="path3816"
      fill="#dcdcdc"
    />
    <path
      d="m 878.97207,134.98605 h -16.98591 l -0.0972,-1.4723 h 16.98611 z"
      id="path3818"
      fill="#999999"
    />
    <path
      d="m 769.01396,135.01375 h 16.98609 l -0.0972,-1.5 h -16.97224 l 0.0833,1.5 z"
      id="path3820"
      fill="#999999"
    />
    <rect
      height="0.63888901"
      width="16.986099"
      y="144.0415"
      enable-background="new    "
      x="768.9306"
      id="rect3822"
      opacity="0.15"
    />
    <rect
      height="0.63888901"
      width="16.986099"
      enable-background="new    "
      x="768.9306"
      id="rect3824"
      y="105.31934"
      opacity="0.5"
      fill="#ffffff"
    />
    <rect
      height="0.63888901"
      width="17"
      y="144.0415"
      enable-background="new    "
      x="861.90289"
      id="rect3826"
      opacity="0.15"
    />
    <rect
      height="0.63888901"
      width="17"
      enable-background="new    "
      x="861.90289"
      id="rect3828"
      y="105.31934"
      opacity="0.5"
      fill="#ffffff"
    />
    <line
      x1="779.19446"
      y2="144.68042"
      y1="144.68042"
      x2="779.19446"
      id="line3830"
      fill="none"
    />
    <rect
      height="9.6111097"
      width="1.63889"
      y="134.98608"
      x="877.59705"
      id="rect3832"
      fill="#999999"
    />
    <rect
      height="9.6111097"
      width="1.6527801"
      y="134.98608"
      x="768.9306"
      id="rect3834"
      fill="#999999"
    />
    <rect
      height="37.236099"
      width="110.639"
      x="452.66797"
      id="rect2010"
      y="-1064.4934"
      transform="rotate(90)"
      fill="#4d4d4d"
    />
    <rect
      height="0.63888901"
      width="110.639"
      enable-background="new    "
      x="452.66797"
      id="rect2012"
      y="-1064.4934"
      transform="rotate(90)"
      opacity="0.2"
      fill="#ffffff"
    />
    <rect
      height="11.0972"
      width="110.639"
      y="-1036.299"
      x="452.66797"
      id="rect2014"
      transform="rotate(90)"
      fill="#333333"
    />
    <rect
      height="0.444444"
      width="110.639"
      y="-1025.5767"
      enable-background="new    "
      x="452.66797"
      id="rect2016"
      transform="rotate(90)"
      opacity="0.2"
    />
    <path
      d="m 1064.4934,547.23745 v 0 0 -1.2917 0 c -3.4861,-1.1111 -11.0556,-1.875 -14.9306,-1.875 -4.0417,0 -9.625,0.6667 -13.2639,1.875 v 0 0 l 10e-5,16.9861 h 28.1944 z"
      id="path2018"
      fill="#dcdcdc"
    />
    <path
      d="m 1063.049,469.95965 h 1.4444 v -16.9723 h -28.1944 v 16.9861 c 3.6527,1.2223 9.1527,2.6806 13.25,2.6806 4.8055,0 9.3194,-1.0416 13.5,-2.6944 z"
      id="path2020"
      fill="#dcdcdc"
    />
    <path
      d="m 1034.8267,563.02885 v -16.9859 l 1.4723,-0.097 v 16.9861 z"
      id="path2022"
      fill="#999999"
    />
    <path
      d="m 1034.799,453.07075 v 16.9861 l 1.5,-0.097 v -16.9723 l -1.5,0.083 z"
      id="path2024"
      fill="#999999"
    />
    <rect
      height="0.63888901"
      width="16.986099"
      y="-1025.7712"
      enable-background="new    "
      x="452.9873"
      id="rect2026"
      transform="rotate(90)"
      opacity="0.15"
    />
    <rect
      height="0.63888901"
      width="16.986099"
      enable-background="new    "
      x="452.9873"
      id="rect2028"
      y="-1064.4934"
      transform="rotate(90)"
      opacity="0.5"
      fill="#ffffff"
    />
    <rect
      height="0.63888901"
      width="17"
      y="-1025.7712"
      enable-background="new    "
      x="545.95972"
      id="rect2030"
      transform="rotate(90)"
      opacity="0.15"
    />
    <rect
      height="0.63888901"
      width="17"
      enable-background="new    "
      x="545.95972"
      id="rect2032"
      y="-1064.4934"
      transform="rotate(90)"
      opacity="0.5"
      fill="#ffffff"
    />
    <line
      x1="1025.1323"
      y2="463.25122"
      y1="463.25122"
      x2="1025.1323"
      id="line2034"
      fill="none"
    />
    <rect
      height="9.6111097"
      width="1.63889"
      y="-1034.8267"
      x="561.65381"
      id="rect2036"
      transform="rotate(90)"
      fill="#999999"
    />
    <rect
      height="9.6111097"
      width="1.6527801"
      y="-1034.8267"
      x="452.9873"
      id="rect2038"
      transform="rotate(90)"
      fill="#999999"
    />
    <rect
      height="37.236099"
      width="110.639"
      x="291.20972"
      id="rect2042"
      y="-809.2851"
      transform="rotate(90)"
      fill="#4d4d4d"
    />
    <rect
      height="0.63888901"
      width="110.639"
      enable-background="new    "
      x="291.20972"
      id="rect2044"
      y="-809.2851"
      transform="rotate(90)"
      opacity="0.2"
      fill="#ffffff"
    />
    <rect
      height="11.0972"
      width="110.639"
      y="-781.0907"
      x="291.20972"
      id="rect2046"
      transform="rotate(90)"
      fill="#333333"
    />
    <rect
      height="0.444444"
      width="110.639"
      y="-770.36841"
      enable-background="new    "
      x="291.20972"
      id="rect2048"
      transform="rotate(90)"
      opacity="0.2"
    />
    <path
      d="m 809.2851,385.77915 v 0 0 -1.2917 0 c -3.48611,-1.1111 -11.0556,-1.875 -14.9306,-1.875 -4.04167,0 -9.625,0.6667 -13.2639,1.875 v 0 0 l 10e-5,16.9861 h 28.1944 z"
      id="path2050"
      fill="#dcdcdc"
    />
    <path
      d="m 807.84066,308.50135 h 1.44444 v -16.9723 h -28.1944 v 16.9861 c 3.6527,1.2223 9.1527,2.6806 13.25,2.6806 4.8055,0 9.3194,-1.0416 13.49996,-2.6944 z"
      id="path2052"
      fill="#dcdcdc"
    />
    <path
      d="m 779.6184,401.57055 v -16.9859 l 1.4723,-0.097 v 16.9861 z"
      id="path2054"
      fill="#999999"
    />
    <path
      d="m 779.5907,291.61245 v 16.9861 l 1.5,-0.097 v -16.9723 l -1.5,0.083 z"
      id="path2056"
      fill="#999999"
    />
    <rect
      height="0.63888901"
      width="16.986099"
      y="-770.56287"
      enable-background="new    "
      x="291.52905"
      id="rect2058"
      transform="rotate(90)"
      opacity="0.15"
    />
    <rect
      height="0.63888901"
      width="16.986099"
      enable-background="new    "
      x="291.52905"
      id="rect2060"
      y="-809.2851"
      transform="rotate(90)"
      opacity="0.5"
      fill="#ffffff"
    />
    <rect
      height="0.63888901"
      width="17"
      y="-770.56287"
      enable-background="new    "
      x="384.50122"
      id="rect2062"
      transform="rotate(90)"
      opacity="0.15"
    />
    <rect
      height="0.63888901"
      width="17"
      enable-background="new    "
      x="384.50122"
      id="rect2064"
      y="-809.2851"
      transform="rotate(90)"
      opacity="0.5"
      fill="#ffffff"
    />
    <line
      x1="769.92401"
      y2="301.79297"
      y1="301.79297"
      x2="769.92401"
      id="line2066"
      fill="none"
    />
    <rect
      height="9.6111097"
      width="1.63889"
      y="-779.61841"
      x="400.19556"
      id="rect2068"
      transform="rotate(90)"
      fill="#999999"
    />
    <rect
      height="9.6111097"
      width="1.6527801"
      y="-779.61841"
      x="291.52905"
      id="rect2070"
      transform="rotate(90)"
      fill="#999999"
    />
    <rect
      height="86.50753"
      width="209.59734"
      x="189.64722"
      id="rect2074"
      y="-712.93091"
      transform="rotate(90)"
      fill="#4d4d4d"
      stroke-width="0.999999"
    />
    <rect
      height="1.4842777"
      width="209.59734"
      enable-background="new    "
      x="189.64722"
      id="rect2076"
      y="-712.93091"
      transform="rotate(90)"
      opacity="0.2"
      fill="#ffffff"
      stroke-width="0.999999"
    />
    <rect
      height="25.781202"
      width="209.59734"
      y="-647.4292"
      x="189.64722"
      id="rect2078"
      transform="rotate(90)"
      fill="#333333"
      stroke-width="0.999999"
    />
    <rect
      height="1.0325397"
      width="209.59734"
      y="-622.51898"
      enable-background="new    "
      x="189.64722"
      id="rect2080"
      transform="rotate(90)"
      opacity="0.2"
      stroke-width="0.999999"
    />
    <path
      d="m 712.93093,368.80205 v 0 0 -2.447 0 c -8.09899,-2.1049 -25.68456,-3.552 -34.68702,-3.552 -9.38968,0 -22.36096,1.2629 -30.81492,3.552 v 0 0 l 2.4e-4,32.1789 h 65.5017 z"
      id="path2082"
      fill="#dcdcdc"
      stroke-width="0.999999"
    />
    <path
      d="m 709.57518,222.40505 h 3.35575 v -32.1526 h -65.5017 v 32.1789 c 8.48601,2.3154 21.2637,5.078 30.78262,5.078 11.16422,0 21.65099,-1.9732 31.36333,-5.1043 z"
      id="path2084"
      fill="#dcdcdc"
      stroke-width="0.999999"
    />
    <path
      d="m 644.00875,398.71775 v -32.1786 l 3.42048,-0.1841 v 32.1789 z"
      id="path2086"
      fill="#999999"
      stroke-width="0.999999"
    />
    <path
      d="m 643.9444,190.41025 v 32.1789 l 3.48483,-0.1841 v -32.1527 l -3.48483,0.1578 z"
      id="path2088"
      fill="#999999"
      stroke-width="0.999999"
    />
    <rect
      height="1.4842777"
      width="32.178898"
      y="-622.97089"
      enable-background="new    "
      x="190.25244"
      id="rect2090"
      transform="rotate(90)"
      opacity="0.15"
      stroke-width="0.999999"
    />
    <rect
      height="1.4842777"
      width="32.178898"
      enable-background="new    "
      x="190.25244"
      id="rect2092"
      y="-712.93091"
      transform="rotate(90)"
      opacity="0.5"
      fill="#ffffff"
      stroke-width="0.999999"
    />
    <rect
      height="1.4842777"
      width="32.205231"
      y="-622.97089"
      enable-background="new    "
      x="366.38135"
      id="rect2094"
      transform="rotate(90)"
      opacity="0.15"
      stroke-width="0.999999"
    />
    <rect
      height="1.4842777"
      width="32.205231"
      enable-background="new    "
      x="366.38135"
      id="rect2096"
      y="-712.93091"
      transform="rotate(90)"
      opacity="0.5"
      fill="#ffffff"
      stroke-width="0.999999"
    />
    <line
      x1="621.48657"
      y2="209.69653"
      y1="209.69653"
      x2="621.48657"
      id="line2098"
      fill="none"
      stroke-width="0.999999"
    />
    <rect
      height="22.328691"
      width="3.1047549"
      y="-644.00873"
      x="396.11279"
      id="rect2100"
      transform="rotate(90)"
      fill="#999999"
      stroke-width="0.999999"
    />
    <rect
      height="22.328691"
      width="3.1310685"
      y="-644.00873"
      x="190.25244"
      id="rect2102"
      transform="rotate(90)"
      fill="#999999"
      stroke-width="0.999999"
    />
    <rect
      height="86.50753"
      width="209.59734"
      x="189.64722"
      id="rect2106"
      y="-590.89355"
      transform="rotate(90)"
      fill="#4d4d4d"
      stroke-width="0.999999"
    />
    <rect
      height="1.4842777"
      width="209.59734"
      enable-background="new    "
      x="189.64722"
      id="rect2108"
      y="-590.89355"
      transform="rotate(90)"
      opacity="0.2"
      fill="#ffffff"
      stroke-width="0.999999"
    />
    <rect
      height="25.781202"
      width="209.59734"
      y="-525.39185"
      x="189.64722"
      id="rect2110"
      transform="rotate(90)"
      fill="#333333"
      stroke-width="0.999999"
    />
    <rect
      height="1.0325397"
      width="209.59734"
      y="-500.4816"
      enable-background="new    "
      x="189.64722"
      id="rect2112"
      transform="rotate(90)"
      opacity="0.2"
      stroke-width="0.999999"
    />
    <path
      d="m 590.89355,368.80205 v 0 0 -2.447 0 c -8.09899,-2.1049 -25.68456,-3.552 -34.68702,-3.552 -9.38968,0 -22.36096,1.2629 -30.81492,3.552 v 0 0 l 2.4e-4,32.1789 h 65.5017 z"
      id="path2114"
      fill="#dcdcdc"
      stroke-width="0.999999"
    />
    <path
      d="m 587.5378,222.40505 h 3.35575 v -32.1526 h -65.5017 v 32.1789 c 8.48601,2.3154 21.2637,5.078 30.78262,5.078 11.16422,0 21.65099,-1.9732 31.36333,-5.1043 z"
      id="path2116"
      fill="#dcdcdc"
      stroke-width="0.999999"
    />
    <path
      d="m 521.97137,398.71775 v -32.1786 l 3.42048,-0.1841 v 32.1789 z"
      id="path2118"
      fill="#999999"
      stroke-width="0.999999"
    />
    <path
      d="m 521.90702,190.41025 v 32.1789 l 3.48483,-0.1841 v -32.1527 l -3.48483,0.1578 z"
      id="path2120"
      fill="#999999"
      stroke-width="0.999999"
    />
    <rect
      height="1.4842777"
      width="32.178898"
      y="-500.9335"
      enable-background="new    "
      x="190.25244"
      id="rect2122"
      transform="rotate(90)"
      opacity="0.15"
      stroke-width="0.999999"
    />
    <rect
      height="1.4842777"
      width="32.178898"
      enable-background="new    "
      x="190.25244"
      id="rect2124"
      y="-590.89355"
      transform="rotate(90)"
      opacity="0.5"
      fill="#ffffff"
      stroke-width="0.999999"
    />
    <rect
      height="1.4842777"
      width="32.205231"
      y="-500.9335"
      enable-background="new    "
      x="366.38135"
      id="rect2126"
      transform="rotate(90)"
      opacity="0.15"
      stroke-width="0.999999"
    />
    <rect
      height="1.4842777"
      width="32.205231"
      enable-background="new    "
      x="366.38135"
      id="rect2128"
      y="-590.89355"
      transform="rotate(90)"
      opacity="0.5"
      fill="#ffffff"
      stroke-width="0.999999"
    />
    <line
      x1="499.44919"
      y2="209.69653"
      y1="209.69653"
      x2="499.44919"
      id="line2130"
      fill="none"
      stroke-width="0.999999"
    />
    <rect
      height="22.328691"
      width="3.1047549"
      y="-521.97137"
      x="396.11279"
      id="rect2132"
      transform="rotate(90)"
      fill="#999999"
      stroke-width="0.999999"
    />
    <rect
      height="22.328691"
      width="3.1310685"
      y="-521.97137"
      x="190.25244"
      id="rect2134"
      transform="rotate(90)"
      fill="#999999"
      stroke-width="0.999999"
    />
    <rect
      height="116.07039"
      width="178.34734"
      x="424.02222"
      id="rect2138"
      y="-825.26855"
      transform="rotate(90)"
      fill="#d4aa00"
      stroke-width="1"
    />
    <rect
      height="1.9915109"
      width="178.34734"
      enable-background="new    "
      x="424.02222"
      id="rect2140"
      y="-825.26855"
      transform="rotate(90)"
      opacity="0.2"
      fill="#ffffff"
      stroke-width="1"
    />
    <rect
      height="34.591602"
      width="178.34734"
      y="-737.38245"
      x="424.02222"
      id="rect2142"
      transform="rotate(90)"
      fill="#333333"
      stroke-width="1"
    />
    <rect
      height="1.3853972"
      width="178.34734"
      y="-703.95947"
      enable-background="new    "
      x="424.02222"
      id="rect2144"
      transform="rotate(90)"
      opacity="0.2"
      stroke-width="1"
    />
    <path
      d="m 825.26854,576.46595 v 0 0 -2.0822 0 c -10.86672,-1.7911 -34.46193,-3.0225 -46.54087,-3.0225 -12.59848,0 -30.00254,1.0747 -41.34553,3.0225 v 0 0 l 3.1e-4,27.3812 h 87.88609 z"
      id="path2146"
      fill="#dcdcdc"
      stroke-width="1"
    />
    <path
      d="m 820.76601,451.89605 h 4.50253 v -27.3589 h -87.88609 v 27.3812 c 11.38601,1.9702 28.53031,4.321 41.3022,4.321 14.97945,0 29.04994,-1.6791 42.08136,-4.3433 z"
      id="path2148"
      fill="#dcdcdc"
      stroke-width="1"
    />
    <path
      d="m 732.79308,601.92125 v -27.3808 l 4.58937,-0.1567 v 27.3812 z"
      id="path2150"
      fill="#999999"
      stroke-width="1"
    />
    <path
      d="m 732.70673,424.67155 v 27.3811 l 4.67572,-0.1566 v -27.3589 l -4.67572,0.1343 z"
      id="path2152"
      fill="#999999"
      stroke-width="1"
    />
    <rect
      height="1.9915109"
      width="27.381172"
      y="-704.56573"
      enable-background="new    "
      x="424.53711"
      id="rect2154"
      transform="rotate(90)"
      opacity="0.15"
      stroke-width="1"
    />
    <rect
      height="1.9915109"
      width="27.381172"
      enable-background="new    "
      x="424.53711"
      id="rect2156"
      y="-825.26855"
      transform="rotate(90)"
      opacity="0.5"
      fill="#ffffff"
      stroke-width="1"
    />
    <rect
      height="1.9915109"
      width="27.40358"
      y="-704.56573"
      enable-background="new    "
      x="574.40625"
      id="rect2158"
      transform="rotate(90)"
      opacity="0.15"
      stroke-width="1"
    />
    <rect
      height="1.9915109"
      width="27.40358"
      enable-background="new    "
      x="574.40625"
      id="rect2160"
      y="-825.26855"
      transform="rotate(90)"
      opacity="0.5"
      fill="#ffffff"
      stroke-width="1"
    />
    <line
      x1="702.57422"
      y2="441.08228"
      y1="441.08228"
      x2="702.57422"
      id="line2162"
      fill="none"
      stroke-width="1"
    />
    <rect
      height="29.95924"
      width="2.6418502"
      y="-732.79309"
      x="599.70483"
      id="rect2164"
      transform="rotate(90)"
      fill="#999999"
      stroke-width="1"
    />
    <rect
      height="29.95924"
      width="2.6642406"
      y="-732.79309"
      x="424.53711"
      id="rect2166"
      transform="rotate(90)"
      fill="#999999"
      stroke-width="1"
    />
    <rect
      id="rect2358"
      width="59.895832"
      height="247.39583"
      x="69.803429"
      y="453.12476"
      fill="#e9ddaf"
      stroke="none"
      stroke-width="0"
    />
    <rect
      id="rect2378"
      width="205.72916"
      height="36.45834"
      x="201.53488"
      y="518.229"
      fill="#b3b3b3"
      stroke="none"
      stroke-width="0"
    />
    <rect
      id="rect2398"
      width="205.72916"
      height="36.45834"
      x="201.53488"
      y="589.08276"
      fill="#b3b3b3"
      stroke="none"
      stroke-width="0"
    />
    <rect
      id="rect2228"
      width="205.72916"
      height="322.91666"
      x="97.368248"
      y="414.06226"
      fill="#fff6d5"
      stroke="none"
      stroke-width="0"
    />
    <rect
      id="rect2354"
      width="205.72916"
      height="36.45834"
      x="172.88907"
      y="414.06226"
      fill="#fff6d5"
      stroke="none"
      stroke-width="0"
    />
    <rect
      id="rect2356"
      width="205.72916"
      height="36.45834"
      x="172.88907"
      y="701.44507"
      fill="#fff6d5"
      stroke="none"
      stroke-width="0"
    />
    <rect
      id="rect2408"
      width="59.895832"
      height="247.39583"
      x="-1615.5973"
      y="-701.44507"
      transform="scale(-1)"
      fill="#e9ddaf"
      stroke="none"
      stroke-width="0"
    />
    <rect
      id="rect2410"
      width="205.72916"
      height="36.45834"
      x="-1483.8658"
      y="-636.34082"
      transform="scale(-1)"
      fill="#b3b3b3"
      stroke="none"
      stroke-width="0"
    />
    <rect
      id="rect2412"
      width="205.72916"
      height="36.45834"
      x="-1483.8658"
      y="-565.48706"
      transform="scale(-1)"
      fill="#b3b3b3"
      stroke="none"
      stroke-width="0"
    />
    <rect
      id="rect2414"
      width="205.72916"
      height="322.91666"
      x="-1588.0325"
      y="-740.50757"
      transform="scale(-1)"
      fill="#fff6d5"
      stroke="none"
      stroke-width="0"
    />
    <rect
      id="rect2416"
      width="205.72916"
      height="36.45834"
      x="-1512.5116"
      y="-740.50757"
      transform="scale(-1)"
      fill="#fff6d5"
      stroke="none"
      stroke-width="0"
    />
    <rect
      id="rect2418"
      width="205.72916"
      height="36.45834"
      x="-1512.5116"
      y="-453.12476"
      transform="scale(-1)"
      fill="#fff6d5"
      stroke="none"
      stroke-width="0"
    />
    <rect
      id="rect2422"
      width="59.895832"
      height="247.39583"
      x="-1615.5973"
      y="-311.69604"
      transform="scale(-1)"
      fill="#e9ddaf"
      stroke="none"
      stroke-width="0"
    />
    <rect
      id="rect2424"
      width="205.72916"
      height="36.45834"
      x="-1483.8658"
      y="-246.5918"
      transform="scale(-1)"
      fill="#b3b3b3"
      stroke="none"
      stroke-width="0"
    />
    <rect
      id="rect2426"
      width="205.72916"
      height="36.45834"
      x="-1483.8658"
      y="-175.73804"
      transform="scale(-1)"
      fill="#b3b3b3"
      stroke="none"
      stroke-width="0"
    />
    <rect
      id="rect2428"
      width="205.72916"
      height="322.91666"
      x="-1588.0325"
      y="-350.75854"
      transform="scale(-1)"
      fill="#fff6d5"
      stroke="none"
      stroke-width="0"
    />
    <rect
      id="rect2430"
      width="205.72916"
      height="36.45834"
      x="-1512.5116"
      y="-350.75854"
      transform="scale(-1)"
      fill="#fff6d5"
      stroke="none"
      stroke-width="0"
    />
    <rect
      id="rect2432"
      width="205.72916"
      height="36.45834"
      x="-1512.5116"
      y="-63.375732"
      transform="scale(-1)"
      fill="#fff6d5"
      stroke="none"
      stroke-width="0"
    />
    <text
      fill="#ffffff"
      font-family="OCRA"
      id="text3685"
      font-size="60"
      y="52.812256"
      x="310.25034">Solar Charger v1.0</text>
    <text
      fill="#ffffff"
      font-family="OCRA"
      id="text2446"
      font-size="60"
      y="396.56226"
      x="109.72952">4.4-6.0V</text>
    <text
      fill="#ffffff"
      font-family="OCRA"
      id="text2448"
      font-size="120"
      y="578.43823"
      x="455.08627">+</text>
    <text
      fill="#ffffff"
      font-family="OCRA"
      id="text2450"
      font-size="120"
      y="656.56323"
      x="1160.8154">+</text>
    <text
      fill="#ffffff"
      font-family="OCRA"
      id="text2452"
      font-size="120"
      y="273.75073"
      x="1166.0237">+</text>
    <text
      fill="#ffffff"
      font-family="OCRA"
      id="text2454"
      font-size="120"
      y="653.24316"
      x="455.08627">-</text>
    <text
      fill="#ffffff"
      font-family="OCRA"
      id="text2456"
      font-size="120"
      y="572.51392"
      x="1155.6071">-</text>
    <text
      fill="#ffffff"
      font-family="OCRA"
      id="text2458"
      font-size="120"
      y="187.09717"
      x="1163.4196">-</text>
    <text
      fill="#ffffff"
      font-family="OCRA"
      id="text2460"
      font-size="120"
      y="658.45142"
      x="879.56543">-</text>
    <text
      fill="#ffffff"
      font-family="OCRA"
      id="text2462"
      font-size="120"
      y="663.65967"
      x="728.52374">-</text>
    <text
      fill="#ffffff"
      font-family="OCRA"
      id="text2464"
      font-size="120"
      y="661.77148"
      x="978.52374">+</text>
    <text
      fill="#ffffff"
      font-family="OCRA"
      id="text2466"
      font-size="120"
      y="659.16724"
      x="624.35706">+</text>
    <text
      fill="#ffffff"
      font-family="OCRA"
      id="text2468"
      font-size="60"
      y="372.70865"
      x="-248.15796"
      transform="rotate(-90)">USB</text>
    <text
      fill="#ffffff"
      font-family="OCRA"
      id="text2470"
      font-size="60"
      y="601.87531"
      x="-659.61621"
      transform="rotate(-90)">SOLAR</text>
    <text
      fill="#ffffff"
      font-family="OCRA"
      id="text2472"
      font-size="50"
      y="1153.9586"
      x="-693.47046"
      transform="rotate(-90)">BATT IN</text>
    <text
      fill="#ffffff"
      font-family="OCRA"
      id="text2474"
      font-size="50"
      y="1153.9586"
      x="-319.44629"
      transform="rotate(-90)">SYS OUT</text>
    <text
      fill="#ffffff"
      font-family="OCRA"
      id="text2476"
      font-size="50"
      y="120.47949"
      x="1009.7419">OK</text>
    <text
      fill="#ffffff"
      font-family="OCRA"
      id="text2478"
      font-size="50"
      y="179.53955"
      x="1009.7419">CH</text>
    <rect
      id="connector0pin"
      width="35.999996"
      height="36.45834"
      x="69.999992"
      y="517.99994"
      fill="none"
      stroke="none"
      stroke-width="0"
    />
    <rect
      id="connector1pin"
      width="35.999996"
      height="36.45834"
      x="69.999992"
      y="588.99994"
      fill="none"
      stroke="none"
      stroke-width="0"
    />
    <circle
      id="connector2pin"
      cx="673.76404"
      cy="691.21191"
      r="29"
      fill="#ffffff"
      stroke="#999999"
      stroke-width="20"
    />
    <circle
      id="connector3pin"
      cx="773.76404"
      cy="691.21191"
      r="29"
      fill="#ffffff"
      stroke="#999999"
      stroke-width="20"
    />
    <circle
      id="connector4pin"
      cx="923.3703"
      cy="691.21191"
      r="29"
      fill="#ffffff"
      stroke="#999999"
      stroke-width="20"
    />
    <circle
      id="connector5pin"
      cx="1023.764"
      cy="691.21191"
      r="29"
      fill="#ffffff"
      stroke="#999999"
      stroke-width="20"
    />
    <rect
      id="connector6pin"
      width="35.999996"
      height="36.45834"
      x="-1617.2991"
      y="-636.45831"
      transform="scale(-1)"
      fill="none"
      stroke="none"
      stroke-width="0"
    />
    <rect
      id="connector7pin"
      width="35.999996"
      height="36.45834"
      x="-1616.9999"
      y="-565.48706"
      transform="scale(-1)"
      fill="none"
      stroke="none"
      stroke-width="0"
    />
    <rect
      id="connector8pin"
      width="35.999996"
      height="36.45834"
      x="-1616.9999"
      y="-246.45833"
      transform="scale(-1)"
      fill="none"
      stroke="none"
      stroke-width="0"
    />
    <rect
      id="connector9pin"
      width="35.999996"
      height="36.45834"
      x="-1616.9999"
      y="-175.45833"
      transform="scale(-1)"
      fill="none"
      stroke="none"
      stroke-width="0"
    />
  </g>
</svg>
