<svg xmlns="http://www.w3.org/2000/svg" xmlns:xml="http://www.w3.org/XML/1998/namespace" id="Layer_1" width="100.8" height="64.8" enable-background="new 0 0 100.8 64.8" gorn="0" overflow="visible" version="1.1" viewBox="0 0 100.8 64.8" xml:space="preserve"><desc><referenceFile>Adafruit_BMP180_schematic.svg</referenceFile></desc><desc>Fritzing schematic generated by brd2svg</desc><g id="schematic" gorn=".1"><rect width="71.551" height="36" x="14.4" y="14.4" fill="none" stroke="#000" stroke-linecap="round" stroke-linejoin="round" stroke-width=".9"/><g transform="matrix(1 0 0 1 43.8906 28.7993)"><text id="label" font-family="'DroidSans'" font-size="3.5" gorn="0.1.1.0">BMP180</text></g><line x1=".35" x2="14.4" y1="28.8" y2="28.8" fill="none" stroke="#787878" stroke-linecap="round" stroke-linejoin="round" stroke-width=".7"/><rect id="connector7pin" width="14.4" height=".7" y="28.45" fill="none" gorn="0.1.3"/><rect id="connector7terminal" width="0" height=".7" y="28.45" fill="none" gorn="0.1.4"/><g transform="matrix(1 0 0 1 15.7998 29.4995)"><text id="label7" fill="#8C8C8C" font-family="'DroidSans'" font-size="3.5" gorn="0.1.5.0">SCL</text></g><rect width="0" height=".7" x="100.8" y="28.45" fill="none" gorn="0.1.6"/><line x1="50.4" x2="50.4" y1=".35" y2="14.4" fill="none" stroke="#787878" stroke-linecap="round" stroke-linejoin="round" stroke-width=".7"/><rect id="connector4pin" width=".7" height="14.4" x="50.05" fill="none" gorn="0.1.8"/><polygon id="connector4terminal" fill="none" points="50.05 0 50.75 0 50.75 0" gorn="0.1.9"/><g><g><g><g><g transform="matrix(1, 0, 0, 1, 51.8, 16) rotate(270) matrix(1 0 0 1 -5.8433 -6.713867e-004)"><text id="label4" fill="#8C8C8C" font-family="'DroidSans'" font-size="3.5" gorn="0.1.10.0.0.0.0.0">+5V</text></g></g></g></g></g><line x1="57.6" x2="57.6" y1=".35" y2="14.4" fill="none" stroke="#787878" stroke-linecap="round" stroke-linejoin="round" stroke-width=".7"/><rect id="connector5pin" width=".701" height="14.4" x="57.25" fill="none" gorn="0.1.12"/><polygon id="connector5terminal" fill="none" points="57.25 0 57.951 0 57.951 0" gorn="0.1.13"/><g><g><g><g><g transform="matrix(1, 0, 0, 1, 59, 16) rotate(270) matrix(1 0 0 1 -7.771 -4.882813e-004)"><text id="label5" fill="#8C8C8C" font-family="'DroidSans'" font-size="3.5" gorn="0.1.14.0.0.0.0.0">+3V3</text></g></g></g></g></g><line x1="50.4" x2="50.4" y1="50.4" y2="64.451" fill="none" stroke="#787878" stroke-linecap="round" stroke-linejoin="round" stroke-width=".7"/><rect id="connector6pin" width=".7" height="14.4" x="50.05" y="50.4" fill="none" gorn="0.1.16"/><polygon id="connector6terminal" fill="none" points="50.05 64.8 50.75 64.8 50.75 64.8" gorn="0.1.17"/><g><g><g><g><g transform="matrix(1, 0, 0, 1, 51.8, 48.8) rotate(270) matrix(1 0 0 1 6.713867e-004 -6.713867e-004)"><text id="label6" fill="#8C8C8C" font-family="'DroidSans'" font-size="3.5" gorn="0.1.18.0.0.0.0.0">GND</text></g></g></g></g></g><line x1=".35" x2="14.4" y1="37.8" y2="37.8" fill="none" stroke="#787878" stroke-linecap="round" stroke-linejoin="round" stroke-width=".7"/><rect id="connector8pin" width="14.4" height=".699" y="37.451" fill="none" gorn="0.1.20"/><rect id="connector8terminal" width=".029" height=".001" x="-.014" y="37.8" fill="none" stroke="none" stroke-width="0"/><rect id="connector7terminal_1_" width="0" height=".699" y="37.451" fill="none" gorn="0.1.21"/><g transform="matrix(1 0 0 1 15.7998 38.4995)"><text id="label7_1_" fill="#8C8C8C" font-family="'DroidSans'" font-size="3.5" gorn="0.1.22.0">SDA</text></g></g></svg>