<svg xmlns="http://www.w3.org/2000/svg" width="66.72" height="67.68" x="0" y="0" baseProfile="tiny" version="1.2" viewBox="0 0 50.04 50.76"><desc><referenceFile>Adafruit SGP30_pcb.svg</referenceFile></desc><desc>Fritzing footprint generated by brd2svg</desc><g id="silkscreen" gorn=".1"><path fill="none" stroke="#fff" stroke-width=".576" d="M0.288,43.3537L0.288,7.40628A6.912,6.912,0,0,1,7.40513,0.288L42.6349,0.288A6.912,6.912,0,0,1,49.752,7.40628L49.752,43.3537A6.912,6.912,0,0,1,42.6349,50.472L7.40513,50.472A6.912,6.912,0,0,1,0.288,43.3537"/><g><title>element:JP2</title><g><title>package:1X05_ROUND</title></g></g></g><g id="copper1" gorn=".2"><g id="copper0" gorn="0.2.0"><circle id="connector13pad" cx="10.8" cy="43.56" r="1.897" fill="none" stroke="#F7BD13" stroke-width=".959" connectorname="VIN" gorn="0.2.0.0"/><circle id="connector40pad" cx="42.84" cy="7.56" r="4.263" fill="none" stroke="#F7BD13" stroke-width="1.44" connectorname="P$1" gorn="0.2.0.1"/><circle id="connector14pad" cx="18" cy="43.56" r="1.897" fill="none" stroke="#F7BD13" stroke-width=".959" connectorname="V+" gorn="0.2.0.2"/><circle id="connector15pad" cx="25.2" cy="43.56" r="1.897" fill="none" stroke="#F7BD13" stroke-width=".959" connectorname="GND" gorn="0.2.0.3"/><circle id="connector16pad" cx="32.4" cy="43.56" r="1.897" fill="none" stroke="#F7BD13" stroke-width=".959" connectorname="SCL" gorn="0.2.0.4"/><circle id="connector17pad" cx="39.6" cy="43.56" r="1.897" fill="none" stroke="#F7BD13" stroke-width=".959" connectorname="SDA" gorn="0.2.0.5"/><circle id="connector39pad" cx="7.2" cy="7.56" r="4.263" fill="none" stroke="#F7BD13" stroke-width="1.44" connectorname="P$1" gorn="0.2.0.6"/></g></g></svg>