<svg xmlns="http://www.w3.org/2000/svg" id="svg3726" width="66.72" height="67.68" x="0" y="0" gorn="0" version="1.2" viewBox="0 0 50.04 50.76"><desc><referenceFile>Adafruit SGP30_breadboard.svg</referenceFile></desc><metadata id="metadata4119"/><desc id="desc3728">Fritzing breadboard generated by brd2svg</desc><g id="icon" gorn=".3"><path style="fill:#014cb1;stroke:none;stroke-width:0" id="path3732" d="M 0,43.56 0,7.2 A 7.2,7.2 0 0 1 7.2,0 l 35.64,0 a 7.2,7.2 0 0 1 7.2,7.2 l 0,36.36 a 7.2,7.2 0 0 1 -7.2,7.2 l -35.64,0 A 7.2,7.2 0 0 1 0,43.56 m 9.38268,0 a 1.417325,1.417325 0 1 0 2.83465,0 1.417325,1.417325 0 1 0 -2.83465,0 z m 7.20002,0 a 1.417325,1.417325 0 1 0 2.83465,0 1.417325,1.417325 0 1 0 -2.83465,0 z m 7.2,0 a 1.417325,1.417325 0 1 0 2.83465,0 1.417325,1.417325 0 1 0 -2.83465,0 z m 7.2,0 a 1.417325,1.417325 0 1 0 2.83465,0 1.417325,1.417325 0 1 0 -2.83465,0 z m 7.2,0 a 1.417325,1.417325 0 1 0 2.83465,0 1.417325,1.417325 0 1 0 -2.83465,0 z M 3.65669,7.56 a 3.54331,3.54331 0 1 0 7.08661,0 3.54331,3.54331 0 1 0 -7.08661,0 z m 35.64001,0 a 3.54331,3.54331 0 1 0 7.08661,0 3.54331,3.54331 0 1 0 -7.08661,0 z" gorn="0.3.0"/><g id="g3734" gorn="0.3.1"><title id="title3736">layer 21</title><g id="g3738" gorn="0.3.1.1"><title id="title3740">text:VIN</title><text font-size="3.341" style="font-size:3.34080005px;font-family:OCRA;text-anchor:middle;fill:#fff;stroke:none;stroke-width:0" id="text3742" x="10.8" y="40.55" gorn="0.3.1.1.1">VIN</text></g><g id="g3744" gorn="0.3.1.2"><title id="title3746">text:1V8</title><text font-size="3.341" style="font-size:3.34080005px;font-family:OCRA;text-anchor:middle;fill:#fff;stroke:none;stroke-width:0" id="text3748" x="18" y="49.91" gorn="0.3.1.2.1">1V8</text></g><g id="g3750" gorn="0.3.1.3"><title id="title3752">text:GND</title><text font-size="3.341" style="font-size:3.34080005px;font-family:OCRA;text-anchor:middle;fill:#fff;stroke:none;stroke-width:0" id="text3754" x="25.2" y="40.55" gorn="0.3.1.3.1">GND</text></g><g id="g3756" gorn="0.3.1.4"><title id="title3758">text:SDA</title><text font-size="3.341" style="font-size:3.34080005px;font-family:OCRA;text-anchor:middle;fill:#fff;stroke:none;stroke-width:0" id="text3760" x="39.6" y="40.55" gorn="0.3.1.4.1">SDA</text></g><g id="g3762" gorn="0.3.1.5"><title id="title3764">text:SCL</title><text font-size="3.341" style="font-size:3.34080005px;font-family:OCRA;text-anchor:middle;fill:#fff;stroke:none;stroke-width:0" id="text3766" x="32.4" y="49.91" gorn="0.3.1.5.1">SCL</text></g><g id="g3768" gorn="0.3.1.6"><title id="title3770">text:SGP30</title><text font-size="5.846" style="font-size:5.84639978px;font-family:OCRA;text-anchor:middle;fill:#fff;stroke:none;stroke-width:0" id="text3772" x="25.56" y="10.843" gorn="0.3.1.6.1">SGP30</text></g><g id="g3774" gorn="0.3.1.7"><title id="title3776">text:Gas Sensor</title><text font-size="3.341" style="font-size:3.34080005px;font-family:OCRA;text-anchor:start;fill:#fff;stroke:none;stroke-width:0" id="text3778" x="12.6" y="3.96" gorn="0.3.1.7.1">Gas Sensor</text></g><g id="g3780" gorn="0.3.1.8"><title id="title3782">element:C1</title><g id="g3784" gorn="0.3.1.8.1"><title id="title3786">package:0805-NO</title><line y2="31.68" style="stroke:#fff;stroke-width:.86400002;stroke-linecap:round" id="line3788" x1="26.28" x2="26.28" y1="34.56" gorn="0.3.1.8.1.1"/></g></g><g id="g3790" gorn="0.3.1.9"><title id="title3792">element:C2</title><g id="g3794" gorn="0.3.1.9.1"><title id="title3796">package:0805-NO</title><line y2="35.28" style="stroke:#fff;stroke-width:.86400002;stroke-linecap:round" id="line3798" x1="7.92" x2="7.92" y1="32.4" gorn="0.3.1.9.1.1"/></g></g><g id="g3800" gorn="0.3.1.10"><title id="title3802">element:C3</title><g id="g3804" gorn="0.3.1.10.1"><title id="title3806">package:0805-NO</title><line y2="16.2" style="stroke:#fff;stroke-width:.86400002;stroke-linecap:round" id="line3808" x1="7.56" x2="7.56" y1="19.08" gorn="0.3.1.10.1.1"/></g></g><g id="g3810" gorn="0.3.1.11"><title id="title3812">element:FID1</title><g id="g3814" gorn="0.3.1.11.1"><title id="title3816">package:FIDUCIAL_1MM</title></g></g><g id="g3818" gorn="0.3.1.12"><title id="title3820">element:FID2</title><g id="g3822" gorn="0.3.1.12.1"><title id="title3824">package:FIDUCIAL_1MM</title></g></g><g id="g3826" gorn="0.3.1.13"><title id="title3828">element:JP2</title><g id="g3830" gorn="0.3.1.13.1"><title id="title3832">package:1X05_ROUND</title></g></g><g id="g3834" gorn="0.3.1.14"><title id="title3836">element:Q1</title><g id="g3838" gorn="0.3.1.14.1"><title id="title3840">package:SOT23-WIDE</title><line y2="29.448" style="stroke:#fff;stroke-width:.57599998;stroke-linecap:round" id="line3842" x1="34.139" x2="34.139" y1="33.169" gorn="0.3.1.14.1.1"/><line y2="29.448" style="stroke:#fff;stroke-width:.57599998;stroke-linecap:round" id="line3844" x1="34.139" x2="36.857" y1="29.448" gorn="0.3.1.14.1.2"/><line y2="33.169" style="stroke:#fff;stroke-width:.57599998;stroke-linecap:round" id="line3846" x1="43.621" x2="43.621" y1="29.448" gorn="0.3.1.14.1.3"/><line y2="29.448" style="stroke:#fff;stroke-width:.57599998;stroke-linecap:round" id="line3848" x1="40.903" x2="43.621" y1="29.448" gorn="0.3.1.14.1.4"/><line y2="33.192" style="stroke:#fff;stroke-width:.57599998;stroke-linecap:round" id="line3850" x1="39.51" x2="38.21" y1="33.192" gorn="0.3.1.14.1.5"/></g></g><g id="g3852" gorn="0.3.1.15"><title id="title3854">element:Q4</title><g id="g3856" gorn="0.3.1.15.1"><title id="title3858">package:SOT23-WIDE</title><line y2="13.608" style="stroke:#fff;stroke-width:.57599998;stroke-linecap:round" id="line3860" x1="20.459" x2="20.459" y1="17.329" gorn="0.3.1.15.1.1"/><line y2="13.608" style="stroke:#fff;stroke-width:.57599998;stroke-linecap:round" id="line3862" x1="20.459" x2="23.177" y1="13.608" gorn="0.3.1.15.1.2"/><line y2="17.329" style="stroke:#fff;stroke-width:.57599998;stroke-linecap:round" id="line3864" x1="29.941" x2="29.941" y1="13.608" gorn="0.3.1.15.1.3"/><line y2="13.608" style="stroke:#fff;stroke-width:.57599998;stroke-linecap:round" id="line3866" x1="27.223" x2="29.941" y1="13.608" gorn="0.3.1.15.1.4"/><line y2="17.352" style="stroke:#fff;stroke-width:.57599998;stroke-linecap:round" id="line3868" x1="25.83" x2="24.53" y1="17.352" gorn="0.3.1.15.1.5"/></g></g><g id="g3870" gorn="0.3.1.16"><title id="title3872">element:R1</title><g id="g3874" gorn="0.3.1.16.1"><title id="title3876">package:RESPACK_4X0603</title><line y2="16.192" style="stroke:#fff;stroke-width:.57599998;stroke-linecap:round" id="line3878" x1="34.214" x2="34.214" y1="24.128" gorn="0.3.1.16.1.1"/><line y2="24.128" style="stroke:#fff;stroke-width:.57599998;stroke-linecap:round" id="line3880" x1="44.986" x2="44.986" y1="16.192" gorn="0.3.1.16.1.2"/></g></g><g id="g3882" gorn="0.3.1.17"><title id="title3884">element:U$1</title><g id="g3886" gorn="0.3.1.17.1"><title id="title3888">package:ADAFRUIT_3.5MM</title></g></g><g id="g3890" gorn="0.3.1.18"><title id="title3892">element:U$2</title><g id="g3894" gorn="0.3.1.18.1"><title id="title3896">package:SGP30</title><line y2="21.875" style="stroke:#fff;stroke-width:.283465;stroke-linecap:round" id="line3898" x1="21.515" x2="28.885" y1="21.875" gorn="0.3.1.18.1.1"/><line y2="29.245" style="stroke:#fff;stroke-width:.283465;stroke-linecap:round" id="line3900" x1="28.885" x2="28.885" y1="21.875" gorn="0.3.1.18.1.2"/><line y2="29.245" style="stroke:#fff;stroke-width:.283465;stroke-linecap:round" id="line3902" x1="28.885" x2="21.515" y1="29.245" gorn="0.3.1.18.1.3"/><line y2="21.875" style="stroke:#fff;stroke-width:.283465;stroke-linecap:round" id="line3904" x1="21.515" x2="21.515" y1="29.245" gorn="0.3.1.18.1.4"/><circle cx="20.665" style="fill:none;stroke:#fff;stroke-width:.283465" id="circle3906" cy="21.025" r=".634" gorn="0.3.1.18.1.5"/></g></g><g id="g3908" gorn="0.3.1.19"><title id="title3910">element:U$3</title><g id="g3912" gorn="0.3.1.19.1"><title id="title3914">package:MOUNTINGHOLE_2.5_PLATED</title><circle cx="7.2" style="fill:none;stroke:#fff;stroke-width:.57599998" id="circle3916" cy="7.56" r="5.669" gorn="0.3.1.19.1.1"/></g></g><g id="g3918" gorn="0.3.1.20"><title id="title3920">element:U$4</title><g id="g3922" gorn="0.3.1.20.1"><title id="title3924">package:MOUNTINGHOLE_2.5_PLATED</title><circle cx="42.84" style="fill:none;stroke:#fff;stroke-width:.57599998" id="circle3926" cy="7.56" r="5.669" gorn="0.3.1.20.1.1"/></g></g><g id="g3928" gorn="0.3.1.21"><title id="title3930">element:U$8</title><g id="g3932" gorn="0.3.1.21.1"><title id="title3934">package:ADAFRUIT_2.5MM</title></g></g><g id="g3936" gorn="0.3.1.22"><title id="title3938">element:U$27</title><g id="g3940" gorn="0.3.1.22.1"><title id="title3942">package:PCBFEAT-REV-040</title></g></g><g id="g3944" gorn="0.3.1.23"><title id="title3946">element:U2</title><g id="g3948" gorn="0.3.1.23.1"><title id="title3950">package:SOT23-5</title><line y2="20.883" style="stroke:#fff;stroke-width:.57599998;stroke-linecap:round" id="line3952" x1="10.188" x2="5.652" y1="20.883" gorn="0.3.1.23.1.1"/><line y2="30.237" style="stroke:#fff;stroke-width:.57599998;stroke-linecap:round" id="line3954" x1="10.188" x2="5.652" y1="30.237" gorn="0.3.1.23.1.2"/><line y2="26.694" style="stroke:#fff;stroke-width:.57599998;stroke-linecap:round" id="line3956" x1="10.896" x2="10.896" y1="24.426" gorn="0.3.1.23.1.3"/></g></g></g><g transform="matrix(-1,0,0,-1,57.9458,66.24)"><g id="g3958" gorn="0.3.2.0"><rect width="3.515" style="fill:#9a916c;stroke:none;stroke-width:0" id="connector5pin" height="4.252" x="27.215" y="30.994" gorn="0.3.2.0.0"/></g></g><g transform="matrix(-1,0,0,-1,47.1742,66.24)"><g id="g3961" gorn="0.3.3.0"><rect width="3.515" style="fill:#9a916c;stroke:none;stroke-width:0" id="connector6pin" height="4.252" x="21.83" y="30.994" gorn="0.3.3.0.0"/></g></g><rect width="3.515" style="fill:#9a916c;stroke:none;stroke-width:0" id="connector7pin" height="4.252" x="3.47" y="31.714" gorn="0.3.4"/><rect width="3.515" style="fill:#9a916c;stroke:none;stroke-width:0" id="connector8pin" height="4.252" x="8.855" y="31.714" gorn="0.3.5"/><g transform="matrix(-1,0,0,-1,20.5058,35.28)"><g id="g3966" gorn="0.3.6.0"><rect width="3.515" style="fill:#9a916c;stroke:none;stroke-width:0" id="connector9pin" height="4.252" x="8.495" y="15.514" gorn="0.3.6.0.0"/></g></g><g transform="matrix(-1,0,0,-1,9.73418,35.28)"><g id="g3969" gorn="0.3.7.0"><rect width="3.515" style="fill:#9a916c;stroke:none;stroke-width:0" id="connector10pin" height="4.252" x="3.11" y="15.514" gorn="0.3.7.0.0"/></g></g><rect width="2.835" style="fill:#9a916c;stroke:none;stroke-width:0" id="connector11pin" height="2.835" x="45.023" y="39.983" gorn="0.3.8" rx="1.417" ry="1.417"/><rect width="2.835" style="fill:#9a916c;stroke:none;stroke-width:0" id="connector12pin" height="2.835" x="2.183" y="39.983" gorn="0.3.9" rx="1.417" ry="1.417"/><circle cx="10.8" style="fill:none;stroke:#9a916c;stroke-width:.95867997" id="connector13pin" cy="43.56" r="1.897" connectorname="VIN" gorn="0.3.10"/><circle cx="18" style="fill:none;stroke:#9a916c;stroke-width:.95867997" id="connector14pin" cy="43.56" r="1.897" connectorname="V+" gorn="0.3.11"/><circle cx="25.2" style="fill:none;stroke:#9a916c;stroke-width:.95867997" id="connector15pin" cy="43.56" r="1.897" connectorname="GND" gorn="0.3.12"/><circle cx="32.4" style="fill:none;stroke:#9a916c;stroke-width:.95867997" id="connector16pin" cy="43.56" r="1.897" connectorname="SCL" gorn="0.3.13"/><circle cx="39.6" style="fill:none;stroke:#9a916c;stroke-width:.95867997" id="connector17pin" cy="43.56" r="1.897" connectorname="SDA" gorn="0.3.14"/><rect width="2.835" style="fill:#9a916c;stroke:none;stroke-width:0" id="connector18pin" height="3.402" x="34.77" y="32.454" gorn="0.3.15"/><rect width="2.835" style="fill:#9a916c;stroke:none;stroke-width:0" id="connector19pin" height="3.402" x="40.156" y="32.454" gorn="0.3.16"/><rect width="2.835" style="fill:#9a916c;stroke:none;stroke-width:0" id="connector20pin" height="3.402" x="37.463" y="26.785" gorn="0.3.17"/><rect width="2.835" style="fill:#9a916c;stroke:none;stroke-width:0" id="connector21pin" height="3.402" x="21.09" y="16.614" gorn="0.3.18"/><rect width="2.835" style="fill:#9a916c;stroke:none;stroke-width:0" id="connector22pin" height="3.402" x="26.476" y="16.614" gorn="0.3.19"/><rect width="2.835" style="fill:#9a916c;stroke:none;stroke-width:0" id="connector23pin" height="3.402" x="23.783" y="10.945" gorn="0.3.20"/><g transform="matrix(-1,0,0,-1,86.5699,35.5011)"><g id="g3985" gorn="0.3.21.0"><rect width="1.276" style="fill:#9a916c;stroke:none;stroke-width:0" id="connector24pin" height="2.551" x="42.647" y="16.475" gorn="0.3.21.0.0"/></g></g><g transform="matrix(-1,0,0,-1,81.468,35.5011)"><g id="g3988" gorn="0.3.22.0"><rect width="1.276" style="fill:#9a916c;stroke:none;stroke-width:0" id="connector25pin" height="2.551" x="40.096" y="16.475" gorn="0.3.22.0.0"/></g></g><g transform="matrix(-1,0,0,-1,76.932,35.5011)"><g id="g3991" gorn="0.3.23.0"><rect width="1.276" style="fill:#9a916c;stroke:none;stroke-width:0" id="connector26pin" height="2.551" x="37.828" y="16.475" gorn="0.3.23.0.0"/></g></g><g transform="matrix(-1,0,0,-1,71.8299,35.5011)"><g id="g3994" gorn="0.3.24.0"><rect width="1.276" style="fill:#9a916c;stroke:none;stroke-width:0" id="connector27pin" height="2.551" x="35.277" y="16.475" gorn="0.3.24.0.0"/></g></g><g transform="matrix(-1,0,0,-1,71.8299,45.1389)"><g id="g3997" gorn="0.3.25.0"><rect width="1.276" style="fill:#9a916c;stroke:none;stroke-width:0" id="connector28pin" height="2.551" x="35.277" y="21.294" gorn="0.3.25.0.0"/></g></g><g transform="matrix(-1,0,0,-1,76.932,45.1389)"><g id="g4000" gorn="0.3.26.0"><rect width="1.276" style="fill:#9a916c;stroke:none;stroke-width:0" id="connector29pin" height="2.551" x="37.828" y="21.294" gorn="0.3.26.0.0"/></g></g><g transform="matrix(-1,0,0,-1,81.468,45.1389)"><g id="g4003" gorn="0.3.27.0"><rect width="1.276" style="fill:#9a916c;stroke:none;stroke-width:0" id="connector30pin" height="2.551" x="40.096" y="21.294" gorn="0.3.27.0.0"/></g></g><g transform="matrix(-1,0,0,-1,86.5699,45.1389)"><g id="g4006" gorn="0.3.28.0"><rect width="1.276" style="fill:#9a916c;stroke:none;stroke-width:0" id="connector31pin" height="2.551" x="42.647" y="21.294" gorn="0.3.28.0.0"/></g></g><rect width="1.559" style="fill:#9a916c;stroke:none;stroke-width:0" id="connector32pin" height="1.134" x="20.948" y="22.725" gorn="0.3.29"/><rect width="1.559" style="fill:#9a916c;stroke:none;stroke-width:0" id="connector33pin" height="1.134" x="20.948" y="24.993" gorn="0.3.30"/><rect width="1.559" style="fill:#9a916c;stroke:none;stroke-width:0" id="connector34pin" height="1.134" x="20.948" y="27.261" gorn="0.3.31"/><rect width="1.559" style="fill:#9a916c;stroke:none;stroke-width:0" id="connector35pin" height="1.134" x="27.893" y="27.261" gorn="0.3.32"/><rect width="1.559" style="fill:#9a916c;stroke:none;stroke-width:0" id="connector36pin" height="1.134" x="27.893" y="24.993" gorn="0.3.33"/><rect width="1.559" style="fill:#9a916c;stroke:none;stroke-width:0" id="connector37pin" height="1.134" x="27.893" y="22.725" gorn="0.3.34"/><rect width="2.976" style="fill:#9a916c;stroke:none;stroke-width:0" id="connector38pin" height="4.252" x="23.712" y="23.434" gorn="0.3.35"/><circle cx="7.2" style="fill:none;stroke:#9a916c;stroke-width:1.44000006" id="connector39pin" cy="7.56" r="4.263" connectorname="P$1" gorn="0.3.36"/><circle cx="42.84" style="fill:none;stroke:#9a916c;stroke-width:1.44000006" id="connector40pin" cy="7.56" r="4.263" connectorname="P$1" gorn="0.3.37"/><g transform="matrix(0,1,-1,0,27.1017,18.6324)"><g id="g4018" gorn="0.3.38.0"><rect width="1.559" style="fill:#9a916c;stroke:none;stroke-width:0" id="connector41pin" height="3.402" x="3.455" y="21.166" gorn="0.3.38.0.0"/></g></g><g transform="matrix(0,1,-1,0,29.7947,21.3253)"><g id="g4021" gorn="0.3.39.0"><rect width="1.559" style="fill:#9a916c;stroke:none;stroke-width:0" id="connector42pin" height="3.402" x="3.455" y="23.859" gorn="0.3.39.0.0"/></g></g><g transform="matrix(0,1,-1,0,32.4876,24.0183)"><g id="g4024" gorn="0.3.40.0"><rect width="1.559" style="fill:#9a916c;stroke:none;stroke-width:0" id="connector43pin" height="3.402" x="3.455" y="26.552" gorn="0.3.40.0.0"/></g></g><g transform="matrix(0,1,-1,0,39.8583,16.6476)"><g id="g4027" gorn="0.3.41.0"><rect width="1.559" style="fill:#9a916c;stroke:none;stroke-width:0" id="connector44pin" height="3.402" x="10.826" y="26.552" gorn="0.3.41.0.0"/></g></g><g transform="matrix(0,1,-1,0,34.4724,11.2617)"><g id="g4030" gorn="0.3.42.0"><rect width="1.559" style="fill:#9a916c;stroke:none;stroke-width:0" id="connector45pin" height="3.402" x="10.826" y="21.166" gorn="0.3.42.0.0"/></g></g></g><g transform="translate(23.4455,31.3485)"><g id="0805-cap" gorn="0.4.0"><g transform="matrix(-1,0,0,-1,5.669,3.543)"><g id="g4034" gorn="0.4.0.0.0"><path style="fill:#dcdcdc" id="path4036" d="m 5.386,3.543 -5.103,0 C 0.127,3.543 0,3.416 0,3.26 L 0,0.283 C 0,0.127 0.127,0 0.283,0 l 5.102,0 c 0.157,0 0.283,0.127 0.283,0.283 l 0,2.977 C 5.669,3.416 5.542,3.543 5.386,3.543 Z" gorn="0.4.0.0.0.0"/><rect width="3.543" style="fill:#6e554b" id="rect4038" height="3.543" x="1.063" y="0" gorn="0.4.0.0.0.1"/></g></g></g></g><g transform="translate(5.0855,32.0685)"><g id="g4040" gorn="0.5.0"><path style="fill:#dcdcdc" id="path4042" d="m 5.386,3.543 -5.103,0 C 0.127,3.543 0,3.416 0,3.26 L 0,0.283 C 0,0.127 0.127,0 0.283,0 l 5.102,0 c 0.157,0 0.283,0.127 0.283,0.283 l 0,2.977 C 5.669,3.416 5.542,3.543 5.386,3.543 Z" gorn="0.5.0.0"/><rect width="3.543" style="fill:#6e554b" id="rect4044" height="3.543" x="1.063" y="0" gorn="0.5.0.1"/></g></g><g transform="translate(4.7255,15.8685)"><g id="g4046" gorn="0.6.0"><g transform="matrix(-1,0,0,-1,5.669,3.543)"><g id="g4048" gorn="0.6.0.0.0"><path style="fill:#dcdcdc" id="path4050" d="m 5.386,3.543 -5.103,0 C 0.127,3.543 0,3.416 0,3.26 L 0,0.283 C 0,0.127 0.127,0 0.283,0 l 5.102,0 c 0.157,0 0.283,0.127 0.283,0.283 l 0,2.977 C 5.669,3.416 5.542,3.543 5.386,3.543 Z" gorn="0.6.0.0.0.0"/><rect width="3.543" style="fill:#6e554b" id="rect4052" height="3.543" x="1.063" y="0" gorn="0.6.0.0.0.1"/></g></g></g></g><g transform="translate(34.628,27.493)"><g id="sot23-wide" gorn="0.7.0"><g id="g4055" gorn="0.7.0.0"><rect width="1.417" style="fill:#dcdcdc" id="rect4057" height="2.976" x=".85" y="4.677" gorn="0.7.0.0.0"/><rect width="1.417" style="fill:#dcdcdc" id="rect4059" height="2.976" x="6.236" y="4.677" gorn="0.7.0.0.1"/><rect width="1.417" style="fill:#dcdcdc" id="rect4061" height="3.118" x="3.543" y="0" gorn="0.7.0.0.2"/><rect width="8.504" style="fill:#303030" id="rect4063" height="3.685" x="0" y="1.984" gorn="0.7.0.0.3"/></g></g></g><g transform="translate(20.948,11.653)"><g id="g4065" gorn="0.8.0"><g id="g4067" gorn="0.8.0.0"><rect width="1.417" style="fill:#dcdcdc" id="rect4069" height="2.976" x=".85" y="4.677" gorn="0.8.0.0.0"/><rect width="1.417" style="fill:#dcdcdc" id="rect4071" height="2.976" x="6.236" y="4.677" gorn="0.8.0.0.1"/><rect width="1.417" style="fill:#dcdcdc" id="rect4073" height="3.118" x="3.543" y="0" gorn="0.8.0.0.2"/><rect width="8.504" style="fill:#303030" id="rect4075" height="3.685" x="0" y="1.984" gorn="0.8.0.0.3"/></g></g></g><g transform="translate(35.0645,17.8925)"><g id="respack_4x0603" gorn="0.9.0"><g transform="matrix(-1,0,0,-1,9.07099,4.535)"><g id="g4078" gorn="0.9.0.0.0"><g id="g4080" gorn="0.9.0.0.0.0"><rect width="1.843" style="fill:#dcdcdc" id="rect4082" height="4.535" x="0" y="0" gorn="0.9.0.0.0.0.0"/><rect width="1.417" style="fill:#dcdcdc" id="rect4084" height="4.535" x="2.693" y="0" gorn="0.9.0.0.0.0.1"/><rect width="1.417" style="fill:#dcdcdc" id="rect4086" height="4.535" x="4.961" y="0" gorn="0.9.0.0.0.0.2"/><rect width="1.843" style="fill:#dcdcdc" id="rect4088" height="4.535" x="7.228" y="0" gorn="0.9.0.0.0.0.3"/><rect width="9.071" style="fill:#303030" id="rect4090" height="2.835" x="0" y=".85" gorn="0.9.0.0.0.0.4"/></g></g></g></g></g><g transform="translate(21.629369,21.906719)"><g id="sgp30" gorn="0.10.0"><metadata id="metadata17"><rdf:RDF xmlns:rdf="http://www.w3.org/1999/02/22-rdf-syntax-ns#"><cc:Work xmlns:cc="http://creativecommons.org/ns#" xmlns:rdf="http://www.w3.org/1999/02/22-rdf-syntax-ns#"><dc:format xmlns:dc="http://purl.org/dc/elements/1.1/">image/svg+xml</dc:format><dc:type xmlns:dc="http://purl.org/dc/elements/1.1/" xmlns:rdf="http://www.w3.org/1999/02/22-rdf-syntax-ns#" rdf:resource="http://purl.org/dc/dcmitype/StillImage"/><dc:title xmlns:dc="http://purl.org/dc/elements/1.1/"/></cc:Work></rdf:RDF></metadata><rect id="rect4147" width="7.231" style="opacity:1;fill:#1a1a1a;fill-opacity:1" height="7.331" x="-.101" y="-.077" gorn="0.10.0.2" rx=".283" ry=".283"/><circle id="path4149" cx="3.543" style="opacity:1;fill:#b3b3b3;fill-opacity:1" cy="3.543" r="1.417" gorn="0.10.0.3"/><circle id="path4151" cx="2.405" style="opacity:1;fill:#b3b3b3;fill-opacity:1" cy="2.362" r=".42" gorn="0.10.0.4"/></g></g><g transform="translate(11.1621,12.9063)"><g id="adafruit_2.5mm" gorn="0.11.0"><path style="fill:#dcdcdc" id="path4100" d="M 9.747,3.082 C 9.724,2.94 9.647,2.899 9.461,2.839 9.31903,2.794 8.37202,2.492 8.37202,2.492 c 0,0 -0.66,-0.249 -1.15,0.103 -0.066,0.048 -0.134,0.102 -0.203,0.16 0.058,-0.069 0.112,-0.137 0.159,-0.203 0.352,-0.49 0.101,-1.15 0.101,-1.15 0,0 -0.30302,-0.947 -0.34902,-1.089 C 6.87,0.127 6.83,0.05 6.687,0.028 6.545,0.005 6.483,0.066 6.369,0.225 6.282,0.345 5.702,1.153001 5.702,1.153001 5.702,1.153001 5.261,1.704 5.445,2.279 5.47,2.356 5.5,2.438 5.534,2.521 5.486,2.445 5.438,2.372 5.39,2.307 5.032,1.821 4.328,1.855 4.328,1.855 c 0,0 -0.995,-0.004 -1.143,-0.004 -0.195,0 -0.281,0.014 -0.347,0.143 -0.065,0.128 -0.027,0.206 0.089,0.364 0.088,0.12 0.677,0.921002 0.677,0.921002 0,0 0.388,0.59 0.991001,0.592 0.081,0 0.168,-0.003 0.257,-0.01 C 4.765,3.883 4.681,3.907 4.604,3.932 4.031,4.122 3.845998,4.802998 3.845998,4.802998 c 0,0 -0.31,0.943999 -0.357,1.085 C 3.428,6.074 3.416,6.16 3.518,6.262 3.62,6.364 3.706,6.352 3.892,6.29 4.033,6.244 4.977,5.931 4.977,5.931 c 0,0 0.681,-0.187 0.868997,-0.760003 0.025,-0.077 0.049,-0.16 0.07,-0.247 C 5.91,5.014 5.907,5.1 5.907,5.181 c 0.004,0.603 0.594,0.99 0.594,0.99 0,0 0.802001,0.588 0.922003,0.675 C 7.58102,6.962 7.659,7 7.78802,6.935 7.91597,6.869 7.93102,6.783 7.93001,6.588 7.929,6.439 7.92403,5.445 7.92403,5.445 7.92403,5.445 7.95701,4.74 7.47,4.383 7.40498,4.335 7.33198,4.287 7.25602,4.24 c 0.083,0.034 0.165,0.064 0.242,0.088 0.575,0.183 1.125,-0.259 1.125,-0.259 0,0 0.80696,-0.5809998 0.92699,-0.6679998 C 9.70898,3.286 9.76903,3.224 9.747,3.082 Z M 6.322,2.35 C 6.43,2.367 6.484,2.598 6.442,2.865 6.4,3.132 6.278,3.335 6.169,3.318 6.061,3.301 6.007,3.07 6.049,2.803 6.091,2.535 6.213,2.332 6.322,2.35 Z M 4.933,3.059 C 4.983,2.961 5.219,2.981 5.46,3.104 5.701,3.227 5.857,3.406 5.807,3.503 5.757,3.601 5.521,3.581 5.28,3.458 5.038,3.335 4.883,3.157 4.933,3.059 Z M 5.665,4.393 C 5.474,4.584 5.256,4.677 5.178,4.599 5.101,4.521 5.193,4.303 5.384,4.112 5.575,3.92 5.793,3.827 5.871,3.905 5.949,3.983 5.857,4.201 5.665,4.393 Z M 6.719,4.842 C 6.6210001,4.892 6.442,4.737 6.319,4.496 6.196,4.254 6.175,4.018 6.273,3.968 6.371,3.918 6.55,4.073 6.673,4.314 6.796,4.556 6.817,4.792 6.719,4.842 Z M 6.973,3.725 C 6.706,3.767 6.475,3.714 6.457,3.606 6.44,3.497 6.643,3.375 6.91,3.332 7.177,3.289 7.408,3.343 7.425,3.451 7.443,3.56 7.24003,3.682 6.973,3.725 Z" gorn="0.11.0.0"/></g></g><g transform="translate(3.80999,21.733)"><g id="sot23-5" gorn="0.12.0"><g transform="matrix(0,1,-1,0,7.93706,-0.282996)"><g id="g4103" gorn="0.12.0.0.0"><g id="g4105" gorn="0.12.0.0.0.0"><rect width="1.134" style="fill:#dcdcdc" id="rect4107" height="7.654" x=".85" y="0" gorn="0.12.0.0.0.0.0"/><rect width="1.134" style="fill:#dcdcdc" id="rect4109" height="7.654" x="6.236" y="0" gorn="0.12.0.0.0.0.1"/><rect width="1.134" style="fill:#dcdcdc" id="rect4111" height="3.118" x="3.543" y="4.535" gorn="0.12.0.0.0.0.2"/><rect width="8.22" style="fill:#303030" id="rect4113" height="4.535" x="0" y="1.559" gorn="0.12.0.0.0.0.3"/></g></g></g></g></g></svg>