<svg xmlns="http://www.w3.org/2000/svg" xmlns:xml="http://www.w3.org/XML/1998/namespace" id="svg13574" width="69.921" height="460.677" x="0" y="0" baseProfile="tiny" gorn="0" version="1.2" viewBox="0 0 52.441 345.508" xml:space="preserve"><desc><referenceFile>2200.svg</referenceFile></desc><g><path id="path3821_7_" fill="none" stroke="#CB1717" stroke-linejoin="round" stroke-width="3.6" d="M22.62,154.335V20.409" gorn="0.5.0"/><path id="path3815_7_" fill="none" stroke="#202020" stroke-linejoin="round" stroke-width="3.6" d="M29.82,154.335V20.409" gorn="0.5.1"/><path id="path3821_6_" fill="none" stroke="#E58B8B" stroke-linecap="round" stroke-linejoin="round" stroke-width=".567" d="M21.557,151.335l0.142-129.688" gorn="0.5.2"/><path id="path3815_6_" fill="none" stroke="#909090" stroke-linecap="round" stroke-linejoin="round" stroke-width=".567" d="M28.899,151.335V21.647" gorn="0.5.3"/><path id="rect2997_3_" fill="#1464DC" d="M2.447,151.335h47.547c1.351,0,2.447,1.074,2.447,2.398V343.11c0,1.325-1.096,2.398-2.447,2.398H2.447c-1.351,0-2.447-1.074-2.447-2.398V153.733C0,152.408,1.096,151.335,2.447,151.335z" gorn="0.5.4"/><rect id="connector1pin" width="5.669" height="5.669" x="19.786" fill="none" gorn="0.5.5"/><rect id="connector2pin" width="5.669" height="5.669" x="26.986" fill="none" gorn="0.5.6"/><polygon fill="#EAEAEA" stroke="#C8C8C8" stroke-linecap="round" stroke-linejoin="round" stroke-miterlimit="10" stroke-width=".567" points="33.307 14.74 33.307 2.835 19.134 2.835 19.134 14.74 17.717 20.409 19.134 20.409 33.307 20.409 34.724 20.409"/><polygon fill="#C8C8C8" points="24.449 20.126 25.157 20.126 25.157 3.402 24.449 4.11"/><polygon fill="#FFF" points="27.283 20.126 27.709 20.126 27.709 3.827 27.283 3.402"/><g><g><g><g transform="matrix(-1 -4.377533e-11 4.377533e-11 -1 17.4803 496.8425)"><rect width="6.69" height="191.339" x="5.395" y="152.752" fill="#4F8BE5"/></g></g></g></g><rect width="6.69" height="191.339" x="40.356" y="152.752" fill="#0F4BA5"/><g><g><g><g transform="matrix(0 1 -1 0 19.4402 197.8119)"><text id="tspan3851_4_" fill="#0A326E" font-family="OCRA" font-size="16" gorn="0.5.12.0.0.0.0">2200mAh</text></g></g></g></g></g></svg>