<?xml version='1.0' encoding='utf-8'?>
<!-- Generator: Adobe Illustrator 20.0.0, SVG Export Plug-In . SVG Version: 6.00 Build 0)  -->
<svg xmlns:xml="http://www.w3.org/XML/1998/namespace" xmlns="http://www.w3.org/2000/svg" baseProfile="tiny" width="0.728347in" version="1.2"
     x="0px" y="0px" height="4.79872in" id="svg13574" gorn="0"
     viewBox="0 0 52.441 345.508" xml:space="preserve">
    <desc>
        <referenceFile>2200.svg</referenceFile>
    </desc>
    <g transform="translate(0,-656.35975)">
        <g>
            <g>
                <g>
                    <g id="layer1" gorn="0.1.0.0.0.0"/>
                </g>
            </g>
        </g>
    </g>
    <g transform="translate(0,-54)">
        <g>
            <g>
                <g>
                    <g id="layer2" gorn="0.2.0.0.0.0"/>
                </g>
            </g>
        </g>
    </g>
    <g transform="translate(0,-54)">
        <g>
            <g>
                <g>
                    <g id="layer3" gorn="0.3.0.0.0.0"/>
                </g>
            </g>
        </g>
    </g>
    <g transform="translate(0,-54)">
        <g>
            <g>
                <g>
                    <g id="layer4" gorn="0.4.0.0.0.0"/>
                </g>
            </g>
        </g>
    </g>
    <g>
        <path d="M22.62,154.335V20.409" stroke="#CB1717" stroke-width="3.6" stroke-linejoin="round" id="path3821_7_"
              gorn="0.5.0" fill="none"/>
        <path d="M29.82,154.335V20.409" stroke="#202020" stroke-width="3.6" stroke-linejoin="round" id="path3815_7_"
              gorn="0.5.1" fill="none"/>
        <path d="M21.557,151.335l0.142-129.688" stroke="#E58B8B" stroke-width="0.5669" stroke-linecap="round"
              stroke-linejoin="round" id="path3821_6_" gorn="0.5.2" fill="none"/>
        <path d="M28.899,151.335V21.647" stroke="#909090" stroke-width="0.5669" stroke-linecap="round"
              stroke-linejoin="round" id="path3815_6_" gorn="0.5.3" fill="none"/>
        <path d="M2.447,151.335h47.547c1.351,0,2.447,1.074,2.447,2.398V343.11c0,1.325-1.096,2.398-2.447,2.398H2.447c-1.351,0-2.447-1.074-2.447-2.398V153.733C0,152.408,1.096,151.335,2.447,151.335z"
              id="rect2997_3_" gorn="0.5.4" fill="#1464DC"/>
        <rect width="5.669" x="19.786" height="5.669" id="connector1pin" gorn="0.5.5" fill="none"/>
        <rect width="5.669" x="26.986" height="5.669" id="connector2pin" gorn="0.5.6" fill="none"/>
        <polygon stroke="#C8C8C8" stroke-width="0.5669"
                 points="33.307,14.74 33.307,2.835 19.134,2.835 19.134,14.74 17.717,20.409 19.134,20.409 33.307,20.409 34.724,20.409 "
                 stroke-linecap="round" stroke-linejoin="round" stroke-miterlimit="10" fill="#EAEAEA"/>
        <polygon points="24.449,20.126 25.157,20.126 25.157,3.402 24.449,4.11 " fill="#C8C8C8"/>
        <polygon points="27.283,20.126 27.709,20.126 27.709,3.827 27.283,3.402 " fill="#FFFFFF"/>
        <g transform="matrix(-1 -4.377533e-11 4.377533e-11 -1 17.4803 496.8425)">
            <g>
                <g>
                    <g>
                        <rect width="6.69" x="5.395" y="152.752" height="191.339" fill="#4F8BE5"/>
                    </g>
                </g>
            </g>
        </g>
        <rect width="6.69" x="40.356" y="152.752" height="191.339" fill="#0F4BA5"/>
        <g transform="matrix(0 1 -1 0 19.4402 197.8119)">
            <g>
                <g>
                    <g>
                        <text font-family="OCRA" id="tspan3851_4_" gorn="0.5.12.0.0.0.0" font-size="16" fill="#0A326E">2200mAh</text>
                    </g>
                </g>
            </g>
        </g>
    </g>
</svg>
